SplineFontDB: 3.0
FontName: KAN-KaveriBoldItalic
FullName: KAN Kaveri Bold Italic
FamilyName: KAN Kaveri
Weight: Bold
Copyright: Copyright (c) 2009-2015, NLCI (http://www.nlci.in/fonts/)
Version: 1.0 Wed May 17 15:32:13 1995
ItalicAngle: 12
UnderlinePosition: -593
UnderlineWidth: 40
Ascent: 1638
Descent: 410
InvalidEm: 0
LayerCount: 2
Layer: 0 0 "Back" 1
Layer: 1 0 "Fore" 0
XUID: [1021 122 585067096 5556871]
FSType: 0
OS2Version: 0
OS2_WeightWidthSlopeOnly: 0
OS2_UseTypoMetrics: 1
CreationTime: 1250825690
ModificationTime: 1523585995
PfmFamily: 81
TTFWeight: 700
TTFWidth: 5
LineGap: 0
VLineGap: 0
Panose: 5 0 0 0 0 0 0 0 0 0
OS2TypoAscent: -147
OS2TypoAOffset: 1
OS2TypoDescent: -401
OS2TypoDOffset: 1
OS2TypoLinegap: 0
OS2WinAscent: -467
OS2WinAOffset: 1
OS2WinDescent: -213
OS2WinDOffset: 1
HheadAscent: -467
HheadAOffset: 1
HheadDescent: 213
HheadDOffset: 1
OS2SubXSize: 1434
OS2SubYSize: 1331
OS2SubXOff: 0
OS2SubYOff: 293
OS2SupXSize: 1434
OS2SupYSize: 1331
OS2SupXOff: 0
OS2SupYOff: 928
OS2StrikeYSize: 102
OS2StrikeYPos: 530
OS2Vendor: 'Alts'
OS2UnicodeRanges: 00000000.00000000.00000000.00000000
Lookup: 262 0 0 "blwm" { "blwm-2sub"  } []
MarkAttachClasses: 1
DEI: 91125
TtTable: prep
NPUSHB
 1
 1
SCANTYPE
PUSHW_1
 511
SCANCTRL
EndTTInstrs
ShortTable: maxp 16
  1
  0
  319
  206
  5
  177
  6
  2
  8
  64
  10
  0
  3
  417
  4
  2
EndShort
LangName: 1033 "" "" "Bold Italic" "NLCI:KAN Kaveri Bold Italic" "" "1.0 Wed May 17 15:32:13 1995"
Encoding: Original
UnicodeInterp: none
NameList: Adobe Glyph List
DisplaySize: -48
AntiAlias: 1
FitToEm: 1
BeginPrivate: 0
EndPrivate
AnchorClass2: "Sub" "blwm-2sub" "Nukta"""  "s"""  "V""" 
BeginChars: 608 608

StartChar: .notdef
Encoding: 0 -1 0
Width: 1024
Flags: HW
LayerCount: 2
Fore
SplineSet
63 0 m 1
 63 1237 l 1
 961 1237 l 1
 961 0 l 1
 63 0 l 1
897 63 m 1
 897 1174 l 1
 127 1174 l 1
 127 63 l 1
 897 63 l 1
EndSplineSet
EndChar

StartChar: exclam
Encoding: 4 33 4
Width: 557
VWidth: 1024
Flags: HW
LayerCount: 2
Fore
SplineSet
162 7 m 0
 155.333007812 13 152 21 152 31 c 0
 152 39 l 0
 186 248 l 0
 190 276.666992188 206.666992188 291 236 291 c 0
 412 291 l 0
 436.666992188 291 449 280.666992188 449 260 c 0
 449 248 l 0
 414 39 l 0
 411.333007812 11.6669921875 395 -2 365 -2 c 0
 188 -2 l 0
 177.333007812 -2 168.666992188 1 162 7 c 0
367 1513 m 0
 670 1513 l 0
 453 416 l 0
 229 416 l 0
 367 1513 l 0
EndSplineSet
EndChar

StartChar: quotedbl
Encoding: 5 34 5
Width: 819
VWidth: 1024
Flags: HW
LayerCount: 2
Fore
SplineSet
883 1403 m 0
 883 1396.33333333 879 1380.66666667 871 1356 c 0
 863.666666667 1331.33333333 854 1302 842 1268 c 0
 830 1234 816.666666667 1197 802 1157 c 0
 787.333333333 1117 773.333333333 1078.33333333 760 1041 c 0
 746.666666667 1004.33333333 734.333333333 971 723 941 c 0
 712.333333333 911 704 888.666666667 698 874 c 0
 621 874 l 0
 638 1365 l 0
 638.666666667 1384.33333333 643 1402 651 1418 c 0
 659 1434 670 1447.66666667 684 1459 c 0
 697.333333333 1470.33333333 712.666666667 1479.66666667 730 1487 c 0
 747.333333333 1493.66666667 764.666666667 1497 782 1497 c 0
 812.666666667 1497 837.333333333 1489.66666667 856 1475 c 0
 874 1459.66666667 883 1435.66666667 883 1403 c 0
472 1403 m 0
 472 1396.33333333 468.333333333 1380.66666667 461 1356 c 0
 453.666666667 1331.33333333 444 1302 432 1268 c 0
 420 1234 406.666666667 1197 392 1157 c 0
 377.333333333 1117 363 1078.33333333 349 1041 c 0
 335.666666667 1004.33333333 323.333333333 971 312 941 c 0
 300.666666667 911 292.666666667 888.666666667 288 874 c 0
 210 874 l 0
 224 1365 l 0
 224.666666667 1384.33333333 229.666666667 1402 239 1418 c 0
 247.666666667 1434 258.666666667 1447.66666667 272 1459 c 0
 285.333333333 1470.33333333 300.666666667 1479.66666667 318 1487 c 0
 335.333333333 1493.66666667 353 1497 371 1497 c 0
 401.666666667 1497 426 1489.66666667 444 1475 c 0
 462.666666667 1459.66666667 472 1435.66666667 472 1403 c 0
EndSplineSet
Refer: 10 39 N 1 0 0 1 373 0 2
Refer: 10 39 N 1 0 0 1 0 0 2
EndChar

StartChar: numbersign
Encoding: 6 35 6
Width: 1480
VWidth: 1024
Flags: HW
LayerCount: 2
Fore
SplineSet
928 627 m 0
 1008 870 l 0
 766 870 l 0
 684 627 l 0
 928 627 l 0
408 424 m 0
 98 424 l 0
 162 627 l 0
 479 627 l 0
 561 870 l 0
 240 870 l 0
 305 1073 l 0
 633 1073 l 0
 778 1499 l 0
 983 1499 l 0
 838 1073 l 0
 1071 1073 l 0
 1214 1499 l 0
 1419 1499 l 0
 1276 1073 l 0
 1624 1073 l 0
 1563 870 l 0
 1212 870 l 0
 1130 627 l 0
 1481 627 l 0
 1419 424 l 0
 1053 424 l 0
 909 0 l 0
 705 0 l 0
 848 424 l 0
 612 424 l 0
 469 0 l 0
 264 0 l 0
 408 424 l 0
EndSplineSet
EndChar

StartChar: dollar
Encoding: 7 36 7
Width: 1247
VWidth: 1024
Flags: HW
LayerCount: 2
Fore
SplineSet
553 1051 m 0
 550.333007812 1029 549 1014 549 1006 c 0
 549 968 559.833007812 940.333007812 581.5 923 c 0
 603.166992188 905.666992188 638 897 686 897 c 0
 815 897 l 0
 939 897 1034.5 868 1101.5 810 c 0
 1168.5 752 1202 674.666992188 1202 578 c 0
 1202 554.666992188 1200 527.333007812 1196 496 c 0
 1176 354 l 0
 1156.66699219 234 1109.83300781 145 1035.5 87 c 0
 961.166992188 29 848.666992188 -3.3330078125 698 -10 c 0
 672 -182 l 0
 500 -182 l 0
 526 -10 l 0
 373.333007812 -4.6669921875 240.333007812 11 127 37 c 0
 164 276 l 0
 295.333007812 265.333007812 447.666992188 260 621 260 c 0
 711 260 776.833007812 270.666992188 818.5 292 c 0
 860.166992188 313.333007812 885.666992188 352.666992188 895 410 c 0
 903 463 l 0
 905.666992188 482.333007812 907 496 907 504 c 0
 907 542 893.333007812 569.166992188 866 585.5 c 0
 838.666992188 601.833007812 795 610 735 610 c 0
 614 610 l 0
 500.666992188 610 412 639 348 697 c 0
 284 755 252 832.666992188 252 930 c 0
 252 957.333007812 254 986 258 1016 c 0
 279 1139 l 0
 299.666992188 1273 351.5 1370 434.5 1430 c 0
 517.5 1490 631.333007812 1522.66699219 776 1528 c 0
 788 1638 l 0
 956 1688 l 0
 942 1528 l 0
 930 1524 l 0
 1064 1517.33300781 1181.33300781 1501.66699219 1282 1477 c 0
 1243 1237 l 0
 1116.33300781 1247.66699219 962.666992188 1253 782 1253 c 0
 715.333007812 1253 664.166992188 1242.16699219 628.5 1220.5 c 0
 592.833007812 1198.83300781 570.333007812 1160 561 1104 c 0
 553 1051 l 0
EndSplineSet
EndChar

StartChar: percent
Encoding: 8 37 8
Width: 1974
VWidth: 1024
Flags: HW
LayerCount: 2
Fore
SplineSet
1622 203 m 0
 1668.66699219 203 1702.5 212.166992188 1723.5 230.5 c 0
 1744.5 248.833007812 1758.33300781 279.333007812 1765 322 c 0
 1788 475 l 0
 1790.66699219 484.333007812 1792 498 1792 516 c 0
 1792 544.666992188 1783.83300781 564.833007812 1767.5 576.5 c 0
 1751.16699219 588.166992188 1725.33300781 594 1690 594 c 0
 1559 594 l 0
 1517 594 1485 585.833007812 1463 569.5 c 0
 1441 553.166992188 1426.33300781 521.666992188 1419 475 c 0
 1397 322 l 0
 1393 308.666992188 1391 295 1391 281 c 0
 1391 253.666992188 1398.83300781 233.833007812 1414.5 221.5 c 0
 1430.16699219 209.166992188 1456.33300781 203 1493 203 c 0
 1622 203 l 0
1242 55 m 0
 1204.66699219 87.6669921875 1186 137 1186 203 c 0
 1186 226.333007812 1188 250.666992188 1192 276 c 0
 1231 520 l 0
 1244.33300781 610 1276 677.666992188 1326 723 c 0
 1376 768.333007812 1450.66699219 791 1550 791 c 0
 1759 791 l 0
 1842.33300781 791 1903.16699219 774.5 1941.5 741.5 c 0
 1979.83300781 708.5 1999 659.333007812 1999 594 c 0
 1999 569.333007812 1997 544.666992188 1993 520 c 0
 1954 276 l 0
 1938.66699219 186 1905.83300781 118.5 1855.5 73.5 c 0
 1805.16699219 28.5 1730 6 1630 6 c 0
 1421 6 l 0
 1339 6 1279.33300781 22.3330078125 1242 55 c 0
655 911 m 0
 701.666992188 911 734.833007812 920.333007812 754.5 939 c 0
 774.166992188 957.666992188 787.666992188 988 795 1030 c 0
 819 1184 l 0
 821.666992188 1193.33300781 823 1207 823 1225 c 0
 823 1253.66699219 815.166992188 1273.83300781 799.5 1285.5 c 0
 783.833007812 1297.16699219 757.666992188 1303 721 1303 c 0
 590 1303 l 0
 549.333007812 1303 518 1294.66699219 496 1278 c 0
 474 1261.33300781 459 1230 451 1184 c 0
 426 1030 l 0
 423.333007812 1010.66699219 422 997 422 989 c 0
 422 961.666992188 429.833007812 941.833007812 445.5 929.5 c 0
 461.166992188 917.166992188 487.333007812 911 524 911 c 0
 655 911 l 0
1579 1499 m 0
 1776 1499 l 0
 629 0 l 0
 420 0 l 0
 1579 1499 l 0
274.5 764 m 0
 236.166992188 796.666992188 217 845.666992188 217 911 c 0
 217 935.666992188 219 960.333007812 223 985 c 0
 262 1229 l 0
 275.333007812 1319 307.333007812 1386.5 358 1431.5 c 0
 408.666992188 1476.5 484 1499 584 1499 c 0
 791 1499 l 0
 874.333007812 1499 935 1482.66699219 973 1450 c 0
 1011 1417.33300781 1030 1368.33300781 1030 1303 c 0
 1030 1278.33300781 1028 1253.66699219 1024 1229 c 0
 985 985 l 0
 969.666992188 895 936.833007812 827.5 886.5 782.5 c 0
 836.166992188 737.5 761.333007812 715 662 715 c 0
 455 715 l 0
 373 715 312.833007812 731.333007812 274.5 764 c 0
EndSplineSet
EndChar

StartChar: ampersand
Encoding: 9 38 9
Width: 1429
VWidth: 1024
Flags: HW
LayerCount: 2
Fore
SplineSet
660.5 282.5 m 0
 690.166992188 293.5 721.333007812 312.666992188 754 340 c 0
 813 391 l 0
 643 676 l 0
 571 635 l 0
 516.333007812 605 478.833007812 572.166992188 458.5 536.5 c 0
 438.166992188 500.833007812 428 458.666992188 428 410 c 0
 428 366 440.333007812 331 465 305 c 0
 489.666992188 279 523 266 565 266 c 0
 599 266 630.833007812 271.5 660.5 282.5 c 0
216 83 m 0
 151.333007812 146.333007812 119 230.666992188 119 336 c 0
 119 445.333007812 140.166992188 536.166992188 182.5 608.5 c 0
 224.833007812 680.833007812 292.333007812 744.333007812 385 799 c 0
 532 883 l 0
 510 924 l 0
 470.666992188 1000.66699219 451 1077.66699219 451 1155 c 0
 451 1259 488.5 1344 563.5 1410 c 0
 638.5 1476 748.333007812 1509 893 1509 c 0
 957 1509 1020.16699219 1504.33300781 1082.5 1495 c 0
 1144.83300781 1485.66699219 1198.33300781 1474.66699219 1243 1462 c 0
 1208 1241 l 0
 909 1241 l 0
 803.666992188 1241 751.333007812 1201.33300781 752 1122 c 0
 752 1081.33300781 774.333007812 1022 819 944 c 0
 1042 555 l 0
 1376 819 l 0
 1466 682 l 0
 1307 453 l 0
 1171 340 l 0
 1372 0 l 0
 1061 0 l 0
 940 188 l 0
 854 123 l 0
 791.333007812 75 730.333007812 40.5 671 19.5 c 0
 611.666992188 -1.5 545.666992188 -12 473 -12 c 0
 366.333007812 -12 280.666992188 19.6669921875 216 83 c 0
EndSplineSet
EndChar

StartChar: quotesingle
Encoding: 10 39 10
Width: 446
VWidth: 1024
Flags: HW
LayerCount: 2
Fore
SplineSet
295 1407 m 0
 315 1544 l 0
 606 1544 l 0
 586 1407 l 0
 506 1018 l 0
 252 1018 l 0
 295 1407 l 0
EndSplineSet
EndChar

StartChar: parenleft
Encoding: 11 40 11
Width: 792
VWidth: 1024
Flags: HW
LayerCount: 2
Fore
SplineSet
197 340 m 0
 197 508 223.5 682.833007812 276.5 864.5 c 0
 329.5 1046.16699219 399.666992188 1215.83300781 487 1373.5 c 0
 574.333007812 1531.16699219 668 1660.33300781 768 1761 c 0
 1038 1761 l 0
 940 1642.33300781 850.333007812 1504.16699219 769 1346.5 c 0
 687.666992188 1188.83300781 622.833007812 1024 574.5 852 c 0
 526.166992188 680 502 515.333007812 502 358 c 0
 502 217.333007812 518 84.3330078125 550 -41 c 0
 582 -166.333007812 629.333007812 -296 692 -430 c 0
 422 -430 l 0
 272 -210 197 46.6669921875 197 340 c 0
EndSplineSet
EndChar

StartChar: parenright
Encoding: 12 41 12
Width: 790
VWidth: 1024
Flags: HW
LayerCount: 2
Fore
SplineSet
235.5 -5.5 m 0
 317.166992188 152.166992188 382 316.333007812 430 487 c 0
 478 657.666992188 502 821.666992188 502 979 c 0
 502 1117 486 1247.66699219 454 1371 c 0
 422 1494.33300781 373.666992188 1624.33300781 309 1761 c 0
 582 1761 l 0
 652.666992188 1654.33300781 707.5 1539.33300781 746.5 1416 c 0
 785.5 1292.66699219 805 1152.33300781 805 995 c 0
 805 827 778.666992188 653 726 473 c 0
 673.333007812 293 603.666992188 124.166992188 517 -33.5 c 0
 430.333007812 -191.166992188 336.666992188 -323.333007812 236 -430 c 0
 -37 -430 l 0
 63 -304.666992188 153.833007812 -163.166992188 235.5 -5.5 c 0
EndSplineSet
EndChar

StartChar: asterisk
Encoding: 13 42 13
Width: 890
VWidth: 1024
Flags: HW
LayerCount: 2
Fore
SplineSet
535 961 m 0
 639 1092 l 0
 844 911 l 0
 764 821 l 0
 535 961 l 0
317 852 m 0
 416 1133 l 0
 561 1094 l 0
 418 817 l 0
 317 852 l 0
268 1286 m 0
 561 1317 l 0
 545 1163 l 0
 252 1174 l 0
 268 1286 l 0
672 1159 m 0
 938 1325 l 0
 989 1235 l 0
 750 1038 l 0
 672 1159 l 0
569 1479 m 0
 682 1513 l 0
 770 1257 l 0
 616 1200 l 0
 569 1479 l 0
EndSplineSet
EndChar

StartChar: plus
Encoding: 14 43 14
Width: 1247
VWidth: 1024
Flags: HW
LayerCount: 2
Fore
SplineSet
1178 606 m 0
 842 606 l 0
 788 270 l 0
 545 270 l 0
 598 606 l 0
 260 606 l 0
 299 852 l 0
 635 852 l 0
 688 1188 l 0
 932 1188 l 0
 879 852 l 0
 1217 852 l 0
 1178 606 l 0
EndSplineSet
EndChar

StartChar: comma
Encoding: 15 44 15
Width: 479
VWidth: 1024
Flags: HW
LayerCount: 2
Fore
SplineSet
127 -177 m 0
 109 -173.666992188 97.3330078125 -171.333007812 92 -170 c 0
 106 -74 l 0
 126.666992188 -74 141.5 -71.1669921875 150.5 -65.5 c 0
 159.5 -59.8330078125 165.333007812 -49 168 -33 c 0
 176 20 l 0
 158 20 l 0
 133.333007812 20 121 32.3330078125 121 57 c 0
 121 69 122.333007812 81.3330078125 125 94 c 0
 150 244 l 0
 154 275.333007812 171 291 201 291 c 0
 373 291 l 0
 396.333007812 291 408 279.333007812 408 256 c 0
 403 215 l 0
 362 -37 l 0
 345.333007812 -133.666992188 286.666992188 -182 186 -182 c 0
 164.666992188 -182 145 -180.333007812 127 -177 c 0
EndSplineSet
EndChar

StartChar: hyphen
Encoding: 16 45 16
Width: 710
VWidth: 1024
Flags: HW
LayerCount: 2
Fore
SplineSet
156 717 m 0
 782 717 l 0
 745 471 l 0
 119 471 l 0
 156 717 l 0
EndSplineSet
EndChar

StartChar: period
Encoding: 17 46 17
Width: 479
VWidth: 1024
Flags: HW
LayerCount: 2
Fore
SplineSet
125 7 m 0
 118.333007812 13 115 21 115 31 c 0
 115 39 l 0
 150 248 l 0
 154 276.666992188 170.333007812 291 199 291 c 0
 375 291 l 0
 399.666992188 291 412 280.666992188 412 260 c 0
 412 248 l 0
 377 39 l 0
 374.333007812 11.6669921875 358 -2 328 -2 c 0
 152 -2 l 0
 140.666992188 -2 131.666992188 1 125 7 c 0
EndSplineSet
EndChar

StartChar: slash
Encoding: 18 47 18
Width: 946
VWidth: 1024
Flags: HW
LayerCount: 2
Fore
SplineSet
856 1577 m 0
 1165 1577 l 0
 317 -147 l 0
 8 -147 l 0
 856 1577 l 0
EndSplineSet
EndChar

StartChar: zero
Encoding: 19 48 19
Width: 1325
VWidth: 1024
Flags: HW
LayerCount: 2
Fore
SplineSet
788 264 m 0
 842.666992188 264 885.5 277.333007812 916.5 304 c 0
 947.5 330.666992188 967.666992188 372 977 428 c 0
 1081 1092 l 0
 1083.66699219 1102.66699219 1085 1117.66699219 1085 1137 c 0
 1085 1216.33300781 1042 1255.66699219 956 1255 c 0
 770 1255 l 0
 719.333007812 1255 678.333007812 1241 647 1213 c 0
 615.666992188 1185 596 1144.66699219 588 1092 c 0
 483 430 l 0
 480.333007812 405.333007812 479 390.333007812 479 385 c 0
 479 304.333007812 527.666992188 264 625 264 c 0
 788 264 l 0
253 67.5 m 0
 193.666992188 117.833007812 164 192.333007812 164 291 c 0
 164 323.666992188 166.666992188 354.333007812 172 383 c 0
 289 1120 l 0
 311 1251.33300781 362.5 1352.16699219 443.5 1422.5 c 0
 524.5 1492.83300781 628 1528 754 1528 c 0
 1071 1528 l 0
 1179 1528 1260.66699219 1501.33300781 1316 1448 c 0
 1371.33300781 1394.66699219 1399 1319 1399 1221 c 0
 1399 1203 1396.33300781 1169.33300781 1391 1120 c 0
 1274 383 l 0
 1253.33300781 257.666992188 1204.16699219 161.166992188 1126.5 93.5 c 0
 1048.83300781 25.8330078125 948.333007812 -8 825 -8 c 0
 508 -8 l 0
 397.333007812 -8 312.333007812 17.1669921875 253 67.5 c 0
EndSplineSet
EndChar

StartChar: one
Encoding: 20 49 20
Width: 761
VWidth: 1024
Flags: HW
LayerCount: 2
Fore
SplineSet
528 1241 m 0
 252 1192 l 0
 283 1386 l 0
 606 1516 l 0
 877 1516 l 0
 635 0 l 0
 332 0 l 0
 528 1241 l 0
EndSplineSet
EndChar

StartChar: two
Encoding: 21 50 21
Width: 1200
VWidth: 1024
Flags: HW
LayerCount: 2
Fore
SplineSet
131 244 m 0
 709 745 l 0
 784.333007812 811.666992188 840.333007812 875.833007812 877 937.5 c 0
 913.666992188 999.166992188 932 1055.33300781 932 1106 c 0
 932 1151.33300781 918.666992188 1185.16699219 892 1207.5 c 0
 865.333007812 1229.83300781 822 1241 762 1241 c 0
 326 1241 l 0
 365 1479 l 0
 469 1495.66699219 552 1508 614 1516 c 0
 676 1524 747 1528 827 1528 c 0
 970.333007812 1528 1074.5 1498.33300781 1139.5 1439 c 0
 1204.5 1379.66699219 1237 1298 1237 1194 c 0
 1237 1090 1213.5 990 1166.5 894 c 0
 1119.5 798 1043.33300781 704 938 612 c 0
 555 274 l 0
 1171 274 l 0
 1128 0 l 0
 94 0 l 0
 131 244 l 0
EndSplineSet
EndChar

StartChar: three
Encoding: 22 51 22
Width: 1185
VWidth: 1024
Flags: HW
LayerCount: 2
Fore
SplineSet
82 31 m 0
 119 258 l 0
 584 258 l 0
 670 258 733.5 269.333007812 774.5 292 c 0
 815.5 314.666992188 840.666992188 354.666992188 850 412 c 0
 859.333007812 464 864 492.666992188 864 498 c 0
 864 542 844.666992188 575.833007812 806 599.5 c 0
 767.333007812 623.166992188 715 636.333007812 649 639 c 0
 315 653 l 0
 350 870 l 0
 715 891 l 0
 845 897.666992188 917.333007812 945.333007812 932 1034 c 0
 937.333007812 1076 940 1104 940 1118 c 0
 940 1209.33300781 870.333007812 1255 731 1255 c 0
 309 1255 l 0
 344 1483 l 0
 546 1513 721.333007812 1528 870 1528 c 0
 1000 1528 1097 1505.5 1161 1460.5 c 0
 1225 1415.5 1257 1339.66699219 1257 1233 c 0
 1257 1207 1249 1142.66699219 1233 1040 c 0
 1221 964.666992188 1194.16699219 904.333007812 1152.5 859 c 0
 1110.83300781 813.666992188 1059.66699219 781.333007812 999 762 c 0
 1047 748.666992188 1086.66699219 720.333007812 1118 677 c 0
 1149.33300781 633.666992188 1165 580 1165 516 c 0
 1165 500.666992188 1159 448.666992188 1147 360 c 0
 1129 240 1076.66699219 148 990 84 c 0
 903.333007812 20 791.666992188 -12 655 -12 c 0
 441 -12 250 2.3330078125 82 31 c 0
EndSplineSet
EndChar

StartChar: four
Encoding: 23 52 23
Width: 1267
VWidth: 1024
Flags: HW
LayerCount: 2
Fore
SplineSet
819 322 m 0
 156 322 l 0
 121 465 l 0
 778 1516 l 0
 1090 1516 l 0
 500 580 l 0
 860 580 l 0
 905 874 l 0
 993 1049 l 0
 1237 1049 l 0
 1163 580 l 0
 1319 580 l 0
 1286 371 l 0
 1122 322 l 0
 1071 2 l 0
 768 2 l 0
 819 322 l 0
EndSplineSet
EndChar

StartChar: five
Encoding: 24 53 24
Width: 1243
VWidth: 1024
Flags: HW
LayerCount: 2
Fore
SplineSet
141 23 m 0
 180 262 l 0
 696 262 l 0
 764 262 815.833007812 278.333007812 851.5 311 c 0
 887.166992188 343.666992188 909.333007812 384.666992188 918 434 c 0
 934 539 l 0
 936.666992188 558.333007812 938 573.333007812 938 584 c 0
 938 660.666992188 893 698.666992188 803 698 c 0
 684 698 l 0
 638.666992188 698 603.833007812 689.166992188 579.5 671.5 c 0
 555.166992188 653.833007812 536.666992188 625.333007812 524 586 c 0
 233 586 l 0
 424 1516 l 0
 1335 1516 l 0
 1290 1243 l 0
 670 1243 l 0
 600 889 l 0
 623.333007812 909.666992188 651 926 683 938 c 0
 715 950 749.333007812 956 786 956 c 0
 950 956 l 0
 1050 956 1125.5 930.5 1176.5 879.5 c 0
 1227.5 828.5 1253 760 1253 674 c 0
 1253 648 1251 621.333007812 1247 594 c 0
 1210 371 l 0
 1189.33300781 239.666992188 1131.33300781 143.333007812 1036 82 c 0
 940.666992188 20.6669921875 809 -10 641 -10 c 0
 515 -10 348.333007812 1 141 23 c 0
EndSplineSet
EndChar

StartChar: six
Encoding: 25 54 25
Width: 1243
VWidth: 1024
Flags: HW
LayerCount: 2
Fore
SplineSet
752 262 m 0
 798.666992188 262 835.166992188 273.333007812 861.5 296 c 0
 887.833007812 318.666992188 905 356 913 408 c 0
 930 508 l 0
 932.666992188 530 934 545.666992188 934 555 c 0
 934 593 921 619.166992188 895 633.5 c 0
 869 647.833007812 826.666992188 655 768 655 c 0
 512 655 l 0
 500 579.666992188 494 516.333007812 494 465 c 0
 494 389.666992188 507.166992188 337 533.5 307 c 0
 559.833007812 277 601.666992188 262 659 262 c 0
 752 262 l 0
354 29 m 0
 300.666992188 55 260 100 232 164 c 0
 204 228 190 316 190 428 c 0
 190 765.333007812 248.5 1033 365.5 1231 c 0
 482.5 1429 667.333007812 1528 920 1528 c 0
 1071.33300781 1528 1197.33300781 1517 1298 1495 c 0
 1260 1255 l 0
 903 1255 l 0
 706.333007812 1255 587.666992188 1129.66699219 547 879 c 0
 633 902.333007812 749 913.666992188 895 913 c 0
 1017.66699219 913 1107.33300781 891.166992188 1164 847.5 c 0
 1220.66699219 803.833007812 1249 739.666992188 1249 655 c 0
 1249 622.333007812 1246.33300781 592.333007812 1241 565 c 0
 1206 348 l 0
 1186.66699219 225.333007812 1139.16699219 135 1063.5 77 c 0
 987.833007812 19 892 -10 776 -10 c 0
 557 -10 l 0
 475 -10 407.333007812 3 354 29 c 0
EndSplineSet
EndChar

StartChar: seven
Encoding: 26 55 26
Width: 1134
VWidth: 1024
Flags: HW
LayerCount: 2
Fore
SplineSet
889 1212 m 0
 246 1212 l 0
 293 1516 l 0
 1249 1516 l 0
 1307 1386 l 0
 586 0 l 0
 233 0 l 0
 889 1212 l 0
EndSplineSet
EndChar

StartChar: eight
Encoding: 27 56 27
Width: 1286
VWidth: 1024
Flags: HW
LayerCount: 2
Fore
SplineSet
762 248 m 0
 815.333007812 248 853.833007812 258.5 877.5 279.5 c 0
 901.166992188 300.5 916.666992188 333 924 377 c 0
 946 512 l 0
 948 543 l 0
 948 611 906.333007812 645 823 645 c 0
 672 645 l 0
 632.666992188 645 596.5 633.333007812 563.5 610 c 0
 530.5 586.666992188 510.666992188 554 504 512 c 0
 481 377 l 0
 479.666992188 369 479 357.333007812 479 342 c 0
 479 279.333007812 522.666992188 248 610 248 c 0
 762 248 l 0
862 903 m 0
 908.666992188 903 942.833007812 915 964.5 939 c 0
 986.166992188 963 1000.66699219 997.333007812 1008 1042 c 0
 1022 1139 l 0
 1024.66699219 1161 1026 1175.33300781 1026 1182 c 0
 1026 1216 1017.5 1239.16699219 1000.5 1251.5 c 0
 983.5 1263.83300781 958.666992188 1270 926 1270 c 0
 772 1270 l 0
 726.666992188 1270 692.833007812 1260.66699219 670.5 1242 c 0
 648.166992188 1223.33300781 633 1189 625 1139 c 0
 610 1042 l 0
 607.333007812 1030 606 1014.33300781 606 995 c 0
 606 963.666992188 614.5 940.5 631.5 925.5 c 0
 648.5 910.5 675.666992188 903 713 903 c 0
 862 903 l 0
160 231 m 0
 160 251.666992188 162.666992188 278.333007812 168 311 c 0
 203 528 l 0
 212.333007812 588 235.833007812 640.666992188 273.5 686 c 0
 311.166992188 731.333007812 356 760 408 772 c 0
 338.666992188 808.666992188 303.666992188 865.333007812 303 942 c 0
 303 957.333007812 304.333007812 975.166992188 307 995.5 c 0
 309.666992188 1015.83300781 311.666992188 1030 313 1038 c 0
 340 1214 l 0
 375.333007812 1422.66699219 510.333007812 1527.33300781 745 1528 c 0
 1055 1528 l 0
 1149 1528 1219.5 1509.83300781 1266.5 1473.5 c 0
 1313.5 1437.16699219 1337 1378 1337 1296 c 0
 1337 1282.66699219 1334.33300781 1254 1329 1210 c 0
 1303 1038 l 0
 1295 988.666992188 1276.16699219 938.5 1246.5 887.5 c 0
 1216.83300781 836.5 1177.33300781 806.333007812 1128 797 c 0
 1174.66699219 786.333007812 1208.33300781 763.833007812 1229 729.5 c 0
 1249.66699219 695.166992188 1260 654 1260 606 c 0
 1260 599.333007812 1257.66699219 575.666992188 1253 535 c 0
 1219 322 l 0
 1198.33300781 198 1152.83300781 112 1082.5 64 c 0
 1012.16699219 16 921 -8 809 -8 c 0
 502 -8 l 0
 274 -8.6669921875 160 71 160 231 c 0
EndSplineSet
EndChar

StartChar: nine
Encoding: 28 57 28
Width: 1243
VWidth: 1024
Flags: HW
LayerCount: 2
Fore
SplineSet
729 1255 m 0
 682.333007812 1255 645.833007812 1243.83300781 619.5 1221.5 c 0
 593.166992188 1199.16699219 575.666992188 1162 567 1110 c 0
 551 1010 l 0
 548.333007812 988 547 972.333007812 547 963 c 0
 547 925 560 898.666992188 586 884 c 0
 612 869.333007812 654.333007812 862 713 862 c 0
 969 862 l 0
 981 938.666992188 987 1002.33300781 987 1053 c 0
 987 1128.33300781 973.666992188 1180.83300781 947 1210.5 c 0
 920.333007812 1240.16699219 878.333007812 1255 821 1255 c 0
 729 1255 l 0
1126.5 1489 m 0
 1179.5 1463 1220 1417.83300781 1248 1353.5 c 0
 1276 1289.16699219 1290 1201.33300781 1290 1090 c 0
 1290 752.666992188 1231.66699219 485 1115 287 c 0
 998.333007812 89 813.666992188 -10 561 -10 c 0
 409.666992188 -10 283.333007812 1 182 23 c 0
 221 262 l 0
 578 262 l 0
 774.666992188 262 893.333007812 387.666992188 934 639 c 0
 848 615.666992188 732 604 586 604 c 0
 463.333007812 604 373.5 625.833007812 316.5 669.5 c 0
 259.5 713.166992188 231 777.333007812 231 862 c 0
 231 894.666992188 234 924.666992188 240 952 c 0
 274 1169 l 0
 293.333007812 1291.66699219 340.833007812 1382.16699219 416.5 1440.5 c 0
 492.166992188 1498.83300781 588.333007812 1528 705 1528 c 0
 924 1528 l 0
 1006 1528 1073.5 1515 1126.5 1489 c 0
EndSplineSet
EndChar

StartChar: colon
Encoding: 29 58 29
Width: 479
VWidth: 1024
Flags: HW
LayerCount: 2
Fore
SplineSet
543 868 m 0
 543 844 538.333333333 821.666666667 529 801 c 0
 520.333333333 779.666666667 508.333333333 761 493 745 c 0
 477 729 458.333333333 716.666666667 437 708 c 0
 415.666666667 698.666666667 393 694 369 694 c 0
 345 694 322.333333333 698.666666667 301 708 c 0
 279.666666667 717.333333333 260.666666667 729.666666667 244 745 c 0
 228 761 215.333333333 779.666666667 206 801 c 0
 196.666666667 822.333333333 192.333333333 844.666666667 193 868 c 0
 193 892 197.333333333 914.666666667 206 936 c 0
 215.333333333 957.333333333 228 976.333333333 244 993 c 0
 260 1009 279 1021.66666667 301 1031 c 0
 322.333333333 1040.33333333 345 1044.66666667 369 1044 c 0
 393.666666667 1044 416.333333333 1039.66666667 437 1031 c 0
 458.333333333 1021.66666667 477 1009 493 993 c 0
 509 977 521 958 529 936 c 0
 538.333333333 914.666666667 543 892 543 868 c 0
400 148 m 0
 400 124 395.666666667 101.666666667 387 81 c 0
 377.666666667 59.6666666667 365 41.3333333333 349 26 c 0
 333 10 314.666666667 -2.66666666667 294 -12 c 0
 272.666666667 -21.3333333333 250 -26 226 -26 c 0
 202 -26 179.333333333 -21.3333333333 158 -12 c 0
 136.666666667 -2.66666666667 118 10 102 26 c 0
 86 42 73.3333333333 60.3333333333 64 81 c 0
 54.6666666667 102.333333333 50 124.666666667 50 148 c 0
 50 172.666666667 54.6666666667 195.666666667 64 217 c 0
 73.3333333333 238.333333333 86 257 102 273 c 0
 118 289 136.666666667 301.666666667 158 311 c 0
 179.333333333 320.333333333 202 325 226 325 c 0
 250 325 272.666666667 320.333333333 294 311 c 0
 315.333333333 301.666666667 333.666666667 289 349 273 c 0
 365 257 377.666666667 238.333333333 387 217 c 0
 395.666666667 195.666666667 400 172.666666667 400 148 c 0
EndSplineSet
Refer: 17 46 N 1 0 0 1 129 811 2
Refer: 17 46 N 1 0 0 1 0 0 2
EndChar

StartChar: semicolon
Encoding: 30 59 30
Width: 479
VWidth: 1024
Flags: HW
LayerCount: 2
Fore
SplineSet
543 868 m 0
 543 844 538.333333333 821.666666667 529 801 c 0
 520.333333333 779.666666667 508.333333333 761 493 745 c 0
 477 729 458.333333333 716.666666667 437 708 c 0
 415.666666667 698.666666667 393 694 369 694 c 0
 345 694 322.333333333 698.666666667 301 708 c 0
 279.666666667 717.333333333 260.666666667 729.666666667 244 745 c 0
 228 761 215.333333333 779.666666667 206 801 c 0
 196.666666667 822.333333333 192.333333333 844.666666667 193 868 c 0
 193 892 197.333333333 914.666666667 206 936 c 0
 215.333333333 957.333333333 228 976.333333333 244 993 c 0
 260 1009 279 1021.66666667 301 1031 c 0
 322.333333333 1040.33333333 345 1044.66666667 369 1044 c 0
 393.666666667 1044 416.333333333 1039.66666667 437 1031 c 0
 458.333333333 1021.66666667 477 1009 493 993 c 0
 509 977 521 958 529 936 c 0
 538.333333333 914.666666667 543 892 543 868 c 0
420 176 m 0
 420 135.333333333 412.333333333 94 397 52 c 0
 381.666666667 10.6666666667 360.666666667 -30 334 -70 c 0
 307.333333333 -109.333333333 276.333333333 -146.666666667 241 -182 c 0
 205.666666667 -217.333333333 168.333333333 -248 129 -274 c 0
 89.6666666667 -300.666666667 49 -322.333333333 7 -339 c 0
 -35 -355.666666667 -76 -365.666666667 -116 -369 c 0
 -96 -266 l 0
 -57.3333333333 -260.666666667 -20.6666666667 -250.666666667 14 -236 c 0
 48.6666666667 -220.666666667 79.3333333333 -201.333333333 106 -178 c 0
 133.333333333 -154.666666667 156.333333333 -126.666666667 175 -94 c 0
 193.666666667 -62 206 -26 212 14 c 0
 84 14 l 0
 70.6666666667 26.6666666667 60.3333333333 41.6666666667 53 59 c 0
 45.6666666667 76.3333333333 42 94.6666666667 42 114 c 0
 42 142 48 168.666666667 60 194 c 0
 72 219.333333333 88 242 108 262 c 0
 128 281.333333333 150.666666667 296.666666667 176 308 c 0
 202 319.333333333 229.333333333 325 258 325 c 0
 305.333333333 325 344 312.666666667 374 288 c 0
 404.666666667 264 420 226.666666667 420 176 c 0
EndSplineSet
Refer: 15 44 N 1 0 0 1 0 0 2
Refer: 17 46 N 1 0 0 1 129 811 2
EndChar

StartChar: less
Encoding: 31 60 31
Width: 1247
VWidth: 1024
Flags: HW
LayerCount: 2
Fore
SplineSet
272 584 m 0
 315 852 l 0
 1208 1120 l 0
 1167 856 l 0
 590 719 l 0
 1120 571 l 0
 1079 305 l 0
 272 584 l 0
EndSplineSet
EndChar

StartChar: equal
Encoding: 32 61 32
Width: 1247
VWidth: 1024
Flags: HW
LayerCount: 2
Fore
SplineSet
420 755 m 0
 420 885 l 0
 1677 885 l 0
 1677 755 l 0
 420 755 l 0
420 374 m 0
 420 504 l 0
 1677 504 l 0
 1677 374 l 0
 420 374 l 0
EndSplineSet
Refer: 387 8722 N 1 0 0 1 39 246 2
Refer: 387 8722 N 1 0 0 1 -39 -246 2
EndChar

StartChar: greater
Encoding: 33 62 33
Width: 1247
VWidth: 1024
Flags: HW
LayerCount: 2
Fore
SplineSet
291 571 m 0
 870 721 l 0
 338 856 l 0
 379 1120 l 0
 1186 852 l 0
 1145 584 l 0
 250 305 l 0
 291 571 l 0
EndSplineSet
EndChar

StartChar: question
Encoding: 34 63 34
Width: 1083
VWidth: 1024
Flags: HW
LayerCount: 2
Fore
SplineSet
307 7 m 0
 300.333007812 13 297 21 297 31 c 0
 297 39 l 0
 332 248 l 0
 336 276.666992188 352.333007812 291 381 291 c 0
 557 291 l 0
 581.666992188 291 594 280.666992188 594 260 c 0
 594 248 l 0
 559 39 l 0
 556.333007812 11.6669921875 540 -2 510 -2 c 0
 334 -2 l 0
 322.666992188 -2 313.666992188 1 307 7 c 0
434 821 m 0
 575 821 l 0
 649 821 705.5 833 744.5 857 c 0
 783.5 881 807.666992188 923.666992188 817 985 c 0
 827 1051 l 0
 829.666992188 1075.66699219 831 1092 831 1100 c 0
 831 1149.33300781 814 1185.16699219 780 1207.5 c 0
 746 1229.83300781 695 1241 627 1241 c 0
 571 1241 515 1235.16699219 459 1223.5 c 0
 403 1211.83300781 341.333007812 1195.33300781 274 1174 c 0
 309 1397 l 0
 451 1475 602.666992188 1513.66699219 764 1513 c 0
 889.333007812 1513 984.5 1484 1049.5 1426 c 0
 1114.5 1368 1147 1288.66699219 1147 1188 c 0
 1147 1156.66699219 1144.33300781 1127.33300781 1139 1100 c 0
 1118 979 l 0
 1078.66699219 721 914.333007812 592 625 592 c 0
 598 416 l 0
 371 416 l 0
 434 821 l 0
EndSplineSet
EndChar

StartChar: at
Encoding: 35 64 35
Width: 1906
VWidth: 1024
Flags: HW
LayerCount: 2
Fore
SplineSet
1065 243.5 m 0
 1111.66699219 259.833007812 1152 283 1186 313 c 0
 1266 844 l 0
 1204.66699219 866 1147.33300781 877 1094 877 c 0
 1031.33300781 877 975.666992188 857.833007812 927 819.5 c 0
 878.333007812 781.166992188 840.333007812 727.166992188 813 657.5 c 0
 785.666992188 587.833007812 772 506.666992188 772 414 c 0
 772 350 785 301.5 811 268.5 c 0
 837 235.5 875.333007812 219 926 219 c 0
 972 219 1018.33300781 227.166992188 1065 243.5 c 0
199.5 -292.5 m 0
 133.166992188 -222.833007812 100 -132 100 -20 c 0
 100 22 103 60 109 94 c 0
 264 1067 l 0
 290 1224.33300781 348 1334.33300781 438 1397 c 0
 528 1459.66699219 655 1491 819 1491 c 0
 1567 1491 l 0
 1693.66699219 1491 1789.83300781 1457.16699219 1855.5 1389.5 c 0
 1921.16699219 1321.83300781 1954 1231.33300781 1954 1118 c 0
 1954 1078.66699219 1950.66699219 1031.66699219 1944 977 c 0
 1855 389 l 0
 1837 269 1789.5 174.166992188 1712.5 104.5 c 0
 1635.5 34.8330078125 1530.33300781 0 1397 0 c 0
 1210 0 l 0
 1161 115 l 0
 1136.33300781 83.6669921875 1093.66699219 54.6669921875 1033 28 c 0
 972.333007812 1.3330078125 910 -12 846 -12 c 0
 756 -12 682.666992188 19.6669921875 626 83 c 0
 569.333007812 146.333007812 541 245.666992188 541 381 c 0
 541 529.666992188 566.833007812 658.666992188 618.5 768 c 0
 670.166992188 877.333007812 739.666992188 960.333007812 827 1017 c 0
 914.333007812 1073.66699219 1009.33300781 1102 1112 1102 c 0
 1270.66699219 1102 1406 1056.33300781 1518 965 c 0
 1401 203 l 0
 1461 203 1510.16699219 217 1548.5 245 c 0
 1586.83300781 273 1612 330.666992188 1624 418 c 0
 1712 1008 l 0
 1717.33300781 1052 1720 1081.33300781 1720 1096 c 0
 1720 1157.33300781 1700.33300781 1202.66699219 1661 1232 c 0
 1621.66699219 1261.33300781 1568.33300781 1276 1501 1276 c 0
 772 1276 l 0
 678 1276 610.833007812 1251.66699219 570.5 1203 c 0
 530.166992188 1154.33300781 503 1089.33300781 489 1008 c 0
 340 63 l 0
 336 41 334 20 334 0 c 0
 334 -56 350.666992188 -100.333007812 384 -133 c 0
 417.333007812 -165.666992188 469.666992188 -182 541 -182 c 0
 1329 -182 l 0
 1303 -350 l 0
 1239 -362 1152.66699219 -372.833007812 1044 -382.5 c 0
 935.333007812 -392.166992188 823 -397 707 -397 c 0
 520 -397 l 0
 372.666992188 -397 265.833007812 -362.166992188 199.5 -292.5 c 0
EndSplineSet
EndChar

StartChar: A
Encoding: 36 65 36
Width: 1425
VWidth: 1024
Flags: HW
LayerCount: 2
Fore
SplineSet
993 590 m 0
 915 1253 l 0
 621 590 l 0
 993 590 l 0
768 1516 m 0
 1149 1516 l 0
 1382 0 l 0
 1067 0 l 0
 1024 317 l 0
 506 317 l 0
 358 0 l 0
 47 0 l 0
 768 1516 l 0
EndSplineSet
EndChar

StartChar: B
Encoding: 37 66 37
Width: 1300
VWidth: 1024
Flags: HW
LayerCount: 2
Fore
SplineSet
762 272 m 0
 834.666992188 272 888 286.666992188 922 316 c 0
 956 345.333007812 978.333007812 393.666992188 989 461 c 0
 991.666992188 474.333007812 993 493.333007812 993 518 c 0
 993 612 935 659 819 659 c 0
 537 659 l 0
 475 272 l 0
 762 272 l 0
854 893 m 0
 954 893 1014 943.333007812 1034 1044 c 0
 1040.66699219 1078 1044 1104 1044 1122 c 0
 1044 1164 1031.5 1194.66699219 1006.5 1214 c 0
 981.5 1233.33300781 943 1243 891 1243 c 0
 629 1243 l 0
 571 893 l 0
 854 893 l 0
367 1516 m 0
 954 1516 l 0
 1097.33300781 1516 1198 1489 1256 1435 c 0
 1314 1381 1343 1304 1343 1204 c 0
 1343 1167.33300781 1340.33300781 1132 1335 1098 c 0
 1323 1020 1292.33300781 953.333007812 1243 898 c 0
 1193.66699219 842.666992188 1131.66699219 806 1057 788 c 0
 1129.66699219 768.666992188 1185 735.166992188 1223 687.5 c 0
 1261 639.833007812 1280 573 1280 487 c 0
 1280 454.333007812 1276 412 1268 360 c 0
 1246 233.333007812 1190.33300781 141.666992188 1101 85 c 0
 1011.66699219 28.3330078125 885.666992188 0 723 0 c 0
 129 0 l 0
 367 1516 l 0
EndSplineSet
EndChar

StartChar: C
Encoding: 38 67 38
Width: 1210
VWidth: 1024
Flags: HW
LayerCount: 2
Fore
SplineSet
314.5 121 m 0
 233.5 209.666992188 193 336.666992188 193 502 c 0
 193 593.333007812 201.666992188 694.333007812 219 805 c 0
 257 1051 325.5 1233 424.5 1351 c 0
 523.5 1469 668 1528 858 1528 c 0
 1038 1528 1201.33300781 1499.33300781 1348 1442 c 0
 1309 1202 l 0
 1173.66699219 1237.33300781 1041 1255 911 1255 c 0
 834.333007812 1255 772.166992188 1241.83300781 724.5 1215.5 c 0
 676.833007812 1189.16699219 636.333007812 1139.33300781 603 1066 c 0
 569.666992188 992.666992188 541.333007812 887.333007812 518 750 c 0
 501.333007812 642 493.333007812 558.666992188 494 500 c 0
 494 414 514.333007812 352.5 555 315.5 c 0
 595.666992188 278.5 666.666992188 260 768 260 c 0
 852.666992188 260 922.666992188 262 978 266 c 0
 1033.33300781 270 1095 276.333007812 1163 285 c 0
 1124 47 l 0
 1009.33300781 7.6669921875 864 -12 688 -12 c 0
 520 -12 395.5 32.3330078125 314.5 121 c 0
EndSplineSet
EndChar

StartChar: D
Encoding: 39 68 39
Width: 1406
VWidth: 1024
Flags: HW
LayerCount: 2
Fore
SplineSet
727 272 m 0
 841.666992188 272 930 312.666992188 992 394 c 0
 1054 475.333007812 1098 598 1124 762 c 0
 1139.33300781 858.666992188 1147 929.666992188 1147 975 c 0
 1147 1071.66699219 1125.83300781 1140.5 1083.5 1181.5 c 0
 1041.16699219 1222.5 968.666992188 1243 866 1243 c 0
 627 1243 l 0
 473 272 l 0
 727 272 l 0
367 1516 m 0
 942 1516 l 0
 1130.66699219 1516 1262.83300781 1470.83300781 1338.5 1380.5 c 0
 1414.16699219 1290.16699219 1452 1159 1452 987 c 0
 1452 897 1443.66699219 805 1427 711 c 0
 1389 465 1311 285 1193 171 c 0
 1075 57 909.333007812 0 696 0 c 0
 127 0 l 0
 367 1516 l 0
EndSplineSet
EndChar

StartChar: E
Encoding: 40 69 40
Width: 1216
VWidth: 1024
Flags: HW
LayerCount: 2
Fore
SplineSet
268.5 45 m 0
 204.166992188 83 172 152.666992188 172 254 c 0
 172 278.666992188 174 304 178 330 c 0
 311 1167 l 0
 346.333007812 1399 481.666992188 1515.33300781 717 1516 c 0
 898.333007812 1516 1104.33300781 1507 1335 1489 c 0
 1294 1235 l 0
 760 1235 l 0
 712 1235 675.666992188 1223.33300781 651 1200 c 0
 626.333007812 1176.66699219 610 1140.66699219 602 1092 c 0
 571 895 l 0
 1139 877 l 0
 1100 637 l 0
 528 621 l 0
 496 410 l 0
 493.333007812 390.666992188 492 377.666992188 492 371 c 0
 492 335.666992188 502.166992188 310.333007812 522.5 295 c 0
 542.833007812 279.666992188 574 272 616 272 c 0
 1143 272 l 0
 1104 18 l 0
 847.333007812 -1.3330078125 644.666992188 -11.3330078125 496 -12 c 0
 408.666992188 -12 332.833007812 7 268.5 45 c 0
EndSplineSet
EndChar

StartChar: F
Encoding: 41 70 41
Width: 1155
VWidth: 1024
Flags: HW
LayerCount: 2
Fore
SplineSet
311 1171 m 0
 347.666992188 1400.33300781 481.666992188 1515.33300781 713 1516 c 0
 912.333007812 1516 1118.33300781 1507 1331 1489 c 0
 1292 1235 l 0
 758 1235 l 0
 710 1235 673.666992188 1223.33300781 649 1200 c 0
 624.333007812 1176.66699219 608.666992188 1140.66699219 602 1092 c 0
 565 848 l 0
 1133 831 l 0
 1094 592 l 0
 522 578 l 0
 430 0 l 0
 127 0 l 0
 311 1171 l 0
EndSplineSet
EndChar

StartChar: G
Encoding: 42 71 42
Width: 1347
VWidth: 1024
Flags: HW
LayerCount: 2
Fore
SplineSet
277.5 101.5 m 0
 216.5 177.166992188 186 298.333007812 186 465 c 0
 186 555 197.666992188 673.666992188 221 821 c 0
 257.666992188 1057 330 1234.16699219 438 1352.5 c 0
 546 1470.83300781 694.333007812 1530 883 1530 c 0
 997.666992188 1530 1094.5 1523.83300781 1173.5 1511.5 c 0
 1252.5 1499.16699219 1329 1481.33300781 1403 1458 c 0
 1366 1223 l 0
 1242 1246.33300781 1092.66699219 1257.66699219 918 1257 c 0
 830.666992188 1257 761.666992188 1240.66699219 711 1208 c 0
 660.333007812 1175.33300781 620.666992188 1123.5 592 1052.5 c 0
 563.333007812 981.5 538.666992188 882 518 754 c 0
 501.333007812 643.333007812 493.333007812 555 494 489 c 0
 494 415 509.333007812 359.666992188 540 323 c 0
 570.666992188 286.333007812 619.333007812 268 686 268 c 0
 732.666992188 268 787 272.833007812 849 282.5 c 0
 911 292.166992188 959 301.666992188 993 311 c 0
 1040 608 l 0
 768 608 l 0
 807 848 l 0
 816.333007812 849.333007812 853.166992188 852.666992188 917.5 858 c 0
 981.833007812 863.333007812 1059 866 1149 866 c 0
 1235 866 1309.33300781 864.666992188 1372 862 c 0
 1237 0 l 0
 1008 0 l 0
 983 102 l 0
 939 76 875.166992188 50.5 791.5 25.5 c 0
 707.833007812 0.5 637.333007812 -12 580 -12 c 0
 439.333007812 -12 338.5 25.8330078125 277.5 101.5 c 0
EndSplineSet
EndChar

StartChar: H
Encoding: 43 72 43
Width: 1415
VWidth: 1024
Flags: HW
LayerCount: 2
Fore
SplineSet
367 1516 m 0
 670 1516 l 0
 569 885 l 0
 1141 885 l 0
 1241 1516 l 0
 1544 1516 l 0
 1305 0 l 0
 1001 0 l 0
 1098 612 l 0
 526 612 l 0
 430 0 l 0
 127 0 l 0
 367 1516 l 0
EndSplineSet
EndChar

StartChar: I
Encoding: 44 73 44
Width: 557
VWidth: 1024
Flags: HW
LayerCount: 2
Fore
SplineSet
367 1516 m 0
 670 1516 l 0
 430 0 l 0
 127 0 l 0
 367 1516 l 0
EndSplineSet
EndChar

StartChar: J
Encoding: 45 74 45
Width: 800
VWidth: 1024
Flags: HW
LayerCount: 2
Fore
SplineSet
177.5 1 m 0
 133.166992188 9.6669921875 96.6669921875 20.3330078125 68 33 c 0
 106 274 l 0
 146.666992188 267.333007812 196.666992188 264 256 264 c 0
 316 264 362 278.333007812 394 307 c 0
 426 335.666992188 447 379.333007812 457 438 c 0
 627 1516 l 0
 930 1516 l 0
 750 375 l 0
 728 235.666992188 682.5 136.333007812 613.5 77 c 0
 544.5 17.6669921875 442.333007812 -12 307 -12 c 0
 265 -12 221.833007812 -7.6669921875 177.5 1 c 0
EndSplineSet
EndChar

StartChar: K
Encoding: 46 75 46
Width: 1312
VWidth: 1024
Flags: HW
LayerCount: 2
Fore
SplineSet
367 1516 m 0
 670 1516 l 0
 573 897 l 0
 772 897 l 0
 1188 1516 l 0
 1499 1516 l 0
 995 754 l 0
 1294 0 l 0
 991 0 l 0
 745 625 l 0
 528 625 l 0
 430 0 l 0
 127 0 l 0
 367 1516 l 0
EndSplineSet
EndChar

StartChar: L
Encoding: 47 76 47
Width: 1089
VWidth: 1024
Flags: HW
LayerCount: 2
Fore
SplineSet
257 67.5 m 0
 204.333007812 112.5 178 181.333007812 178 274 c 0
 178 304 180 335.666992188 184 369 c 0
 367 1516 l 0
 670 1516 l 0
 496 408 l 0
 493.333007812 398.666992188 492 385.666992188 492 369 c 0
 492 335 501.833007812 310.333007812 521.5 295 c 0
 541.166992188 279.666992188 570.666992188 272 610 272 c 0
 1090 272 l 0
 1044 0 l 0
 479 0 l 0
 383.666992188 0 309.666992188 22.5 257 67.5 c 0
EndSplineSet
EndChar

StartChar: M
Encoding: 48 77 48
Width: 1779
VWidth: 1024
Flags: HW
LayerCount: 2
Fore
SplineSet
508 1516 m 0
 793 1516 l 0
 963 358 l 0
 1499 1516 l 0
 1782 1516 l 0
 1720 0 l 0
 1427 0 l 0
 1468 975 l 0
 1047 0 l 0
 762 0 l 0
 647 963 l 0
 385 0 l 0
 84 0 l 0
 508 1516 l 0
EndSplineSet
EndChar

StartChar: N
Encoding: 49 78 49
Width: 1419
VWidth: 1024
Flags: HW
LayerCount: 2
Fore
SplineSet
367 1516 m 0
 610 1516 l 0
 1085 516 l 0
 1245 1516 l 0
 1548 1516 l 0
 1307 0 l 0
 1065 0 l 0
 590 1001 l 0
 430 0 l 0
 127 0 l 0
 367 1516 l 0
EndSplineSet
EndChar

StartChar: O
Encoding: 50 79 50
Width: 1427
VWidth: 1024
Flags: HW
LayerCount: 2
Fore
SplineSet
953.5 307 m 0
 1003.16699219 337 1042.66699219 386.166992188 1072 454.5 c 0
 1101.33300781 522.833007812 1125.66699219 617.666992188 1145 739 c 0
 1164.33300781 853.666992188 1174 948 1174 1022 c 0
 1174 1084.66699219 1164.33300781 1132.83300781 1145 1166.5 c 0
 1125.66699219 1200.16699219 1097.66699219 1223.33300781 1061 1236 c 0
 1024.33300781 1248.66699219 974.333007812 1255 911 1255 c 0
 830.333007812 1255 765.833007812 1241 717.5 1213 c 0
 669.166992188 1185 629.666992188 1135.5 599 1064.5 c 0
 568.333007812 993.5 542 891.333007812 520 758 c 0
 499.333007812 638 489 546.333007812 489 483 c 0
 489 397 509.166992188 338.666992188 549.5 308 c 0
 589.833007812 277.333007812 659.333007812 262 758 262 c 0
 838.666992188 262 903.833007812 277 953.5 307 c 0
426 27 m 0
 350.666992188 53 291.833007812 101 249.5 171 c 0
 207.166992188 241 186 339.666992188 186 467 c 0
 186 555.666992188 196.333007812 666.333007812 217 799 c 0
 247 989 291.333007812 1136.5 350 1241.5 c 0
 408.666992188 1346.5 486.166992188 1420.5 582.5 1463.5 c 0
 678.833007812 1506.5 803.333007812 1528 956 1528 c 0
 1066.66699219 1528 1159.66699219 1514.33300781 1235 1487 c 0
 1310.33300781 1459.66699219 1369.83300781 1409.16699219 1413.5 1335.5 c 0
 1457.16699219 1261.83300781 1479 1158.66699219 1479 1026 c 0
 1479 934.666992188 1468 825.333007812 1446 698 c 0
 1416 505.333007812 1371.66699219 357.833007812 1313 255.5 c 0
 1254.33300781 153.166992188 1177.83300781 83 1083.5 45 c 0
 989.166992188 7 864.333007812 -12 709 -12 c 0
 595.666992188 -12 501.333007812 1 426 27 c 0
EndSplineSet
EndChar

StartChar: P
Encoding: 51 80 51
Width: 1249
VWidth: 1024
Flags: HW
LayerCount: 2
Fore
SplineSet
829 745 m 0
 886.333007812 745 934.166992188 765.5 972.5 806.5 c 0
 1010.83300781 847.5 1036.33300781 906.333007812 1049 983 c 0
 1055.66699219 1023.66699219 1059 1056.33300781 1059 1081 c 0
 1059 1138.33300781 1047 1179.66699219 1023 1205 c 0
 999 1230.33300781 962.333007812 1243 913 1243 c 0
 627 1243 l 0
 549 745 l 0
 829 745 l 0
367 1516 m 0
 971 1516 l 0
 1093.66699219 1516 1190.5 1485.16699219 1261.5 1423.5 c 0
 1332.5 1361.83300781 1368 1257.33300781 1368 1110 c 0
 1368 1077.33300781 1362 1024 1350 950 c 0
 1324 780.666992188 1267 658.833007812 1179 584.5 c 0
 1091 510.166992188 988 473 870 473 c 0
 807.333007812 473 743 476.5 677 483.5 c 0
 611 490.5 556 498.666992188 512 508 c 0
 430 0 l 0
 127 0 l 0
 367 1516 l 0
EndSplineSet
EndChar

StartChar: Q
Encoding: 52 81 52
Width: 1427
VWidth: 1024
Flags: HW
LayerCount: 2
Fore
SplineSet
746.5 -322.5 m 0
 678.833007812 -270.166992188 644.333007812 -189.333007812 643 -80 c 0
 852 -80 l 0
 857.333007812 -119.333007812 872.666992188 -147.166992188 898 -163.5 c 0
 923.333007812 -179.833007812 962 -188 1014 -188 c 0
 1063.33300781 -188 1118 -180.666992188 1178 -166 c 0
 1143 -389 l 0
 1106.33300781 -397 1063.33300781 -401 1014 -401 c 0
 903.333007812 -401 814.166992188 -374.833007812 746.5 -322.5 c 0
953.5 307 m 0
 1003.16699219 337 1042.66699219 386.166992188 1072 454.5 c 0
 1101.33300781 522.833007812 1125.66699219 617.666992188 1145 739 c 0
 1164.33300781 853.666992188 1174 948 1174 1022 c 0
 1174 1084.66699219 1164.33300781 1132.83300781 1145 1166.5 c 0
 1125.66699219 1200.16699219 1097.66699219 1223.33300781 1061 1236 c 0
 1024.33300781 1248.66699219 974.333007812 1255 911 1255 c 0
 830.333007812 1255 765.833007812 1241 717.5 1213 c 0
 669.166992188 1185 629.666992188 1135.5 599 1064.5 c 0
 568.333007812 993.5 542 891.333007812 520 758 c 0
 499.333007812 638 489 546.333007812 489 483 c 0
 489 397 509.166992188 338.666992188 549.5 308 c 0
 589.833007812 277.333007812 659.333007812 262 758 262 c 0
 838.666992188 262 903.833007812 277 953.5 307 c 0
426 27 m 0
 350.666992188 53 291.833007812 101 249.5 171 c 0
 207.166992188 241 186 339.666992188 186 467 c 0
 186 555.666992188 196.333007812 666.333007812 217 799 c 0
 247 989 291.333007812 1136.5 350 1241.5 c 0
 408.666992188 1346.5 486.166992188 1420.5 582.5 1463.5 c 0
 678.833007812 1506.5 803.333007812 1528 956 1528 c 0
 1066.66699219 1528 1159.66699219 1514.33300781 1235 1487 c 0
 1310.33300781 1459.66699219 1369.83300781 1409.16699219 1413.5 1335.5 c 0
 1457.16699219 1261.83300781 1479 1158.66699219 1479 1026 c 0
 1479 934.666992188 1468 825.333007812 1446 698 c 0
 1416 505.333007812 1371.66699219 357.833007812 1313 255.5 c 0
 1254.33300781 153.166992188 1177.83300781 83 1083.5 45 c 0
 989.166992188 7 864.333007812 -12 709 -12 c 0
 595.666992188 -12 501.333007812 1 426 27 c 0
EndSplineSet
EndChar

StartChar: R
Encoding: 53 82 53
Width: 1296
VWidth: 1024
Flags: HW
LayerCount: 2
Fore
SplineSet
813 805 m 0
 881 805 932.166992188 821.333007812 966.5 854 c 0
 1000.83300781 886.666992188 1024.66699219 944.666992188 1038 1028 c 0
 1042 1052.66699219 1044 1075.33300781 1044 1096 c 0
 1044 1194 991 1243 885 1243 c 0
 627 1243 l 0
 557 805 l 0
 813 805 l 0
367 1516 m 0
 946 1516 l 0
 1219.33300781 1516 1356 1390.33300781 1356 1139 c 0
 1356 1101 1351.66699219 1057.33300781 1343 1008 c 0
 1323.66699219 881.333007812 1286.83300781 790.166992188 1232.5 734.5 c 0
 1178.16699219 678.833007812 1115.33300781 637.333007812 1044 610 c 0
 1229 0 l 0
 920 0 l 0
 766 563 l 0
 650 563 568 563.666992188 520 565 c 0
 430 0 l 0
 127 0 l 0
 367 1516 l 0
EndSplineSet
EndChar

StartChar: S
Encoding: 54 83 54
Width: 1173
VWidth: 1024
Flags: HW
LayerCount: 2
Fore
SplineSet
348 2 m 0
 260.666992188 11.3330078125 187 23 127 37 c 0
 164 276 l 0
 295.333007812 265.333007812 447.666992188 260 621 260 c 0
 711 260 776.833007812 270.666992188 818.5 292 c 0
 860.166992188 313.333007812 885.666992188 352.666992188 895 410 c 0
 903 463 l 0
 905.666992188 482.333007812 907 496 907 504 c 0
 907 542 893.333007812 569.166992188 866 585.5 c 0
 838.666992188 601.833007812 795 610 735 610 c 0
 614 610 l 0
 500.666992188 610 412 639 348 697 c 0
 284 755 252 832.666992188 252 930 c 0
 252 957.333007812 254 986 258 1016 c 0
 279 1139 l 0
 301 1278.33300781 357 1378 447 1438 c 0
 537 1498 661 1528 819 1528 c 0
 889.666992188 1528 966.833007812 1523.5 1050.5 1514.5 c 0
 1134.16699219 1505.5 1211.33300781 1493 1282 1477 c 0
 1243 1237 l 0
 1116.33300781 1247.66699219 962.666992188 1253 782 1253 c 0
 715.333007812 1253 664.166992188 1242.16699219 628.5 1220.5 c 0
 592.833007812 1198.83300781 570.333007812 1160 561 1104 c 0
 553 1051 l 0
 550.333007812 1029 549 1014 549 1006 c 0
 549 968 559.833007812 940.333007812 581.5 923 c 0
 603.166992188 905.666992188 638 897 686 897 c 0
 815 897 l 0
 939 897 1034.5 868 1101.5 810 c 0
 1168.5 752 1202 674.666992188 1202 578 c 0
 1202 554.666992188 1200 527.333007812 1196 496 c 0
 1176 354 l 0
 1155.33300781 225.333007812 1102.66699219 132.166992188 1018 74.5 c 0
 933.333007812 16.8330078125 803 -12 627 -12 c 0
 528.333007812 -12 435.333007812 -7.3330078125 348 2 c 0
EndSplineSet
EndChar

StartChar: T
Encoding: 55 84 55
Width: 1247
VWidth: 1024
Flags: HW
LayerCount: 2
Fore
SplineSet
657 1243 m 0
 244 1243 l 0
 287 1516 l 0
 1421 1516 l 0
 1378 1243 l 0
 963 1243 l 0
 766 0 l 0
 463 0 l 0
 657 1243 l 0
EndSplineSet
EndChar

StartChar: U
Encoding: 56 85 56
Width: 1409
VWidth: 1024
Flags: HW
LayerCount: 2
Fore
SplineSet
334 96.5 m 0
 252 168.833007812 211 284.666992188 211 444 c 0
 211 514.666992188 220 600 238 700 c 0
 367 1516 l 0
 670 1516 l 0
 535 655 l 0
 521.666992188 562.333007812 514.666992188 500.333007812 514 469 c 0
 514 396.333007812 532.5 343.333007812 569.5 310 c 0
 606.5 276.666992188 666 260 748 260 c 0
 814.666992188 260 868.833007812 270.666992188 910.5 292 c 0
 952.166992188 313.333007812 987.333007812 352.333007812 1016 409 c 0
 1044.66699219 465.666992188 1067 547.666992188 1083 655 c 0
 1221 1516 l 0
 1524 1516 l 0
 1380 610 l 0
 1352.66699219 438 1310.33300781 307 1253 217 c 0
 1195.66699219 127 1124 66.3330078125 1038 35 c 0
 952 3.6669921875 841.666992188 -12 707 -12 c 0
 540.333007812 -12 416 24.1669921875 334 96.5 c 0
EndSplineSet
EndChar

StartChar: V
Encoding: 57 86 57
Width: 1427
VWidth: 1024
Flags: HW
LayerCount: 2
Fore
SplineSet
287 1516 m 0
 600 1516 l 0
 764 330 l 0
 1309 1516 l 0
 1622 1516 l 0
 901 0 l 0
 520 0 l 0
 287 1516 l 0
EndSplineSet
EndChar

StartChar: W
Encoding: 58 87 58
Width: 2111
VWidth: 1024
Flags: HW
LayerCount: 2
Fore
SplineSet
289 1516 m 0
 602 1516 l 0
 694 451 l 0
 1128 1516 l 0
 1407 1516 l 0
 1495 451 l 0
 1931 1516 l 0
 2247 1516 l 0
 1618 0 l 0
 1309 0 l 0
 1196 1067 l 0
 739 0 l 0
 430 0 l 0
 289 1516 l 0
EndSplineSet
EndChar

StartChar: X
Encoding: 59 88 59
Width: 1341
VWidth: 1024
Flags: HW
LayerCount: 2
Fore
SplineSet
963 737 m 0
 1313 0 l 0
 983 0 l 0
 748 510 l 0
 377 0 l 0
 39 0 l 0
 627 768 l 0
 270 1516 l 0
 602 1516 l 0
 844 993 l 0
 1227 1516 l 0
 1565 1516 l 0
 963 737 l 0
EndSplineSet
EndChar

StartChar: Y
Encoding: 60 89 60
Width: 1312
VWidth: 1024
Flags: HW
LayerCount: 2
Fore
SplineSet
561 442 m 0
 272 1516 l 0
 602 1516 l 0
 762 772 l 0
 1178 1516 l 0
 1522 1516 l 0
 864 442 l 0
 795 0 l 0
 489 0 l 0
 561 442 l 0
EndSplineSet
EndChar

StartChar: Z
Encoding: 61 90 61
Width: 1163
VWidth: 1024
Flags: HW
LayerCount: 2
Fore
SplineSet
111 258 m 0
 922 1243 l 0
 266 1243 l 0
 309 1516 l 0
 1313 1516 l 0
 1272 1257 l 0
 463 272 l 0
 1137 272 l 0
 1094 0 l 0
 70 0 l 0
 111 258 l 0
EndSplineSet
EndChar

StartChar: bracketleft
Encoding: 62 91 62
Width: 694
VWidth: 1024
Flags: HW
LayerCount: 2
Fore
SplineSet
192.5 -344 m 0
 146.166992188 -286.666992188 123 -213 123 -123 c 0
 123 -94.3330078125 127 -54 135 -2 c 0
 344 1327 l 0
 386 1591.66699219 530 1724 776 1724 c 0
 938 1724 l 0
 901 1481 l 0
 827 1481 l 0
 724.333007812 1481 663 1414.66699219 643 1282 c 0
 440 12 l 0
 438.666992188 4 437.333007812 -5.1669921875 436 -15.5 c 0
 434.666992188 -25.8330078125 434 -37.6669921875 434 -51 c 0
 434 -141 477 -186 563 -186 c 0
 635 -186 l 0
 598 -430 l 0
 436 -430 l 0
 320 -430 238.833007812 -401.333007812 192.5 -344 c 0
EndSplineSet
EndChar

StartChar: backslash
Encoding: 63 92 63
Width: 946
VWidth: 1024
Flags: HW
LayerCount: 2
Fore
SplineSet
281 1577 m 0
 590 1577 l 0
 893 -147 l 0
 584 -147 l 0
 281 1577 l 0
EndSplineSet
EndChar

StartChar: bracketright
Encoding: 64 93 64
Width: 694
VWidth: 1024
Flags: HW
LayerCount: 2
Fore
SplineSet
2 -186 m 0
 74 -186 l 0
 178 -186 240 -120 260 12 c 0
 463 1282 l 0
 465.666992188 1314.66699219 467 1336.66699219 467 1348 c 0
 467 1396 456 1430.16699219 434 1450.5 c 0
 412 1470.83300781 380 1481 338 1481 c 0
 266 1481 l 0
 303 1724 l 0
 467 1724 l 0
 677 1724 782 1628.66699219 782 1438 c 0
 782 1405.33300781 778.666992188 1368.33300781 772 1327 c 0
 561 -2 l 0
 515.666992188 -287.333007812 371 -430 127 -430 c 0
 -37 -430 l 0
 2 -186 l 0
EndSplineSet
EndChar

StartChar: asciicircum
Encoding: 65 94 65
Width: 790
VWidth: 1024
Flags: HW
LayerCount: 2
Fore
SplineSet
518 1368 m 0
 725 1368 l 0
 883 1087 l 0
 707 1087 l 0
 594 1227 l 0
 428 1087 l 0
 252 1087 l 0
 518 1368 l 0
EndSplineSet
EndChar

StartChar: underscore
Encoding: 66 95 66
Width: 1247
VWidth: 1024
Flags: HW
LayerCount: 2
Fore
SplineSet
-25 -150 m 0
 1223 -150 l 0
 1186 -393 l 0
 -61 -393 l 0
 -25 -150 l 0
EndSplineSet
EndChar

StartChar: grave
Encoding: 67 96 67
Width: 475
VWidth: 1024
Flags: HW
LayerCount: 2
Fore
SplineSet
283 1579 m 0
 526 1579 l 0
 649 1292 l 0
 471 1292 l 0
 283 1579 l 0
EndSplineSet
EndChar

StartChar: a
Encoding: 68 97 68
Width: 1169
VWidth: 1024
Flags: HW
LayerCount: 2
Fore
SplineSet
702.5 251.5 m 0
 735.5 265.166992188 769.666992188 283.666992188 805 307 c 0
 889 836 l 0
 877 844 856.833007812 851.333007812 828.5 858 c 0
 800.166992188 864.666992188 769.666992188 868 737 868 c 0
 656.333007812 868 595.666992188 843.833007812 555 795.5 c 0
 514.333007812 747.166992188 485.666992188 673 469 573 c 0
 458.333007812 505 453 454.666992188 453 422 c 0
 453 363.333007812 464.5 316.833007812 487.5 282.5 c 0
 510.5 248.166992188 546 231 594 231 c 0
 633.333007812 231 669.5 237.833007812 702.5 251.5 c 0
231 83 m 0
 175 146.333007812 147 241 147 367 c 0
 147 428.333007812 155.333007812 504.666992188 172 596 c 0
 200.666992188 772 261.166992188 902 353.5 986 c 0
 445.833007812 1070 579.333007812 1112 754 1112 c 0
 845.333007812 1112 932.666992188 1100 1016 1076 c 0
 1099.33300781 1052 1166.33300781 1021 1217 983 c 0
 1061 0 l 0
 793 0 l 0
 776 111 l 0
 742 81 693.333007812 53 630 27 c 0
 566.666992188 1 505.333007812 -12 446 -12 c 0
 358.666992188 -12 287 19.6669921875 231 83 c 0
EndSplineSet
EndChar

StartChar: b
Encoding: 69 98 69
Width: 1189
VWidth: 1024
Flags: HW
LayerCount: 2
Fore
SplineSet
818 306 m 0
 855.333007812 356 882.333007812 438.333007812 899 553 c 0
 905.666992188 607.666992188 909 650 909 680 c 0
 909 805.333007812 862 868 768 868 c 0
 732.666992188 868 694.833007812 863 654.5 853 c 0
 614.166992188 843 577 829.666992188 543 813 c 0
 463 297 l 0
 491.666992188 275 521.666992188 258.5 553 247.5 c 0
 584.333007812 236.5 622.666992188 231 668 231 c 0
 730.666992188 231 780.666992188 256 818 306 c 0
580 20.5 m 0
 521.333007812 42.1669921875 472 70 432 104 c 0
 379 0 l 0
 111 0 l 0
 358 1563 l 0
 662 1563 l 0
 578 1030 l 0
 624.666992188 1054.66699219 674.833007812 1074.5 728.5 1089.5 c 0
 782.166992188 1104.5 828.666992188 1112 868 1112 c 0
 976 1112 1060.66699219 1078.5 1122 1011.5 c 0
 1183.33300781 944.5 1214 849.666992188 1214 727 c 0
 1214 681.666992188 1205.33300781 597 1188 473 c 0
 1163.33300781 319 1114.16699219 199.666992188 1040.5 115 c 0
 966.833007812 30.3330078125 874 -12 762 -12 c 0
 699.333007812 -12 638.666992188 -1.1669921875 580 20.5 c 0
EndSplineSet
EndChar

StartChar: c
Encoding: 70 99 70
Width: 972
VWidth: 1024
Flags: HW
LayerCount: 2
Fore
SplineSet
256 83 m 0
 188 146.333007812 154 254 154 406 c 0
 154 451.333007812 160.666992188 516 174 600 c 0
 226 941.333007812 396 1112 684 1112 c 0
 785.333007812 1112 911 1093 1061 1055 c 0
 1032 879 l 0
 754 879 l 0
 670.666992188 879 607.166992188 852.666992188 563.5 800 c 0
 519.833007812 747.333007812 488.333007812 663.666992188 469 549 c 0
 461 491.666992188 457 452.666992188 457 432 c 0
 457 355.333007812 473 300.333007812 505 267 c 0
 537 233.666992188 586.333007812 217 653 217 c 0
 946 217 l 0
 920 45 l 0
 810.666992188 7 689 -12 555 -12 c 0
 423.666992188 -12 324 19.6669921875 256 83 c 0
EndSplineSet
EndChar

StartChar: d
Encoding: 71 100 71
Width: 1177
VWidth: 1024
Flags: HW
LayerCount: 2
Fore
SplineSet
706.5 251.5 m 0
 740.833007812 265.166992188 775.666992188 283.666992188 811 307 c 0
 895 836 l 0
 851 858 799.666992188 868.666992188 741 868 c 0
 665.666992188 868 607 845.5 565 800.5 c 0
 523 755.5 491 672.333007812 469 551 c 0
 459.666992188 496.333007812 455 452.666992188 455 420 c 0
 455 294.666992188 502 231.666992188 596 231 c 0
 635.333007812 231 672.166992188 237.833007812 706.5 251.5 c 0
232.5 87 m 0
 180.166992188 153 154 247 154 369 c 0
 154 451 161.333007812 528.666992188 176 602 c 0
 198 716.666992188 228.166992188 810.5 266.5 883.5 c 0
 304.833007812 956.5 360.833007812 1012.83300781 434.5 1052.5 c 0
 508.166992188 1092.16699219 606.333007812 1112 729 1112 c 0
 808.333007812 1112 876.666992188 1102.33300781 934 1083 c 0
 1010 1563 l 0
 1313 1563 l 0
 1065 0 l 0
 797 0 l 0
 778 111 l 0
 736 74.3330078125 687 44.6669921875 631 22 c 0
 575 -0.6669921875 518.333007812 -12 461 -12 c 0
 361 -12 284.833007812 21 232.5 87 c 0
EndSplineSet
EndChar

StartChar: e
Encoding: 72 101 72
Width: 1122
VWidth: 1024
Flags: HW
LayerCount: 2
Fore
SplineSet
821.5 624 m 0
 863.833007812 650.666992188 885 694 885 754 c 0
 885 840 833 883 729 883 c 0
 653.666992188 883 596.666992188 859.333007812 558 812 c 0
 519.333007812 764.666992188 492.333007812 692.666992188 477 596 c 0
 529 588 574.666992188 584 614 584 c 0
 710 584 779.166992188 597.333007812 821.5 624 c 0
256 91.5 m 0
 188 160.5 154 262.333007812 154 397 c 0
 154 450.333007812 160.666992188 520.666992188 174 608 c 0
 201.333007812 784 262.5 912.333007812 357.5 993 c 0
 452.5 1073.66699219 583.333007812 1114 750 1114 c 0
 1028.66699219 1114 1167.66699219 1004.66699219 1167 786 c 0
 1167 644 1124.66699219 546.5 1040 493.5 c 0
 955.333007812 440.5 839.333007812 414 692 414 c 0
 595.333007812 414 517 421.333007812 457 436 c 0
 454.333007812 403.333007812 453 378.666992188 453 362 c 0
 453 310 473 271.833007812 513 247.5 c 0
 553 223.166992188 618.333007812 211 709 211 c 0
 1063 211 l 0
 1034 33 l 0
 889.333007812 3 741.333007812 -12 590 -12 c 0
 435.333007812 -12 324 22.5 256 91.5 c 0
EndSplineSet
EndChar

StartChar: f
Encoding: 73 102 73
Width: 798
VWidth: 1024
Flags: HW
LayerCount: 2
Fore
SplineSet
322 856 m 0
 168 856 l 0
 199 1051 l 0
 358 1100 l 0
 387 1262 l 0
 405 1368.66699219 445 1447.5 507 1498.5 c 0
 569 1549.5 661.333007812 1575 784 1575 c 0
 875.333007812 1575 958 1568.66699219 1032 1556 c 0
 997 1333 l 0
 840 1333 l 0
 785.333007812 1333 745.666992188 1321.16699219 721 1297.5 c 0
 696.333007812 1273.83300781 680.666992188 1234 674 1178 c 0
 664 1100 l 0
 930 1100 l 0
 891 856 l 0
 625 856 l 0
 489 0 l 0
 186 0 l 0
 322 856 l 0
EndSplineSet
EndChar

StartChar: g
Encoding: 74 103 74
Width: 1179
VWidth: 1024
Flags: HW
LayerCount: 2
Fore
SplineSet
807 307 m 0
 895 854 l 0
 832.333007812 863.333007812 778.333007812 868 733 868 c 0
 663.666992188 868 607.166992188 845.5 563.5 800.5 c 0
 519.833007812 755.5 489.666992188 684 473 586 c 0
 461 513.333007812 455 456.666992188 455 416 c 0
 455 354.666992188 466.833007812 308.5 490.5 277.5 c 0
 514.166992188 246.5 548 231 592 231 c 0
 658.666992188 231 730.333007812 256.333007812 807 307 c 0
74 -459 m 0
 106 -250 l 0
 453 -250 l 0
 539 -250 607.166992188 -236.666992188 657.5 -210 c 0
 707.833007812 -183.333007812 738 -137.333007812 748 -72 c 0
 778 111 l 0
 736 77 682.833007812 48 618.5 24 c 0
 554.166992188 0 494 -12 438 -12 c 0
 346.666992188 -12 276.166992188 23.8330078125 226.5 95.5 c 0
 176.833007812 167.166992188 152 257 152 365 c 0
 152 426.333007812 160 511.666992188 176 621 c 0
 204.666992188 798.333007812 268.833007812 924.5 368.5 999.5 c 0
 468.166992188 1074.5 596 1112 752 1112 c 0
 846 1112 934.333007812 1105.5 1017 1092.5 c 0
 1099.66699219 1079.5 1170.33300781 1063.33300781 1229 1044 c 0
 1044 -119 l 0
 1023.33300781 -245.666992188 967.666992188 -338 877 -396 c 0
 786.333007812 -454 659.333007812 -483 496 -483 c 0
 449.333007812 -483 399.333007812 -481 346 -477 c 0
 74 -459 l 0
EndSplineSet
EndChar

StartChar: h
Encoding: 75 104 75
Width: 1208
VWidth: 1024
Flags: HW
LayerCount: 2
Fore
SplineSet
358 1563 m 0
 662 1563 l 0
 569 987 l 0
 619.666992188 1023.66699219 677.166992188 1054 741.5 1078 c 0
 805.833007812 1102 876 1114 952 1114 c 0
 1134.66699219 1114 1226.33300781 1022.66699219 1227 840 c 0
 1227 803.333007812 1222.66699219 761 1214 713 c 0
 1102 0 l 0
 799 0 l 0
 905 676 l 0
 906.333007812 686.666992188 907 702.333007812 907 723 c 0
 907 802.333007812 865.333007812 842 782 842 c 0
 734 842 690.666992188 834.166992188 652 818.5 c 0
 613.333007812 802.833007812 573.333007812 780 532 750 c 0
 414 0 l 0
 111 0 l 0
 358 1563 l 0
EndSplineSet
EndChar

StartChar: i
Encoding: 76 105 76
Width: 520
VWidth: 1024
Flags: HW
LayerCount: 2
Fore
SplineSet
283 1100 m 0
 586 1100 l 0
 414 0 l 0
 109 0 l 0
 283 1100 l 0
317.5 1273 m 0
 310.5 1280.33300781 308.333007812 1290.33300781 311 1303 c 0
 342 1503 l 0
 346 1531.66699219 362.333007812 1546 391 1546 c 0
 625 1546 l 0
 649.666992188 1546 660.333007812 1531.66699219 657 1503 c 0
 627 1303 l 0
 620.333007812 1275.66699219 604.666992188 1262 580 1262 c 0
 346 1262 l 0
 334 1262 324.5 1265.66699219 317.5 1273 c 0
EndSplineSet
EndChar

StartChar: j
Encoding: 77 106 77
Width: 520
VWidth: 1024
Flags: HW
LayerCount: 2
Fore
SplineSet
283 1100 m 0
 586 1100 l 0
 412 -8 l 0
 390 -147.333007812 338 -306.333007812 256 -485 c 0
 31 -485 l 0
 283 1100 l 0
317.5 1273 m 0
 310.5 1280.33300781 308.333007812 1290.33300781 311 1303 c 0
 342 1503 l 0
 346 1531.66699219 362.333007812 1546 391 1546 c 0
 625 1546 l 0
 649.666992188 1546 660.333007812 1531.66699219 657 1503 c 0
 627 1303 l 0
 620.333007812 1275.66699219 604.666992188 1262 580 1262 c 0
 346 1262 l 0
 334 1262 324.5 1265.66699219 317.5 1273 c 0
EndSplineSet
EndChar

StartChar: k
Encoding: 78 107 78
Width: 1153
VWidth: 1024
Flags: HW
LayerCount: 2
Fore
SplineSet
358 1563 m 0
 662 1563 l 0
 526 711 l 0
 726.666992188 745 856.333007812 874.666992188 915 1100 c 0
 1221 1100 l 0
 1151.66699219 851.333007812 1034 682.666992188 868 594 c 0
 1157 0 l 0
 846 0 l 0
 614 502 l 0
 567.333007812 490 525.666992188 483.666992188 489 483 c 0
 414 0 l 0
 111 0 l 0
 358 1563 l 0
EndSplineSet
EndChar

StartChar: l
Encoding: 79 108 79
Width: 659
VWidth: 1024
Flags: HW
LayerCount: 2
Fore
SplineSet
247 66.5 m 0
 190.333007812 110.833007812 162 170.666992188 162 246 c 0
 162 302 164.666992188 347 170 381 c 0
 358 1563 l 0
 662 1563 l 0
 489 485 l 0
 478.333007812 403 473 353.333007812 473 336 c 0
 473 300.666992188 481.5 275.5 498.5 260.5 c 0
 515.5 245.5 542.666992188 235.666992188 580 231 c 0
 657 219 l 0
 623 0 l 0
 492 0 l 0
 385.333007812 0 303.666992188 22.1669921875 247 66.5 c 0
EndSplineSet
EndChar

StartChar: m
Encoding: 80 109 80
Width: 1898
VWidth: 1024
Flags: HW
LayerCount: 2
Fore
SplineSet
283 1100 m 0
 535 1100 l 0
 569 987 l 0
 623.666992188 1026.33300781 681.833007812 1057.33300781 743.5 1080 c 0
 805.166992188 1102.66699219 874.666992188 1114 952 1114 c 0
 1017.33300781 1114 1071.33300781 1101 1114 1075 c 0
 1156.66699219 1049 1191 1008 1217 952 c 0
 1275.66699219 1005.33300781 1340.83300781 1045.66699219 1412.5 1073 c 0
 1484.16699219 1100.33300781 1554 1114 1622 1114 c 0
 1816 1114 1913 1026 1913 850 c 0
 1913 800.666992188 1908 746 1898 686 c 0
 1790 0 l 0
 1487 0 l 0
 1593 678 l 0
 1595.66699219 697.333007812 1597 711.666992188 1597 721 c 0
 1597 801.666992188 1552 842 1462 842 c 0
 1380 842 1297.33300781 809 1214 743 c 0
 1214 725 1212 700.666992188 1208 670 c 0
 1102 0 l 0
 799 0 l 0
 905 672 l 0
 907.666992188 699.333007812 909 716.333007812 909 723 c 0
 909 802.333007812 864.666992188 842 776 842 c 0
 729.333007812 842 688.333007812 834.5 653 819.5 c 0
 617.666992188 804.5 577.333007812 781.333007812 532 750 c 0
 414 0 l 0
 111 0 l 0
 283 1100 l 0
EndSplineSet
EndChar

StartChar: n
Encoding: 81 110 81
Width: 1208
VWidth: 1024
Flags: HW
LayerCount: 2
Fore
SplineSet
283 1100 m 0
 535 1100 l 0
 569 987 l 0
 682.333007812 1071.66699219 808.666992188 1114 948 1114 c 0
 1036.66699219 1114 1105.33300781 1091.16699219 1154 1045.5 c 0
 1202.66699219 999.833007812 1227 940 1227 866 c 0
 1227 814 1218.66699219 738.333007812 1202 639 c 0
 1102 0 l 0
 799 0 l 0
 897 629 l 0
 905 686.333007812 909 718.333007812 909 725 c 0
 909 803 864.666992188 842 776 842 c 0
 730.666992188 842 688.666992188 834.166992188 650 818.5 c 0
 611.333007812 802.833007812 572 780 532 750 c 0
 414 0 l 0
 111 0 l 0
 283 1100 l 0
EndSplineSet
EndChar

StartChar: o
Encoding: 82 111 82
Width: 1175
VWidth: 1024
Flags: HW
LayerCount: 2
Fore
SplineSet
747.5 256 m 0
 779.166992188 272.666992188 804.5 302.166992188 823.5 344.5 c 0
 842.5 386.833007812 858.666992188 450.333007812 872 535 c 0
 884 627.666992188 890.333007812 691 891 725 c 0
 891 779.666992188 878.333007812 818.166992188 853 840.5 c 0
 827.666992188 862.833007812 784.333007812 874 723 874 c 0
 667 874 623.333007812 864.833007812 592 846.5 c 0
 560.666992188 828.166992188 535.333007812 795.166992188 516 747.5 c 0
 496.666992188 699.833007812 480.333007812 629 467 535 c 0
 459 476.333007812 455 426.333007812 455 385 c 0
 455 326.333007812 468.333007812 286 495 264 c 0
 521.666992188 242 562.666992188 231 618 231 c 0
 672.666992188 231 715.833007812 239.333007812 747.5 256 c 0
154 371 m 0
 154 440.333007812 159.333007812 510 170 580 c 0
 193.333007812 724.666992188 228.166992188 835.166992188 274.5 911.5 c 0
 320.833007812 987.833007812 382.166992188 1040.33300781 458.5 1069 c 0
 534.833007812 1097.66699219 636 1112 762 1112 c 0
 876.666992188 1112 965 1097.66699219 1027 1069 c 0
 1089 1040.33300781 1132.33300781 997.333007812 1157 940 c 0
 1181.66699219 882.666992188 1194 806.333007812 1194 711 c 0
 1194 644.333007812 1188 570.333007812 1176 489 c 0
 1155.33300781 356.333007812 1121.5 254 1074.5 182 c 0
 1027.5 110 965.333007812 59.6669921875 888 31 c 0
 810.666992188 2.3330078125 710 -12 586 -12 c 0
 298 -12 154 115.666992188 154 371 c 0
EndSplineSet
EndChar

StartChar: p
Encoding: 83 112 83
Width: 1171
VWidth: 1024
Flags: HW
LayerCount: 2
Fore
SplineSet
794.5 318.5 m 0
 834.166992188 366.833007812 863.666992188 446.333007812 883 557 c 0
 889.666992188 615.666992188 893 652.666992188 893 668 c 0
 893 736 881.333007812 786.333007812 858 819 c 0
 834.666992188 851.666992188 797 868 745 868 c 0
 549 866 l 0
 455 274 l 0
 483.666992188 263.333007812 510.166992188 256 534.5 252 c 0
 558.833007812 248 589 246 625 246 c 0
 698.333007812 246 754.833007812 270.166992188 794.5 318.5 c 0
276 1057 m 0
 380 1075 474.666992188 1088.66699219 560 1098 c 0
 645.333007812 1107.33300781 735 1112 829 1112 c 0
 957.666992188 1112 1050.33300781 1080 1107 1016 c 0
 1163.66699219 952 1192 853 1192 719 c 0
 1192 657.666992188 1185 584.666992188 1171 500 c 0
 1143.66699219 329.333007812 1085.66699219 201.333007812 997 116 c 0
 908.333007812 30.6669921875 795.666992188 -12 659 -12 c 0
 553.666992188 -12 473.333007812 2.3330078125 418 31 c 0
 336 -485 l 0
 33 -485 l 0
 276 1057 l 0
EndSplineSet
EndChar

StartChar: q
Encoding: 84 113 84
Width: 1167
VWidth: 1024
Flags: HW
LayerCount: 2
Fore
SplineSet
805 307 m 0
 893 854 l 0
 826.333007812 863.333007812 774.333007812 868 737 868 c 0
 653.666992188 868 592.666992188 843.5 554 794.5 c 0
 515.333007812 745.5 486.333007812 668.333007812 467 563 c 0
 456.333007812 497.666992188 451 449.333007812 451 418 c 0
 451 358 463.166992188 311.833007812 487.5 279.5 c 0
 511.833007812 247.166992188 545.333007812 231 588 231 c 0
 654.666992188 231 727 256.333007812 805 307 c 0
774 111 m 0
 730 75.6669921875 677.666992188 46.3330078125 617 23 c 0
 556.333007812 -0.3330078125 497.333007812 -12 440 -12 c 0
 343.333007812 -12 271.166992188 20 223.5 84 c 0
 175.833007812 148 152 240 152 360 c 0
 152 418.666992188 158.666992188 494 172 586 c 0
 202 777.333007812 264.833007812 912.833007812 360.5 992.5 c 0
 456.166992188 1072.16699219 583 1112 741 1112 c 0
 833.666992188 1112 924.833007812 1105.5 1014.5 1092.5 c 0
 1104.16699219 1079.5 1175 1063.33300781 1227 1044 c 0
 983 -485 l 0
 680 -485 l 0
 774 111 l 0
EndSplineSet
EndChar

StartChar: r
Encoding: 85 114 85
Width: 858
VWidth: 1024
Flags: HW
LayerCount: 2
Fore
SplineSet
285 1100 m 0
 555 1100 l 0
 567 958 l 0
 612.333007812 1006 659.166992188 1043.66699219 707.5 1071 c 0
 755.833007812 1098.33300781 809.333007812 1112 868 1112 c 0
 914.666992188 1112 951.666992188 1108 979 1100 c 0
 932 797 l 0
 880 799.666992188 837.666992188 801 805 801 c 0
 749 801 697.5 792.833007812 650.5 776.5 c 0
 603.5 760.166992188 562.666992188 739 528 713 c 0
 416 0 l 0
 111 0 l 0
 285 1100 l 0
EndSplineSet
EndChar

StartChar: s
Encoding: 86 115 86
Width: 1048
VWidth: 1024
Flags: HW
LayerCount: 2
Fore
SplineSet
106 37 m 0
 135 215 l 0
 614 215 l 0
 690.666992188 215 733.666992188 241.666992188 743 295 c 0
 750 340 l 0
 752 365 l 0
 752 405.666992188 723.333007812 426 666 426 c 0
 502 426 l 0
 406.666992188 426 330.5 444.5 273.5 481.5 c 0
 216.5 518.5 188 574.333007812 188 649 c 0
 188 681.666992188 191 712.333007812 197 741 c 0
 209 819 l 0
 225.666992188 911.666992188 268.333007812 983.666992188 337 1035 c 0
 405.666992188 1086.33300781 514 1112 662 1112 c 0
 726 1112 798.5 1107.16699219 879.5 1097.5 c 0
 960.5 1087.83300781 1027.66699219 1075.66699219 1081 1061 c 0
 1051 883 l 0
 602 883 l 0
 562.666992188 883 534 876.5 516 863.5 c 0
 498 850.5 485.666992188 829 479 799 c 0
 473 768 l 0
 469 750 467 735.666992188 467 725 c 0
 467 705.666992188 474.166992188 691.666992188 488.5 683 c 0
 502.833007812 674.333007812 527 670 561 670 c 0
 745 670 l 0
 832.333007812 670 902.333007812 650.5 955 611.5 c 0
 1007.66699219 572.5 1034 519 1034 451 c 0
 1034 423.666992188 1032 394 1028 362 c 0
 1014 266 l 0
 998.666992188 168 951.5 97.1669921875 872.5 53.5 c 0
 793.5 9.8330078125 684.333007812 -12 545 -12 c 0
 361.666992188 -12 215.333007812 4.3330078125 106 37 c 0
EndSplineSet
EndChar

StartChar: t
Encoding: 87 116 87
Width: 835
VWidth: 1024
Flags: HW
LayerCount: 2
Fore
SplineSet
327 61.5 m 0
 271.666992188 102.5 244 165.333007812 244 250 c 0
 244 310 250 373.333007812 262 440 c 0
 338 856 l 0
 168 856 l 0
 199 1051 l 0
 387 1100 l 0
 477 1407 l 0
 717 1407 l 0
 668 1100 l 0
 926 1100 l 0
 889 856 l 0
 629 856 l 0
 563 438 l 0
 561.666992188 432.666992188 559 418 555 394 c 0
 551 370 549 350 549 334 c 0
 549 302.666992188 557.166992188 279.5 573.5 264.5 c 0
 589.833007812 249.5 616.333007812 240.666992188 653 238 c 0
 778 225 l 0
 741 0 l 0
 575 0 l 0
 465 0 382.333007812 20.5 327 61.5 c 0
EndSplineSet
EndChar

StartChar: u
Encoding: 88 117 88
Width: 1208
VWidth: 1024
Flags: HW
LayerCount: 2
Fore
SplineSet
222.5 55.5 m 0
 178.166992188 100.5 156 164 156 246 c 0
 156 291.333007812 159.333007812 335.666992188 166 379 c 0
 281 1100 l 0
 584 1100 l 0
 477 416 l 0
 474.333007812 396.666992188 473 381.666992188 473 371 c 0
 473 297 516 260 602 260 c 0
 648.666992188 260 691.333007812 267.5 730 282.5 c 0
 768.666992188 297.5 808.666992188 320 850 350 c 0
 969 1100 l 0
 1272 1100 l 0
 1100 0 l 0
 829 0 l 0
 813 113 l 0
 749 69 689 37.1669921875 633 17.5 c 0
 577 -2.1669921875 508.666992188 -12 428 -12 c 0
 335.333007812 -12 266.833007812 10.5 222.5 55.5 c 0
EndSplineSet
EndChar

StartChar: v
Encoding: 89 118 89
Width: 1124
VWidth: 1024
Flags: HW
LayerCount: 2
Fore
SplineSet
170 1100 m 0
 481 1100 l 0
 590 285 l 0
 834 801 l 0
 858.666992188 857 877.666992188 908.833007812 891 956.5 c 0
 904.333007812 1004.16699219 914.666992188 1057.33300781 922 1116 c 0
 1200 1116 l 0
 1198.66699219 1045.33300781 1185.66699219 974.5 1161 903.5 c 0
 1136.33300781 832.5 1103 755.333007812 1061 672 c 0
 715 0 l 0
 365 0 l 0
 170 1100 l 0
EndSplineSet
EndChar

StartChar: w
Encoding: 90 119 90
Width: 1740
VWidth: 1024
Flags: HW
LayerCount: 2
Fore
SplineSet
170 1100 m 0
 481 1100 l 0
 575 285 l 0
 905 1100 l 0
 1104 1100 l 0
 1247 285 l 0
 1450 836 l 0
 1489.33300781 957.333007812 1512.66699219 1050.66699219 1520 1116 c 0
 1815 1116 l 0
 1815 1056 1804.66699219 989.833007812 1784 917.5 c 0
 1763.33300781 845.166992188 1739.33300781 780.333007812 1712 723 c 0
 1372 0 l 0
 1051 0 l 0
 934 606 l 0
 668 0 l 0
 346 0 l 0
 170 1100 l 0
EndSplineSet
EndChar

StartChar: x
Encoding: 91 120 91
Width: 1138
VWidth: 1024
Flags: HW
LayerCount: 2
Fore
SplineSet
819 524 m 0
 1124 0 l 0
 813 0 l 0
 614 340 l 0
 328 0 l 0
 16 0 l 0
 487 559 l 0
 172 1100 l 0
 483 1100 l 0
 688 748 l 0
 954 1100 l 0
 1280 1100 l 0
 819 524 l 0
EndSplineSet
EndChar

StartChar: y
Encoding: 92 121 92
Width: 1177
VWidth: 1024
Flags: HW
LayerCount: 2
Fore
SplineSet
197 -270 m 0
 287 -250.666992188 362 -220.666992188 422 -180 c 0
 482 -139.333007812 531 -79.3330078125 569 0 c 0
 473.666992188 9.3330078125 404.5 36.6669921875 361.5 82 c 0
 318.5 127.333007812 291.666992188 198.333007812 281 295 c 0
 186 1100 l 0
 500 1100 l 0
 549 358 l 0
 555.666992188 287.333007812 594 250.666992188 664 248 c 0
 905 840 l 0
 945.666992188 948 967.666992188 1040 971 1116 c 0
 1255 1116 l 0
 1255 964.666992188 1214.33300781 803 1133 631 c 0
 842 16 l 0
 761.333007812 -157.333007812 670.166992188 -281.166992188 568.5 -355.5 c 0
 466.833007812 -429.833007812 343 -473 197 -485 c 0
 197 -270 l 0
EndSplineSet
EndChar

StartChar: z
Encoding: 93 122 93
Width: 1026
VWidth: 1024
Flags: HW
LayerCount: 2
Fore
SplineSet
117 219 m 0
 727 856 l 0
 193 856 l 0
 231 1100 l 0
 1114 1100 l 0
 1081 881 l 0
 471 244 l 0
 991 244 l 0
 988.333007812 218 982.166992188 177 972.5 121 c 0
 962.833007812 65 956 24.6669921875 952 0 c 0
 82 0 l 0
 117 219 l 0
EndSplineSet
EndChar

StartChar: braceleft
Encoding: 94 123 94
Width: 649
VWidth: 1024
Flags: HW
LayerCount: 2
Fore
SplineSet
275.5 -367.5 m 0
 213.166992188 -325.833007812 182 -260.666992188 182 -172 c 0
 182 -118.666992188 201.333007812 15 240 229 c 0
 262 353 272.666992188 424.666992188 272 444 c 0
 272 479.333007812 262.833007812 504.666992188 244.5 520 c 0
 226.166992188 535.333007812 194.666992188 543 150 543 c 0
 195 823 l 0
 289 831 341.333007812 870.666992188 352 942 c 0
 416 1343 l 0
 431.333007812 1438.33300781 458.333007812 1513.83300781 497 1569.5 c 0
 535.666992188 1625.16699219 589.5 1664.83300781 658.5 1688.5 c 0
 727.5 1712.16699219 816.666992188 1724 926 1724 c 0
 885 1481 l 0
 829 1481 788.666992188 1467.33300781 764 1440 c 0
 739.333007812 1412.66699219 721 1359.33300781 709 1280 c 0
 649 891 l 0
 628.333007812 764.333007812 550 695.333007812 414 684 c 0
 470 673.333007812 512.666992188 653.666992188 542 625 c 0
 571.333007812 596.333007812 586 559.333007812 586 514 c 0
 586 489.333007812 571 387 541 207 c 0
 512.333007812 40.3330078125 498 -57.3330078125 498 -86 c 0
 498 -126.666992188 507.5 -156.333007812 526.5 -175 c 0
 545.5 -193.666992188 576 -203 618 -203 c 0
 584 -430 l 0
 440.666992188 -430 337.833007812 -409.166992188 275.5 -367.5 c 0
EndSplineSet
EndChar

StartChar: bar
Encoding: 95 124 95
Width: 514
VWidth: 1024
Flags: HW
LayerCount: 2
Fore
SplineSet
385 1577 m 0
 629 1577 l 0
 356 -147 l 0
 113 -147 l 0
 385 1577 l 0
EndSplineSet
EndChar

StartChar: braceright
Encoding: 96 125 96
Width: 649
VWidth: 1024
Flags: HW
LayerCount: 2
Fore
SplineSet
0 -203 m 0
 56 -203 96.3330078125 -188.666992188 121 -160 c 0
 145.666992188 -131.333007812 162.666992188 -87 172 -27 c 0
 248 442 l 0
 257.333007812 496.666992188 281.833007812 541.166992188 321.5 575.5 c 0
 361.166992188 609.833007812 413.666992188 632.333007812 479 643 c 0
 364.333007812 652.333007812 307 705.666992188 307 803 c 0
 307 838.333007812 322 946 352 1126 c 0
 374 1273.33300781 385 1352.66699219 385 1364 c 0
 385 1408 375.5 1438.5 356.5 1455.5 c 0
 337.5 1472.5 307.333007812 1481 266 1481 c 0
 305 1724 l 0
 567 1724 698 1626.66699219 698 1432 c 0
 698 1420 686.666992188 1340 664 1192 c 0
 635.333007812 999.333007812 621 895.666992188 621 881 c 0
 621 823.666992188 661.666992188 790.666992188 743 782 c 0
 698 502 l 0
 608 502 556.333007812 462.333007812 543 383 c 0
 471 -78 l 0
 457.666992188 -166.666992188 433.166992188 -236.166992188 397.5 -286.5 c 0
 361.833007812 -336.833007812 309.5 -373.333007812 240.5 -396 c 0
 171.5 -418.666992188 79 -430 -37 -430 c 0
 0 -203 l 0
EndSplineSet
EndChar

StartChar: asciitilde
Encoding: 97 126 97
Width: 866
VWidth: 1024
Flags: HW
LayerCount: 2
Fore
SplineSet
675.5 1106 m 0
 657.833007812 1114 636 1126.33300781 610 1143 c 0
 588 1158.33300781 569.166992188 1169.33300781 553.5 1176 c 0
 537.833007812 1182.66699219 522 1186 506 1186 c 0
 469.333007812 1186 435.833007812 1179.5 405.5 1166.5 c 0
 375.166992188 1153.5 339 1133.33300781 297 1106 c 0
 272 1210 l 0
 362 1305.33300781 450.333007812 1353.33300781 537 1354 c 0
 556.333007812 1354 574 1350.16699219 590 1342.5 c 0
 606 1334.83300781 629 1322.33300781 659 1305 c 0
 681 1291.66699219 699.5 1281.16699219 714.5 1273.5 c 0
 729.5 1265.83300781 744 1262 758 1262 c 0
 822 1262 888.666992188 1291.33300781 958 1350 c 0
 983 1235 l 0
 894.333007812 1141 811 1094 733 1094 c 0
 712.333007812 1094 693.166992188 1098 675.5 1106 c 0
EndSplineSet
EndChar

StartChar: inherent
Encoding: 98 -1 98
Width: 352
Flags: HW
LayerCount: 2
Fore
SplineSet
696 1505 m 2
 679.333333333 1425.66666667 628.5 1356 543.5 1296 c 128
 458.5 1236 357.333333333 1206 240 1206 c 1
 285 1423 l 1
 323 1423 353 1432.66666667 375 1452 c 1
 399.666666667 1467.33333333 414.666666667 1485 420 1505 c 1
 449 1651 l 1
 725 1651 l 1
 696 1505 l 2
EndSplineSet
EndChar

StartChar: makewide
Encoding: 99 -1 99
Width: 710
Flags: HW
LayerCount: 2
Fore
SplineSet
999 283 m 2
 982.333333333 206.333333333 943.5 140 882.5 84 c 128
 821.5 28 756 0 686 0 c 2
 381 2 l 2
 345.666666667 2 313.333333333 6.16666666667 284 14.5 c 128
 254.666666667 22.8333333333 224.166666667 36.5 192.5 55.5 c 128
 160.833333333 74.5 134.166666667 96.3333333333 112.5 121 c 128
 90.8333333333 145.666666667 67.6666666667 178.333333333 43 219 c 1
 109 535 l 1
 152 543 l 1
 176.666666667 450.333333333 221 374.333333333 285 315 c 1
 342.333333333 259 405 231 473 231 c 2
 664 231 l 2
 679.333333333 231 691.333333333 238.666666667 700 254 c 0
 719.333333333 280 730.333333333 301 733 317 c 2
 879 1010 l 2
 881.666666667 1025.33333333 883 1036 883 1042 c 0
 883 1066.66666667 874.666666667 1092 858 1118 c 1
 833.333333333 1144 799.333333333 1157 756 1157 c 2
 532 1157 l 1
 580 1389 l 1
 1085 1389 l 1
 1098 1194 l 1
 1138.66666667 1148.66666667 1159 1102.33333333 1159 1055 c 0
 1159 1045.66666667 1157.66666667 1033.33333333 1155 1018 c 2
 999 283 l 2
EndSplineSet
EndChar

StartChar: shortrr
Encoding: 100 -1 100
Width: 1681
Flags: HW
LayerCount: 2
Fore
SplineSet
1974 1165 m 1
 973 1165 l 2
 944.333333333 1165 922.5 1160.33333333 907.5 1151 c 128
 892.5 1141.66666667 882.333333333 1127.33333333 877 1108 c 2
 840 948 l 1
 840 922 848.833333333 900.5 866.5 883.5 c 128
 884.166666667 866.5 908 858 938 858 c 2
 1325 858 l 1
 1274 627 l 1
 889 627 l 2
 857.666666667 627 829.666666667 619.333333333 805 604 c 0
 793 597.333333333 783.833333333 588.833333333 777.5 578.5 c 128
 771.166666667 568.166666667 766.666666667 557 764 545 c 2
 719 344 l 1
 716.333333333 314 720.333333333 291.333333333 731 276 c 1
 740.333333333 254 752.666666667 242.666666667 768 242 c 1
 965 242 l 1
 918 10 l 1
 629 10 l 2
 562.333333333 10 508.333333333 34 467 82 c 0
 437 117.333333333 422 155.666666667 422 197 c 0
 422 206.333333333 423.333333333 222 426 244 c 1
 492 559 l 2
 502.666666667 612.333333333 530.333333333 658.666666667 575 698 c 1
 580.333333333 700.666666667 595.333333333 709.166666667 620 723.5 c 128
 644.666666667 737.833333333 662 746.666666667 672 750 c 1
 598 801 l 1
 577.333333333 831 567 863 567 897 c 0
 567 913.666666667 567.666666667 925.333333333 569 932 c 2
 621 1176 l 2
 636.333333333 1245.33333333 675 1297.66666667 737 1333 c 1
 791.666666667 1372.33333333 860 1392.33333333 942 1393 c 2
 2032 1393 l 1
 1974 1165 l 1
EndSplineSet
EndChar

StartChar: anusvara
Encoding: 101 3202 101
Width: 1609
Flags: HW
LayerCount: 2
Fore
SplineSet
1702 319 m 2
 1682.66666667 231.666666667 1638.33333333 158 1569 98 c 1
 1501 34 1427.33333333 2 1348 2 c 2
 705 2 l 2
 613.666666667 2 541 36.6666666667 487 106 c 1
 447.666666667 151.333333333 428 206.666666667 428 272 c 0
 428 292.666666667 430.666666667 316 436 342 c 2
 594 1092 l 1
 614.666666667 1179.33333333 663.666666667 1250.33333333 741 1305 c 1
 779 1335 819.666666667 1356.5 863 1369.5 c 128
 906.333333333 1382.5 952.333333333 1389 1001 1389 c 2
 1587 1389 l 2
 1679.66666667 1389 1753.33333333 1357.33333333 1808 1294 c 0
 1847.33333333 1248.66666667 1867.33333333 1195 1868 1133 c 0
 1868 1111 1865.33333333 1089 1860 1067 c 2
 1702 319 l 2
1434 360 m 1
 1579 1051 l 2
 1580.33333333 1057.66666667 1581 1067 1581 1079 c 0
 1581 1097 1573.83333333 1114.5 1559.5 1131.5 c 128
 1545.16666667 1148.5 1523.66666667 1157 1495 1157 c 2
 1026 1157 l 2
 986.666666667 1157 949 1147.33333333 913 1128 c 1
 884.333333333 1108.66666667 867.333333333 1087 862 1063 c 2
 715 356 l 2
 708.333333333 322 717.5 291.666666667 742.5 265 c 128
 767.5 238.333333333 800 225 840 225 c 2
 1298 225 l 2
 1326.66666667 225 1354.83333333 237.666666667 1382.5 263 c 128
 1410.16666667 288.333333333 1427.33333333 320.666666667 1434 360 c 1
EndSplineSet
EndChar

StartChar: u0C83
Encoding: 102 3203 102
Width: 1040
Flags: HW
LayerCount: 2
Fore
SplineSet
1321 944 m 2
 1310.33333333 888 1277.66666667 839.666666667 1223 799 c 1
 1175 758.333333333 1117.66666667 737.666666667 1051 737 c 2
 725 737 l 2
 652.333333333 737 599 759.666666667 565 805 c 1
 535 836.333333333 520 874 520 918 c 0
 520 936 520.666666667 950.333333333 522 961 c 2
 567 1176 l 2
 579 1240 614.5 1292.5 673.5 1333.5 c 128
 732.5 1374.5 796 1395 864 1395 c 2
 1159 1395 l 2
 1208.33333333 1395 1247.33333333 1384.66666667 1276 1364 c 1
 1292.66666667 1357.33333333 1307 1346.83333333 1319 1332.5 c 128
 1331 1318.16666667 1342.16666667 1299.66666667 1352.5 1277 c 128
 1362.83333333 1254.33333333 1368 1232 1368 1210 c 0
 1368 1199.33333333 1366.66666667 1184.33333333 1364 1165 c 2
 1321 944 l 2
1169 240 m 2
 1157 176 1125.33333333 120.666666667 1074 74 c 128
 1022.66666667 27.3333333333 968.333333333 4 911 4 c 2
 567 6 l 2
 503 6 449.333333333 28 406 72 c 1
 376 107.333333333 360.666666667 144.666666667 360 184 c 0
 360 190.666666667 361.666666667 205 365 227 c 1
 410 442 l 2
 422 506 458 559 518 601 c 128
 578 643 641.666666667 664 709 664 c 2
 1004 664 l 2
 1078 664 1131.66666667 640 1165 592 c 1
 1195 560.666666667 1210 520.333333333 1210 471 c 0
 1210 463 1208.66666667 446 1206 420 c 1
 1169 240 l 2
1053 1001 m 2
 1077 1124 l 2
 1078.33333333 1130.66666667 1077.66666667 1137.16666667 1075 1143.5 c 128
 1072.33333333 1149.83333333 1070.33333333 1154.66666667 1069 1158 c 128
 1067.66666667 1161.33333333 1058.66666667 1163 1042 1163 c 2
 909 1163 l 2
 887 1163 869.666666667 1159.33333333 857 1152 c 128
 844.333333333 1144.66666667 836.666666667 1134.66666667 834 1122 c 2
 809 1018 l 1
 810.333333333 1002.66666667 815.166666667 990.333333333 823.5 981 c 128
 831.833333333 971.666666667 843.333333333 967 858 967 c 2
 1004 967 l 1
 1014.66666667 969.666666667 1024 972.666666667 1032 976 c 128
 1040 979.333333333 1045.5 982.666666667 1048.5 986 c 128
 1051.5 989.333333333 1053 994.333333333 1053 1001 c 2
901 264 m 1
 926 389 l 2
 928.666666667 404.333333333 927.333333333 414.666666667 922 420 c 2
 913 428 l 1
 739 428 l 1
 696 420 l 1
 685.333333333 413.333333333 679.333333333 407 678 401 c 2
 649 285 l 1
 657 246 l 1
 659.666666667 240.666666667 662.833333333 237.166666667 666.5 235.5 c 128
 670.166666667 233.833333333 672.666666667 233 674 233 c 2
 850 233 l 2
 859.333333333 233 869.666666667 236 881 242 c 1
 901 264 l 1
EndSplineSet
EndChar

StartChar: avowel
Encoding: 103 3205 103
Width: 2091
Flags: HW
LayerCount: 2
Fore
SplineSet
2245 295 m 2
 2228.33333333 213 2181.66666667 144.666666667 2105 90 c 1
 2035.66666667 31.3333333333 1956.66666667 2 1868 2 c 2
 733 4 l 2
 636.333333333 4 560.666666667 32.6666666667 506 90 c 1
 484 110.666666667 468.166666667 133 458.5 157 c 128
 448.833333333 181 444 208 444 238 c 0
 444 248.666666667 445.666666667 267 449 293 c 1
 618 1106 l 2
 634.666666667 1189.33333333 679.166666667 1258 751.5 1312 c 128
 823.833333333 1366 903 1393 989 1393 c 2
 1393 1393 l 1
 1290 918 l 1
 1016 918 l 1
 1069 1161 l 1
 997 1161 l 2
 971 1161 948 1150 928 1128 c 0
 899.333333333 1096.66666667 881.333333333 1062.66666667 874 1026 c 2
 735 365 l 2
 729.666666667 339 737.333333333 308.666666667 758 274 c 1
 789.333333333 248 822.666666667 235.333333333 858 236 c 2
 1808 236 l 2
 1824.66666667 236 1837.83333333 237.333333333 1847.5 240 c 128
 1857.16666667 242.666666667 1868 247 1880 253 c 128
 1892 259 1904.16666667 268.5 1916.5 281.5 c 128
 1928.83333333 294.5 1940.66666667 307 1952 319 c 0
 1971.33333333 343.666666667 1983.66666667 371 1989 401 c 2
 2132 1077 l 2
 2137.33333333 1099 2132.66666667 1120.33333333 2118 1141 c 1
 2106 1153 2085.33333333 1159 2056 1159 c 2
 1991 1159 l 1
 1962 1036 l 2
 1960.66666667 1029.33333333 1960 1020 1960 1008 c 0
 1960 953.333333333 1996 898.666666667 2068 844 c 1
 2021 625 l 1
 1096 625 l 1
 1147 856 l 1
 1737 856 l 1
 1699 905.333333333 1679.66666667 950.333333333 1679 991 c 0
 1679 1006.33333333 1679.66666667 1016.66666667 1681 1022 c 2
 1761 1393 l 1
 2130 1393 l 2
 2190 1393 2244.5 1380.66666667 2293.5 1356 c 128
 2342.5 1331.33333333 2377.33333333 1299.33333333 2398 1260 c 1
 2413.33333333 1235.33333333 2421 1205.66666667 2421 1171 c 0
 2421 1160.33333333 2419.66666667 1144 2417 1122 c 1
 2245 295 l 2
EndSplineSet
EndChar

StartChar: aavowel
Encoding: 104 3206 104
Width: 2238
Flags: HW
LayerCount: 2
Fore
SplineSet
2546 993 m 1
 2529.33333333 909.666666667 2487.66666667 843 2421 793 c 1
 2383 761.666666667 2346.83333333 738.666666667 2312.5 724 c 128
 2278.16666667 709.333333333 2240.66666667 702 2200 702 c 2
 2161 702 l 1
 2191 656.666666667 2204.66666667 620 2202 592 c 1
 2126 231 l 2
 2114 167 2073.66666667 112.666666667 2005 68 c 0
 1973.66666667 47.3333333333 1939.5 31.5 1902.5 20.5 c 128
 1865.5 9.5 1823.33333333 4 1776 4 c 2
 690 12 l 2
 608 12 545.333333333 40.6666666667 502 98 c 1
 468 134.666666667 451 179.666666667 451 233 c 0
 451 255 453.666666667 277 459 299 c 2
 631 1112 l 2
 640.333333333 1151.33333333 657 1188.16666667 681 1222.5 c 128
 705 1256.83333333 738.666666667 1289 782 1319 c 1
 869.333333333 1372.33333333 963.666666667 1399 1065 1399 c 2
 1380 1399 l 1
 1278 924 l 1
 1004 924 l 1
 1057 1167 l 1
 1028 1167 l 2
 996.666666667 1167 969 1157.5 945 1138.5 c 128
 921 1119.5 906.333333333 1097.66666667 901 1073 c 2
 754 367 l 2
 751.333333333 347.666666667 750 335.333333333 750 330 c 0
 750 313.333333333 755.333333333 294.666666667 766 274 c 1
 788 248 814.666666667 235.333333333 846 236 c 2
 1729 236 l 2
 1759 236 1789 248.666666667 1819 274 c 0
 1835.66666667 289.333333333 1849 304.166666667 1859 318.5 c 128
 1869 332.833333333 1875.33333333 349.666666667 1878 369 c 2
 1925 596 l 2
 1930.33333333 626 1917.33333333 663 1886 707 c 1
 1274 707 l 1
 1325 938 l 1
 1831 938 l 1
 1811.66666667 976 1804.66666667 1003.33333333 1810 1020 c 1
 1843 1182 l 2
 1853.66666667 1242 1890.83333333 1291.5 1954.5 1330.5 c 128
 2018.16666667 1369.5 2089 1389 2167 1389 c 2
 2355 1389 l 2
 2434.33333333 1389 2492.16666667 1367.5 2528.5 1324.5 c 128
 2564.83333333 1281.5 2583 1237.33333333 2583 1192 c 0
 2583 1182.66666667 2581.33333333 1167 2578 1145 c 1
 2546 993 l 1
2269 1008 m 2
 2288 1102 l 2
 2289.33333333 1107.33333333 2290 1113 2290 1119 c 128
 2290 1128 2290 1128 2290 1130 c 0
 2290 1149.33333333 2281.66666667 1159 2265 1159 c 2
 2177 1159 l 2
 2155 1159 2137.5 1152.83333333 2124.5 1140.5 c 128
 2111.5 1128.16666667 2104.33333333 1114.66666667 2103 1100 c 1
 2089 1034 l 2
 2082.33333333 1002.66666667 2089.66666667 969.333333333 2111 934 c 1
 2200 934 l 2
 2215.33333333 934 2230 941.5 2244 956.5 c 128
 2258 971.5 2266.33333333 988.666666667 2269 1008 c 2
EndSplineSet
EndChar

StartChar: ivowel
Encoding: 105 3207 105
Width: 1687
Flags: HW
LayerCount: 2
Fore
SplineSet
1767 0 m 1
 1599 0 l 2
 1525 0 1463 22.6666666667 1413 68 c 1
 1379 106 1362 147.666666667 1362 193 c 0
 1362 202.333333333 1363.33333333 216.666666667 1366 236 c 2
 1389 350 l 1
 1174 350 l 2
 1104.66666667 350 1050.66666667 370 1012 410 c 1
 992.666666667 422 979.333333333 436.833333333 972 454.5 c 128
 964.666666667 472.166666667 961 491.333333333 961 512 c 0
 961 527.333333333 961.666666667 538.333333333 963 545 c 2
 993 690 l 1
 999.666666667 735.333333333 1030.33333333 773.666666667 1085 805 c 1
 1138.33333333 831 1197.33333333 844 1262 844 c 2
 1513 844 l 2
 1557 844 1594 831.666666667 1624 807 c 1
 1655 778 l 1
 1716 1083 l 1
 1721.33333333 1102.33333333 1716.16666667 1118.5 1700.5 1131.5 c 128
 1684.83333333 1144.5 1658 1151 1620 1151 c 2
 1460 1151 l 2
 1435.33333333 1151 1417.66666667 1149.66666667 1407 1147 c 128
 1396.33333333 1144.33333333 1380.66666667 1136.5 1360 1123.5 c 128
 1339.33333333 1110.5 1326.33333333 1091.66666667 1321 1067 c 2
 1288 909 l 1
 1014 909 l 1
 1044 1057 l 2
 1049.33333333 1081.66666667 1042.5 1103.5 1023.5 1122.5 c 128
 1004.5 1141.5 976 1151 938 1151 c 2
 743 1151 l 2
 711.666666667 1151 684.833333333 1143.16666667 662.5 1127.5 c 128
 640.166666667 1111.83333333 626.333333333 1091.66666667 621 1067 c 2
 590 936 l 1
 590 902 595.333333333 881.333333333 606 874 c 1
 616.666666667 854.666666667 631.666666667 845.333333333 651 846 c 2
 723 846 l 1
 672 614 l 1
 547 616 l 2
 463.666666667 616 400 643.333333333 356 698 c 1
 320.666666667 736 303 782.666666667 303 838 c 0
 303 847.333333333 304.333333333 865 307 891 c 1
 350 1094 l 2
 362 1151.33333333 387.166666667 1201.83333333 425.5 1245.5 c 128
 463.833333333 1289.16666667 511 1321.66666667 567 1343 c 1
 617.666666667 1367.66666667 673 1380 733 1380 c 2
 1014 1380 l 2
 1079.33333333 1380 1129 1367 1163 1341 c 1
 1187.66666667 1329 1208.33333333 1307.33333333 1225 1276 c 1
 1230.33333333 1282.66666667 1240.16666667 1293.16666667 1254.5 1307.5 c 128
 1268.83333333 1321.83333333 1285.66666667 1332.33333333 1305 1339 c 1
 1349 1367.66666667 1397.33333333 1382 1450 1382 c 2
 1716 1382 l 2
 1817.33333333 1382 1891.66666667 1354.66666667 1939 1300 c 1
 1979.66666667 1259.33333333 2000.33333333 1209 2001 1149 c 0
 2001 1129.66666667 1998.33333333 1109 1993 1087 c 2
 1921 748 l 2
 1895 628 1812.33333333 514 1673 406 c 1
 1645 276 l 2
 1642.33333333 260.666666667 1643.66666667 250 1649 244 c 1
 1665.66666667 233.333333333 1676.33333333 227.666666667 1681 227 c 2
 1810 227 l 1
 1767 0 l 1
1430 580 m 1
 1432 588 l 2
 1437.33333333 608.666666667 1427 618.666666667 1401 618 c 2
 1268 618 l 2
 1261.33333333 618 1256.33333333 617.333333333 1253 616 c 1
 1249 602 l 1
 1249 592 l 1
 1250.33333333 589.333333333 1252.5 587.333333333 1255.5 586 c 128
 1258.5 584.666666667 1260.66666667 584 1262 584 c 2
 1430 580 l 1
EndSplineSet
EndChar

StartChar: iivowel
Encoding: 106 3208 106
Width: 2623
Flags: HW
LayerCount: 2
Fore
SplineSet
2886 827 m 1
 2875.33333333 769.666666667 2841 712.333333333 2783 655 c 1
 2732.33333333 609.666666667 2673.66666667 574.333333333 2607 549 c 1
 2689 433 2726.66666667 355 2720 315 c 1
 2691 178 l 2
 2685.66666667 153.333333333 2677.83333333 132.5 2667.5 115.5 c 128
 2657.16666667 98.5 2641.66666667 79.6666666667 2621 59 c 1
 2580.33333333 23.6666666667 2539.66666667 6 2499 6 c 2
 1997 6 l 1
 2044 238 l 1
 2372 238 l 2
 2382.66666667 238 2395.5 244.333333333 2410.5 257 c 128
 2425.5 269.666666667 2433.66666667 279.666666667 2435 287 c 2
 2437 297 l 2
 2442.33333333 325.666666667 2430 353 2400 379 c 1
 2292 518 l 1
 1851 518 l 1
 1804 285 l 2
 1787.33333333 208.333333333 1743 142.666666667 1671 88 c 1
 1603 30.6666666667 1527.33333333 2 1444 2 c 2
 709 4 l 2
 636.333333333 4 580.333333333 28.6666666667 541 78 c 1
 509.666666667 112 494 154.333333333 494 205 c 0
 494 215.666666667 495.333333333 232 498 254 c 1
 551 514 l 1
 319 514 l 1
 371 745 l 1
 602 745 l 1
 633 903 l 1
 652.333333333 990.333333333 715.666666667 1077.66666667 823 1165 c 1
 662 1165 l 1
 709 1397 l 1
 1786 1397 l 2
 1808 1397 1826.16666667 1404.5 1840.5 1419.5 c 128
 1854.83333333 1434.5 1862.66666667 1447.33333333 1864 1458 c 2
 1888 1587 l 1
 2169 1587 l 1
 2144 1458 l 1
 2127.33333333 1381.33333333 2085.66666667 1316.66666667 2019 1264 c 1
 1973.66666667 1218.66666667 1916.33333333 1186.33333333 1847 1167 c 1
 1881 1138.33333333 1908.33333333 1106 1929 1070 c 128
 1949.66666667 1034 1957.33333333 996.666666667 1952 958 c 1
 1907 743 l 1
 2140 743 l 1
 2128 767.666666667 2122 798 2122 834 c 0
 2122 856 2123.33333333 873 2126 885 c 2
 2157 1032 l 2
 2172.33333333 1101.33333333 2209.66666667 1160 2269 1208 c 1
 2323.66666667 1256 2388 1280 2462 1280 c 2
 2707 1280 l 2
 2785 1280 2843.33333333 1254.66666667 2882 1204 c 1
 2916 1166 2933 1122.33333333 2933 1073 c 0
 2933 1048.33333333 2931.66666667 1030 2929 1018 c 2
 2886 827 l 1
2613 846 m 1
 2644 993 l 2
 2645.33333333 999.666666667 2644.33333333 1007.16666667 2641 1015.5 c 128
 2637.66666667 1023.83333333 2634.33333333 1031.16666667 2631 1037.5 c 128
 2627.66666667 1043.83333333 2617.66666667 1047 2601 1047 c 2
 2486 1047 l 2
 2466.66666667 1047 2454.33333333 1043.33333333 2449 1036 c 2
 2427 1004 l 1
 2394 848 l 1
 2392.66666667 828.666666667 2396.66666667 811 2406 795 c 1
 2488 737 l 1
 2512.66666667 742.333333333 2536 753.333333333 2558 770 c 0
 2588 794.666666667 2606.33333333 820 2613 846 c 1
1624 745 m 1
 1671 971 l 2
 1672.33333333 977.666666667 1673 984.833333333 1673 992.5 c 128
 1673 1004 1673 1004 1673 1008 c 0
 1673 1072 1641.66666667 1123.66666667 1579 1163 c 1
 1133 1163 l 1
 1003 1086.33333333 928.333333333 1001.66666667 909 909 c 2
 872 741 l 1
 1624 745 l 1
1542 358 m 1
 1573 510 l 1
 823 510 l 1
 786 330 l 2
 780.666666667 305.333333333 785.666666667 280.666666667 801 256 c 1
 817.666666667 235.333333333 836 225 856 225 c 2
 1382 225 l 2
 1397.33333333 225 1412.16666667 228.166666667 1426.5 234.5 c 128
 1440.83333333 240.833333333 1456.33333333 249.333333333 1473 260 c 1
 1508.33333333 290 1531.33333333 322.666666667 1542 358 c 1
EndSplineSet
EndChar

StartChar: uvowel
Encoding: 107 3209 107
Width: 3143
Flags: HW
LayerCount: 2
Fore
SplineSet
3301 311 m 2
 3290.33333333 257.666666667 3265.5 205.833333333 3226.5 155.5 c 128
 3187.5 105.166666667 3140 66.6666666667 3084 40 c 128
 3028 13.3333333333 2975.66666667 0 2927 0 c 2
 2525 0 l 2
 2495 0 2465.66666667 3.83333333333 2437 11.5 c 128
 2408.33333333 19.1666666667 2381.66666667 29 2357 41 c 128
 2332.33333333 53 2312.5 68 2297.5 86 c 128
 2282.5 104 2267.66666667 126 2253 152 c 1
 2241 183.333333333 2234.66666667 218 2234 256 c 0
 2234 266.666666667 2235.33333333 283 2238 305 c 1
 2404 1090 l 2
 2406.66666667 1100.66666667 2403.33333333 1117 2394 1139 c 1
 2378.66666667 1149.66666667 2359 1155 2335 1155 c 2
 1952 1155 l 2
 1926 1155 1906.66666667 1150.33333333 1894 1141 c 1
 1878.66666667 1125.66666667 1868.66666667 1107.66666667 1864 1087 c 2
 1696 287 l 2
 1690.66666667 258.333333333 1682.5 234 1671.5 214 c 128
 1660.5 194 1642.66666667 169 1618 139 c 0
 1582.66666667 98.3333333333 1533.5 64.3333333333 1470.5 37 c 128
 1407.5 9.66666666667 1347.33333333 -4 1290 -4 c 2
 760 -2 l 2
 662 -2 582.666666667 29.3333333333 522 92 c 0
 481.333333333 132.666666667 461 185.333333333 461 250 c 0
 461 274.666666667 463.666666667 300 469 326 c 2
 625 1071 l 1
 640.333333333 1131 662.666666667 1185 692 1233 c 1
 736 1286.33333333 786.666666667 1325.16666667 844 1349.5 c 128
 901.333333333 1373.83333333 953.666666667 1386 1001 1386 c 2
 1464 1386 l 1
 1376 977 l 1
 1370.66666667 943 1357.16666667 908.833333333 1335.5 874.5 c 128
 1313.83333333 840.166666667 1287.66666667 808.666666667 1257 780 c 1
 1189 722.666666667 1118 694 1044 694 c 2
 864 694 l 1
 915 926 l 1
 1034 926 l 2
 1039.33333333 926 1045.83333333 927.666666667 1053.5 931 c 128
 1061.16666667 934.333333333 1067.66666667 937.333333333 1073 940 c 0
 1085 949.333333333 1092.66666667 960.333333333 1096 973 c 2
 1135 1149 l 1
 1006 1149 l 2
 974.666666667 1149 949 1140.16666667 929 1122.5 c 128
 909 1104.83333333 897.666666667 1085.66666667 895 1065 c 1
 737 319 l 2
 731.666666667 297 737.5 274.833333333 754.5 252.5 c 128
 771.5 230.166666667 794.333333333 219 823 219 c 2
 1321 219 l 2
 1347 219 1367.33333333 227.333333333 1382 244 c 1
 1406.66666667 264.666666667 1420.33333333 285 1423 305 c 1
 1585 1081 l 2
 1595.66666667 1130.33333333 1610 1170.66666667 1628 1202 c 128
 1646 1233.33333333 1674 1263.33333333 1712 1292 c 1
 1781.33333333 1350.66666667 1858 1380 1942 1380 c 2
 2410 1380 l 2
 2470 1380 2522.33333333 1368.16666667 2567 1344.5 c 128
 2611.66666667 1320.83333333 2644 1286.33333333 2664 1241 c 0
 2676 1212.33333333 2682.33333333 1180.33333333 2683 1145 c 0
 2683 1134.33333333 2681.66666667 1118 2679 1096 c 1
 2517 322 l 2
 2510.33333333 293.333333333 2514.83333333 269 2530.5 249 c 128
 2546.16666667 229 2565 219 2587 219 c 2
 2920 219 l 2
 2946 219 2966.66666667 227.333333333 2982 244 c 1
 2992.66666667 253.333333333 3001.16666667 262.833333333 3007.5 272.5 c 128
 3013.83333333 282.166666667 3018.33333333 293 3021 305 c 2
 3181 1065 l 1
 3182.33333333 1080.33333333 3176.83333333 1094 3164.5 1106 c 128
 3152.16666667 1118 3133.66666667 1124 3109 1124 c 2
 3047 1124 l 1
 3101 1382 l 1
 3248 1382 l 2
 3327.33333333 1382 3386 1357 3424 1307 c 1
 3454 1271.66666667 3469 1228.66666667 3469 1178 c 0
 3469 1168.66666667 3467.66666667 1150.66666667 3465 1124 c 1
 3301 311 l 2
EndSplineSet
EndChar

StartChar: uuvowel
Encoding: 108 3210 108
Width: 3768
Flags: HW
LayerCount: 2
Fore
SplineSet
3918 295 m 1
 3898.66666667 211.666666667 3855.66666667 144.666666667 3789 94 c 1
 3716.33333333 34 3643.33333333 4 3570 4 c 2
 3451 4 l 2
 3378.33333333 4 3317.66666667 30.6666666667 3269 84 c 1
 3237.66666667 120.666666667 3222 161.666666667 3222 207 c 0
 3222 226.333333333 3224.66666667 246 3230 266 c 2
 3273 475 l 1
 3549 475 l 1
 3506 266 l 2
 3503.33333333 254 3503.33333333 246.666666667 3506 244 c 0
 3507.33333333 241.333333333 3515.66666667 239.333333333 3531 238 c 1
 3602 238 l 1
 3612.66666667 243.333333333 3619 247.333333333 3621 250 c 2
 3637 287 l 1
 3799 1057 l 2
 3800.33333333 1063.66666667 3801 1073 3801 1085 c 0
 3801 1103 3795.5 1120.5 3784.5 1137.5 c 128
 3773.5 1154.5 3755 1163 3729 1163 c 2
 3439 1163 l 2
 3401 1163 3368.16666667 1152.16666667 3340.5 1130.5 c 128
 3312.83333333 1108.83333333 3296.33333333 1083 3291 1053 c 2
 3140 334 l 2
 3133.33333333 305.333333333 3124.5 278.666666667 3113.5 254 c 128
 3102.5 229.333333333 3086 201.333333333 3064 170 c 1
 3047.33333333 150.666666667 3033 133.666666667 3021 119 c 0
 2995 90.3333333333 2965 67.6666666667 2931 51 c 0
 2871 19.6666666667 2814.33333333 4 2761 4 c 2
 2335 4 l 2
 2253 4 2188 36 2140 100 c 1
 2112.66666667 139.333333333 2099 186.666666667 2099 242 c 0
 2099 266.666666667 2101.66666667 293.333333333 2107 322 c 2
 2267 1081 l 2
 2272.33333333 1107 2267.5 1127.5 2252.5 1142.5 c 128
 2237.5 1157.5 2217 1165 2191 1165 c 2
 1896 1165 l 2
 1866 1165 1840.83333333 1155.5 1820.5 1136.5 c 128
 1800.16666667 1117.5 1787.33333333 1095.66666667 1782 1071 c 2
 1630 346 l 2
 1609.33333333 252 1556 171.166666667 1470 103.5 c 128
 1384 35.8333333333 1292 2 1194 2 c 2
 803 4 l 2
 697.666666667 4 609 35.3333333333 537 98 c 1
 491.666666667 143.333333333 469 198 469 262 c 0
 469 282.666666667 471.666666667 306 477 332 c 2
 637 1094 l 1
 647.666666667 1138 664 1177.33333333 686 1212 c 128
 708 1246.66666667 739.333333333 1278.33333333 780 1307 c 0
 858 1364.33333333 947.666666667 1393 1049 1393 c 2
 1473 1393 l 1
 1393 1022 l 2
 1376.33333333 944 1331 876.333333333 1257 819 c 1
 1190.33333333 760.333333333 1113.33333333 731 1026 731 c 2
 907 731 l 1
 958 963 l 1
 1049 963 l 2
 1055.66666667 963 1062.66666667 964.666666667 1070 968 c 128
 1077.33333333 971.333333333 1082.33333333 973.666666667 1085 975 c 0
 1097 984.333333333 1104.66666667 995.333333333 1108 1008 c 2
 1141 1159 l 1
 1026 1159 l 2
 994.666666667 1159 967.333333333 1150.5 944 1133.5 c 128
 920.666666667 1116.5 906.333333333 1097 901 1075 c 2
 748 342 l 2
 742.666666667 310.666666667 750.166666667 284 770.5 262 c 128
 790.833333333 240 820 229 858 229 c 2
 1227 229 l 2
 1247.66666667 229 1273 239.333333333 1303 260 c 1
 1327.66666667 284.666666667 1342.66666667 312 1348 342 c 2
 1501 1075 l 1
 1516.33333333 1137.66666667 1544.33333333 1191.66666667 1585 1237 c 0
 1607 1263 1630 1284.83333333 1654 1302.5 c 128
 1678 1320.16666667 1705.66666667 1335.33333333 1737 1348 c 0
 1799.66666667 1374 1860.33333333 1386.66666667 1919 1386 c 2
 2243 1386 l 2
 2307 1386 2364.16666667 1372.83333333 2414.5 1346.5 c 128
 2464.83333333 1320.16666667 2499 1285.16666667 2517 1241.5 c 128
 2535 1197.83333333 2544 1158 2544 1122 c 0
 2544 1111.33333333 2542.66666667 1095 2540 1073 c 1
 2380 313 l 2
 2374.66666667 291 2376.66666667 272 2386 256 c 1
 2402.66666667 236.666666667 2423.66666667 227 2449 227 c 2
 2724 227 l 2
 2739.33333333 227 2754.33333333 229.833333333 2769 235.5 c 128
 2783.66666667 241.166666667 2797.33333333 248 2810 256 c 1
 2829.33333333 275.333333333 2842 290 2848 300 c 128
 2854 310 2858.33333333 322.666666667 2861 338 c 2
 3009 1044 l 1
 3024.33333333 1108 3050.66666667 1165.66666667 3088 1217 c 1
 3110 1243 3133.66666667 1266.16666667 3159 1286.5 c 128
 3184.33333333 1306.83333333 3212 1324.33333333 3242 1339 c 0
 3302 1367.66666667 3364 1382 3428 1382 c 2
 3768 1382 l 2
 3834.66666667 1382 3893.33333333 1367.66666667 3944 1339 c 128
 3994.66666667 1310.33333333 4030.33333333 1268.66666667 4051 1214 c 0
 4057.66666667 1198.66666667 4062.66666667 1180.83333333 4066 1160.5 c 128
 4069.33333333 1140.16666667 4071 1120 4071 1100 c 0
 4071 1075.33333333 4069.66666667 1056.66666667 4067 1044 c 2
 3918 295 l 1
EndSplineSet
EndChar

StartChar: rvocalicvowel.part
Encoding: 110 -1 110
Width: 2152
Flags: HW
LayerCount: 2
Fore
SplineSet
2298 311 m 2
 2288.66666667 265.666666667 2275.33333333 227.5 2258 196.5 c 128
 2240.66666667 165.5 2217 132.666666667 2187 98 c 1
 2123 34 2059 2 1995 2 c 2
 1556 2 l 2
 1497.33333333 2 1440.66666667 17 1386 47 c 0
 1346.66666667 67.6666666667 1316.66666667 97.6666666667 1296 137 c 1
 1266 101.666666667 1235.33333333 73 1204 51 c 1
 1154.66666667 19.6666666667 1112.33333333 4 1077 4 c 2
 575 6 l 2
 502.333333333 6 448.666666667 25.8333333333 414 65.5 c 128
 379.333333333 105.166666667 362 146.666666667 362 190 c 0
 362 196.666666667 363.666666667 209.666666667 367 229 c 2
 446 612 l 1
 821 612 l 2
 904.333333333 612 965.333333333 592.333333333 1004 553 c 1
 1044.66666667 517.666666667 1065 478 1065 434 c 0
 1065 427.333333333 1063.66666667 414.333333333 1061 395 c 2
 1036 279 l 1
 760 279 l 1
 778 369 l 2
 779.333333333 379.666666667 769.333333333 385 748 385 c 2
 680 385 l 1
 662 299 l 1
 662 282.333333333 665.333333333 268 672 256 c 1
 684 244 698.333333333 238 715 238 c 2
 1032 238 l 2
 1051.33333333 238 1068.83333333 240.666666667 1084.5 246 c 128
 1100.16666667 251.333333333 1115.33333333 258 1130 266 c 0
 1156 281.333333333 1172 300 1178 322 c 2
 1346 1114 l 1
 1347.33333333 1130.66666667 1340 1144 1324 1154 c 128
 1308 1164 1283 1169 1249 1169 c 2
 938 1169 l 2
 910.666666667 1169 886 1163.66666667 864 1153 c 1
 852 1151.66666667 844.666666667 1143.33333333 842 1128 c 2
 813 997 l 1
 881 997 l 2
 896.333333333 997 911.333333333 1003.16666667 926 1015.5 c 128
 940.666666667 1027.83333333 949.333333333 1041.66666667 952 1057 c 2
 969 1133 l 1
 1245 1133 l 1
 1229 1044 l 1
 1212.33333333 970 1171.66666667 904.5 1107 847.5 c 128
 1042.33333333 790.5 973.666666667 762 901 762 c 2
 481 762 l 1
 565 1165 l 2
 570.333333333 1195 583.333333333 1225 604 1255 c 128
 624.666666667 1285 650.666666667 1312.33333333 682 1337 c 1
 748.666666667 1377.66666667 820.333333333 1398.33333333 897 1399 c 2
 1370 1399 l 2
 1456 1399 1523.66666667 1373.66666667 1573 1323 c 1
 1612.33333333 1277.66666667 1632 1228.66666667 1632 1176 c 0
 1632 1166.66666667 1630.66666667 1150.66666667 1628 1128 c 1
 1468 381 l 1
 1480 337 1502.16666667 301.333333333 1534.5 274 c 128
 1566.83333333 246.666666667 1598.66666667 233 1630 233 c 2
 1907 233 l 2
 1919 233 1930.5 235.833333333 1941.5 241.5 c 128
 1952.5 247.166666667 1964 255.333333333 1976 266 c 0
 2002 288 2017.66666667 314.666666667 2023 346 c 2
 2169 1028 l 2
 2170.33333333 1034.66666667 2171 1044.33333333 2171 1057 c 0
 2171 1083 2162.16666667 1107.16666667 2144.5 1129.5 c 128
 2126.83333333 1151.83333333 2099.33333333 1163 2062 1163 c 2
 1731 1163 l 1
 1778 1395 l 1
 2138 1395 l 2
 2150 1395 2162.16666667 1397.66666667 2174.5 1403 c 128
 2186.83333333 1408.33333333 2201.33333333 1416.33333333 2218 1427 c 1
 2246.66666667 1453 2263.66666667 1480.33333333 2269 1509 c 2
 2294 1638 l 1
 2570 1638 l 1
 2540 1481 l 2
 2529.33333333 1427.66666667 2504.66666667 1381.66666667 2466 1343 c 1
 2437.33333333 1307.66666667 2406 1282 2372 1266 c 1
 2398 1246.66666667 2417.33333333 1222 2430 1192 c 128
 2442.66666667 1162 2449 1132.66666667 2449 1104 c 0
 2449 1079.33333333 2447.66666667 1061.66666667 2445 1051 c 2
 2298 311 l 2
EndSplineSet
EndChar

StartChar: lvocalicvowel.part
Encoding: 112 -1 112
Width: 1687
Flags: HW
LayerCount: 2
Fore
SplineSet
2167 444 m 1
 1829 119 l 1
 1804.33333333 90.3333333333 1779.66666667 68.1666666667 1755 52.5 c 128
 1730.33333333 36.8333333333 1709.16666667 27.1666666667 1691.5 23.5 c 128
 1673.83333333 19.8333333333 1656.66666667 18 1640 18 c 0
 1600.66666667 18 1557.16666667 26 1509.5 42 c 128
 1461.83333333 58 1423 81 1393 111 c 0
 1377.66666667 127.666666667 1362.66666667 146 1348 166 c 0
 1323.33333333 200 1311 234.666666667 1311 270 c 0
 1311 276.666666667 1312.33333333 288.666666667 1315 306 c 128
 1317.66666667 323.333333333 1371.66666667 394 1477 518 c 0
 1511 557.333333333 1562.66666667 618 1632 700 c 1
 1667.33333333 762.666666667 1693.33333333 846.666666667 1710 952 c 0
 1715.33333333 986 1719.33333333 1032.66666667 1722 1092 c 1
 1727.33333333 1111.33333333 1722.16666667 1127.33333333 1706.5 1140 c 128
 1690.83333333 1152.66666667 1664 1159 1626 1159 c 2
 1466 1159 l 2
 1441.33333333 1159 1423.66666667 1157.66666667 1413 1155 c 128
 1402.33333333 1152.33333333 1386.66666667 1144.5 1366 1131.5 c 128
 1345.33333333 1118.5 1332.33333333 1099.66666667 1327 1075 c 2
 1294 918 l 1
 1020 918 l 1
 1051 1065 l 2
 1056.33333333 1089.66666667 1049.33333333 1111.5 1030 1130.5 c 128
 1010.66666667 1149.5 982 1159 944 1159 c 2
 750 1159 l 2
 718.666666667 1159 691.666666667 1151.16666667 669 1135.5 c 128
 646.333333333 1119.83333333 632.333333333 1099.66666667 627 1075 c 2
 596 944 l 1
 596 910 601.333333333 889.666666667 612 883 c 1
 622.666666667 863.666666667 637.666666667 854 657 854 c 2
 729 854 l 1
 678 623 l 1
 553 625 l 2
 469.666666667 625 406 652.333333333 362 707 c 1
 326.666666667 745 309 791.333333333 309 846 c 0
 309 855.333333333 310.333333333 873 313 899 c 1
 356 1102 l 2
 368 1159.33333333 393.166666667 1209.83333333 431.5 1253.5 c 128
 469.833333333 1297.16666667 517 1330 573 1352 c 1
 623.666666667 1376.66666667 679 1389 739 1389 c 2
 1020 1389 l 2
 1085.33333333 1389 1135 1376 1169 1350 c 1
 1193.66666667 1338 1214.33333333 1316 1231 1284 c 1
 1236.33333333 1290.66666667 1246.16666667 1301.16666667 1260.5 1315.5 c 128
 1274.83333333 1329.83333333 1291.66666667 1340.66666667 1311 1348 c 1
 1355 1376.66666667 1403.33333333 1391 1456 1391 c 2
 1722 1391 l 2
 1823.33333333 1391 1898 1363.66666667 1946 1309 c 1
 1986.66666667 1268.33333333 2007 1217.66666667 2007 1157 c 0
 2007 1137.66666667 2004.33333333 1117.33333333 1999 1096 c 2
 1927 756 l 2
 1917.66666667 712 1898 669.666666667 1868 629 c 0
 1857.33333333 613.666666667 1791.66666667 541.333333333 1671 412 c 0
 1642 383 1642 383 1632 373 c 0
 1603.33333333 344.333333333 1588.33333333 326.333333333 1587 319 c 0
 1584.33333333 294.333333333 1591.33333333 278.666666667 1608 272 c 1
 1617.33333333 265.333333333 1631.83333333 264.833333333 1651.5 270.5 c 128
 1671.16666667 276.166666667 1684.66666667 283.666666667 1692 293 c 1
 1980 584 l 1
 2167 444 l 1
EndSplineSet
EndChar

StartChar: evowel
Encoding: 113 3214 113
Width: 2039
Flags: HW
LayerCount: 2
Fore
SplineSet
2193 311 m 2
 2176.33333333 225 2133 151.666666667 2063 91 c 128
 1993 30.3333333333 1919.66666667 0 1843 0 c 2
 1397 2 l 2
 1342.33333333 2 1295.66666667 16.3333333333 1257 45 c 1
 1236.33333333 57 1221.33333333 74 1212 96 c 1
 1192.66666667 74 1171 55.6666666667 1147 41 c 0
 1101.66666667 12.3333333333 1057.33333333 -2 1014 -2 c 2
 674 0 l 2
 580 0 505.666666667 27.3333333333 451 82 c 1
 411.666666667 126 391.666666667 176.333333333 391 233 c 0
 391 243.666666667 392.333333333 262.333333333 395 289 c 1
 514 850 l 1
 887 850 l 2
 931 850 970 834.333333333 1004 803 c 128
 1038 771.666666667 1060.33333333 736.833333333 1071 698.5 c 128
 1081.66666667 660.166666667 1087.83333333 621.833333333 1089.5 583.5 c 128
 1091.16666667 545.166666667 1092 515.333333333 1092 494 c 1
 823 426 l 1
 823 488.666666667 813 539.333333333 793 578 c 0
 783.666666667 598.666666667 765.666666667 611.333333333 739 616 c 1
 680 346 l 1
 678.666666667 316 685.333333333 288.666666667 700 264 c 1
 720.666666667 242 746.666666667 231 778 231 c 2
 1001 231 l 2
 1029.66666667 231 1056.33333333 241.333333333 1081 262 c 0
 1087.66666667 268.666666667 1097.16666667 279.5 1109.5 294.5 c 128
 1121.83333333 309.5 1129.66666667 325.333333333 1133 342 c 2
 1163 500 l 1
 1444 500 l 1
 1415 360 l 2
 1413.66666667 354.666666667 1413 349 1413 343 c 128
 1413 334 1413 334 1413 332 c 0
 1413 312.666666667 1420.66666667 293.333333333 1436 274 c 1
 1460.66666667 246.666666667 1490.66666667 233 1526 233 c 2
 1772 233 l 2
 1806 233 1838 246.333333333 1868 273 c 128
 1898 299.666666667 1916.33333333 330.333333333 1923 365 c 2
 2060 1014 l 2
 2062.66666667 1029.33333333 2064 1041.66666667 2064 1051 c 0
 2064 1077 2053.16666667 1102.16666667 2031.5 1126.5 c 128
 2009.83333333 1150.83333333 1975 1163 1927 1163 c 2
 1712 1163 l 1
 1759 1395 l 1
 2003 1395 l 2
 2078.33333333 1395 2142.33333333 1380 2195 1350 c 1
 2253.66666667 1320 2295.33333333 1277.66666667 2320 1223 c 0
 2336.66666667 1185 2345 1146.66666667 2345 1108 c 0
 2345 1087.33333333 2342.33333333 1066 2337 1044 c 2
 2193 311 l 2
EndSplineSet
EndChar

StartChar: eevowel
Encoding: 114 3215 114
Width: 2033
Flags: HW
LayerCount: 2
Fore
SplineSet
2193 340 m 1
 2182.33333333 281.333333333 2151.66666667 223.333333333 2101 166 c 1
 2079 138.666666667 2048.33333333 110.666666667 2009 82 c 0
 1992.33333333 70 1969 57.8333333333 1939 45.5 c 128
 1909 33.1666666667 1874.66666667 22.1666666667 1836 12.5 c 128
 1797.33333333 2.83333333333 1758 -2 1718 -2 c 2
 1403 6 l 2
 1353.66666667 6 1310 20.3333333333 1272 49 c 1
 1247.33333333 73.6666666667 1232.33333333 101 1227 131 c 1
 1149 46.3333333333 1061.66666667 4 965 4 c 2
 702 4 l 2
 599.333333333 4 519 35.3333333333 461 98 c 1
 415.666666667 143.333333333 393 197.333333333 393 260 c 0
 393 279.333333333 395.666666667 300 401 322 c 2
 516 856 l 1
 887 856 l 2
 931 856 967.833333333 841.666666667 997.5 813 c 128
 1027.16666667 784.333333333 1052.33333333 743.333333333 1073 690 c 1
 1088.33333333 642 1096 578.666666667 1096 500 c 1
 819 434 l 1
 819 472 817.333333333 502 814 524 c 128
 810.666666667 546 803 565.333333333 791 582 c 1
 780.333333333 602.666666667 763.666666667 615.666666667 741 621 c 1
 682 350 l 1
 682 318.666666667 689.666666667 292 705 270 c 1
 725.666666667 245.333333333 751.333333333 233 782 233 c 2
 1001 233 l 2
 1020.33333333 233 1039.66666667 237.333333333 1059 246 c 0
 1061.66666667 247.333333333 1068.16666667 252.333333333 1078.5 261 c 128
 1088.83333333 269.666666667 1100 281.5 1112 296.5 c 128
 1124 311.5 1131.66666667 327.333333333 1135 344 c 2
 1165 502 l 1
 1446 502 l 1
 1417 362 l 2
 1415.66666667 355.333333333 1415 344.666666667 1415 330 c 0
 1415 310.666666667 1420.66666667 290.666666667 1432 270 c 1
 1454 244 1482.66666667 231 1518 231 c 2
 1772 231 l 2
 1802 231 1832 244 1862 270 c 0
 1878.66666667 285.333333333 1892 300.166666667 1902 314.5 c 128
 1912 328.833333333 1918.33333333 345.666666667 1921 365 c 2
 2058 1014 l 2
 2060.66666667 1029.33333333 2062 1040.33333333 2062 1047 c 0
 2062 1075.66666667 2052 1100 2032 1120 c 1
 2010 1148.66666667 1973.66666667 1163 1923 1163 c 2
 1726 1163 l 1
 1716 1120 l 1
 1704 1061.33333333 1666.16666667 1013.66666667 1602.5 977 c 128
 1538.83333333 940.333333333 1472.33333333 922 1403 922 c 2
 1128 922 l 2
 1048.66666667 922 982 947 928 997 c 1
 888.666666667 1041 868.666666667 1088.33333333 868 1139 c 0
 868 1145.66666667 869.333333333 1160 872 1182 c 1
 918 1391 l 1
 1194 1391 l 1
 1155 1210 l 2
 1153.66666667 1198 1157.66666667 1183.66666667 1167 1167 c 1
 1182.33333333 1156.33333333 1196 1151 1208 1151 c 2
 1397 1151 l 2
 1407.66666667 1151 1420.5 1158.5 1435.5 1173.5 c 128
 1450.5 1188.5 1460.66666667 1207 1466 1229 c 2
 1499 1391 l 1
 2001 1391 l 2
 2080.33333333 1391 2146.66666667 1376 2200 1346 c 1
 2260 1316 2300.66666667 1273.66666667 2322 1219 c 1
 2341.33333333 1181 2351 1142.66666667 2351 1104 c 0
 2351 1083.33333333 2348.33333333 1062 2343 1040 c 2
 2193 340 l 1
EndSplineSet
EndChar

StartChar: aivowel
Encoding: 115 3216 115
Width: 2158
Flags: HW
LayerCount: 2
Fore
SplineSet
2304 315 m 1
 2287.33333333 227.666666667 2238.16666667 152.666666667 2156.5 90 c 128
 2074.83333333 27.3333333333 1980.66666667 -4 1874 -4 c 1
 1563 4 l 1
 1499 4 1446.33333333 18.3333333333 1405 47 c 128
 1363.66666667 75.6666666667 1335 107.666666667 1319 143 c 1
 1293 117 1273.5 99 1260.5 89 c 128
 1247.5 79 1228 66.3333333333 1202 51 c 0
 1147.33333333 19.6666666667 1095.66666667 4 1047 4 c 2
 678 6 l 2
 584 6 509.666666667 33.3333333333 455 88 c 1
 415.666666667 132 395.666666667 182.666666667 395 240 c 0
 395 250.666666667 396.333333333 269 399 295 c 1
 461 592 l 2
 481.666666667 684.666666667 530.666666667 759.666666667 608 817 c 1
 643.333333333 845.666666667 684.333333333 867.833333333 731 883.5 c 128
 777.666666667 899.166666667 823.333333333 907 868 907 c 2
 1300 907 l 1
 1235 604 l 2
 1218.33333333 522 1170.66666667 451.666666667 1092 393 c 1
 1048 357.666666667 1005.16666667 332.166666667 963.5 316.5 c 128
 921.833333333 300.833333333 872.333333333 293 815 293 c 1
 791 518 l 1
 822.333333333 518 845.5 520.333333333 860.5 525 c 128
 875.5 529.666666667 892.333333333 538.333333333 911 551 c 0
 941 570.333333333 956.666666667 590 958 610 c 1
 973 670 l 1
 893 670 l 2
 847.666666667 670 811.333333333 660 784 640 c 128
 756.666666667 620 740.333333333 597.666666667 735 573 c 2
 688 369 l 1
 682.666666667 331 688.833333333 297.5 706.5 268.5 c 128
 724.166666667 239.5 750 225 784 225 c 2
 1036 225 l 2
 1080 225 1121.83333333 239.666666667 1161.5 269 c 128
 1201.16666667 298.333333333 1224.33333333 331 1231 367 c 2
 1253 467 l 1
 1534 467 l 1
 1511 367 l 2
 1509.66666667 360.333333333 1509 351.333333333 1509 340 c 0
 1509 315.333333333 1517.33333333 292 1534 270 c 1
 1560 241.333333333 1592 227 1630 227 c 2
 1913 227 l 2
 1925 227 1937.5 230.833333333 1950.5 238.5 c 128
 1963.5 246.166666667 1976.33333333 255.333333333 1989 266 c 0
 2019 296 2037.33333333 330.333333333 2044 369 c 2
 2189 1047 l 2
 2191.66666667 1063.66666667 2191.66666667 1077.33333333 2189 1088 c 128
 2186.33333333 1098.66666667 2180.33333333 1112.5 2171 1129.5 c 128
 2161.66666667 1146.5 2139 1155 2103 1155 c 2
 1851 1155 l 2
 1825 1155 1800 1146.66666667 1776 1130 c 1
 1759.33333333 1113.33333333 1747.66666667 1091 1741 1063 c 2
 1722 969 l 1
 1446 969 l 1
 1468 1071 l 2
 1473.33333333 1091.66666667 1463.83333333 1110.83333333 1439.5 1128.5 c 128
 1415.16666667 1146.16666667 1378.33333333 1155 1329 1155 c 2
 967 1155 l 2
 935.666666667 1155 907.666666667 1144.66666667 883 1124 c 1
 853 1104.66666667 822.333333333 1068.66666667 791 1016 c 1
 602 1147 l 1
 660.666666667 1229 721.5 1289.33333333 784.5 1328 c 128
 847.5 1366.66666667 910.333333333 1386 973 1386 c 2
 1432 1386 l 2
 1500 1386 1551 1371.66666667 1585 1343 c 1
 1616.33333333 1323.66666667 1637.66666667 1297.33333333 1649 1264 c 1
 1661 1279.33333333 1675.5 1293.33333333 1692.5 1306 c 128
 1709.5 1318.66666667 1727.66666667 1330.33333333 1747 1341 c 0
 1795 1369.66666667 1846.33333333 1384 1901 1384 c 2
 2191 1384 l 2
 2251 1384 2305.66666667 1372.16666667 2355 1348.5 c 128
 2404.33333333 1324.83333333 2438.66666667 1290.33333333 2458 1245 c 0
 2467.33333333 1220.33333333 2473.33333333 1201.83333333 2476 1189.5 c 128
 2478.66666667 1177.16666667 2480 1161.66666667 2480 1143 c 0
 2480 1136.33333333 2478.66666667 1122 2476 1100 c 1
 2304 315 l 1
EndSplineSet
EndChar

StartChar: ovowel
Encoding: 116 3218 116
Width: 1974
Flags: HW
LayerCount: 2
Fore
SplineSet
2107 254 m 0
 2100.33300781 220 2089.16699219 189 2073.5 161 c 0
 2057.83300781 133 2035.66699219 106 2007 80 c 0
 1949.66699219 29.3330078125 1889 4 1825 4 c 0
 1376 4 l 0
 1326.66699219 4 1286.33300781 18.3330078125 1255 47 c 0
 1238.33300781 57.6669921875 1224 75.3330078125 1212 100 c 0
 1200 79.3330078125 1181.66699219 61.6669921875 1157 47 c 0
 1111.66699219 18.3330078125 1070 4 1032 4 c 0
 621 4 l 0
 544.333007812 4 478.666992188 26.6669921875 424 72 c 0
 384.666992188 106 365 147 365 195 c 0
 365 205.666992188 366.333007812 220.666992188 369 240 c 0
 434 551 l 0
 735 713 l 0
 784.333007812 741.666992188 831.166992188 768.5 875.5 793.5 c 0
 919.833007812 818.5 954.333007812 839.333007812 979 856 c 0
 1014.33300781 878 1034.66699219 902 1040 928 c 0
 1077 1102 l 0
 1079.66699219 1117.33300781 1076.33300781 1130.33300781 1067 1141 c 0
 1057.66699219 1151.66699219 1043.33300781 1157 1024 1157 c 0
 842 1157 l 0
 823 1071 l 0
 821.666992188 1059 825.166992188 1046.5 833.5 1033.5 c 0
 841.833007812 1020.5 856.333007812 1014 877 1014 c 0
 928 1014 l 0
 877 782 l 0
 754 782 l 0
 680 782 623.333007812 811.333007812 584 870 c 0
 552.666992188 908 537 954 537 1008 c 0
 537 1028.66699219 539.666992188 1049.66699219 545 1071 c 0
 612 1389 l 0
 1133 1389 l 0
 1182.33300781 1389 1226 1380.33300781 1264 1363 c 0
 1302 1345.66699219 1331.33300781 1319.33300781 1352 1284 c 0
 1367.33300781 1258 1374.66699219 1232 1374 1206 c 0
 1374 1199.33300781 1372.66699219 1188.66699219 1370 1174 c 0
 1305 862 l 0
 1295.66699219 824 1268 787.5 1222 752.5 c 0
 1176 717.5 1075.33300781 657 920 571 c 0
 690 446 l 0
 666 322 l 0
 660.666992188 300 664 279.333007812 676 260 c 0
 692.666992188 243.333007812 713 235.333007812 737 236 c 0
 1004 236 l 0
 1024.66699219 236 1048.16699219 246.833007812 1074.5 268.5 c 0
 1100.83300781 290.166992188 1116.66699219 313.333007812 1122 338 c 0
 1145 449 l 0
 1421 449 l 0
 1403 348 l 0
 1401.66699219 342.666992188 1401 334 1401 322 c 0
 1401 302.666992188 1406.33300781 285.333007812 1417 270 c 0
 1437.66699219 248 1465 237.333007812 1499 238 c 0
 1733 238 l 0
 1753.66699219 238 1776.5 248.166992188 1801.5 268.5 c 0
 1826.5 288.833007812 1842.33300781 312 1849 338 c 0
 1888 528 l 0
 1893.33300781 550 1890 567.166992188 1878 579.5 c 0
 1866 591.833007812 1847.66699219 598 1823 598 c 0
 1726 598 l 0
 1774 827 l 0
 1997 827 l 0
 2066.33300781 827 2115.66699219 809.666992188 2145 775 c 0
 2174.33300781 740.333007812 2189 704 2189 666 c 0
 2189 655.333007812 2187.66699219 640.333007812 2185 621 c 0
 2107 254 l 0
EndSplineSet
EndChar

StartChar: oovowel
Encoding: 117 3219 117
Width: 1974
Flags: HW
LayerCount: 2
Fore
SplineSet
2111 287 m 0
 2100.33300781 236.333007812 2077.66699219 188.833007812 2043 144.5 c 0
 2008.33300781 100.166992188 1971.66699219 67.6669921875 1933 47 c 0
 1887.66699219 18.3330078125 1842.66699219 4 1798 4 c 0
 1374 4 l 0
 1324.66699219 4 1284.33300781 18.3330078125 1253 47 c 0
 1231 62.3330078125 1215.33300781 83 1206 109 c 0
 1200.66699219 103.666992188 1187.66699219 92.6669921875 1167 76 c 0
 1161.66699219 73.3330078125 1148.66699219 63.6669921875 1128 47 c 0
 1084 21 1040.33300781 8 997 8 c 0
 616 8 l 0
 539.333007812 8 474 30.6669921875 420 76 c 0
 380.666992188 110 360.666992188 151.666992188 360 201 c 0
 360 211.666992188 361.666992188 226.666992188 365 246 c 0
 430 559 l 0
 731 721 l 0
 740.333007812 726.333007812 791 755.666992188 883 809 c 0
 936.333007812 839 967.666992188 857.333007812 977 864 c 0
 1015 888.666992188 1036.66699219 914 1042 940 c 0
 1073 1087 l 0
 1078.33300781 1107.66699219 1073 1127.66699219 1057 1147 c 0
 1046.33300781 1163.66699219 1025.66699219 1171.66699219 995 1171 c 0
 844 1171 l 0
 827 1085 l 0
 824.333007812 1073 827.833007812 1059.83300781 837.5 1045.5 c 0
 847.166992188 1031.16699219 861.666992188 1024 881 1024 c 0
 932 1024 l 0
 885 791 l 0
 762 791 l 0
 688 791 630.666992188 820.333007812 590 879 c 0
 560 919.666992188 545 965.333007812 545 1016 c 0
 545 1035.33300781 547.666992188 1057.66699219 553 1083 c 0
 621 1401 l 0
 795 1401 l 0
 693.666992188 1477.66699219 648.333007812 1541 659 1591 c 0
 696 1763 l 0
 706.666992188 1817.66699219 742.333007812 1862 803 1896 c 0
 852.333007812 1930 913.666992188 1947.33300781 987 1948 c 0
 1274 1948 l 0
 1227 1714 l 0
 1018 1714 l 0
 973 1706 l 0
 963.666992188 1700.66699219 958.666992188 1693 958 1683 c 0
 940 1602 l 0
 930.666992188 1556.66699219 989.333007812 1490.33300781 1116 1403 c 0
 1139 1403 l 0
 1188.33300781 1403 1232 1394.5 1270 1377.5 c 0
 1308 1360.5 1337.33300781 1334 1358 1298 c 0
 1370 1273.33300781 1376 1247 1376 1219 c 0
 1376 1203.66699219 1375.33300781 1192.66699219 1374 1186 c 0
 1309 868 l 0
 1299.66699219 830 1270.33300781 792 1221 754 c 0
 1185.66699219 725.333007812 1086 666.666992188 922 578 c 0
 882.666992188 556 832.666992188 528 772 494 c 0
 734 473.333007812 709.333007812 460.333007812 698 455 c 0
 670 326 l 0
 667.333007812 306.666992188 671.333007812 286 682 264 c 0
 701.333007812 244.666992188 721.666992188 235.333007812 743 236 c 0
 1010 236 l 0
 1025.33300781 236 1048.33300781 246 1079 266 c 0
 1105 292 1120.66699219 316 1126 338 c 0
 1151 453 l 0
 1427 453 l 0
 1399 324 l 0
 1393.66699219 299.333007812 1401.16699219 278 1421.5 260 c 0
 1441.83300781 242 1467.66699219 233 1499 233 c 0
 1733 233 l 0
 1748.33300781 233 1771.33300781 243.333007812 1802 264 c 0
 1828 286 1843.66699219 310 1849 336 c 0
 1892 530 l 0
 1894.66699219 554.666992188 1890.66699219 572.666992188 1880 584 c 0
 1864.66699219 593.333007812 1847 598 1827 598 c 0
 1731 598 l 0
 1778 831 l 0
 1974 831 l 0
 2046.66699219 831 2100.66699219 804.666992188 2136 752 c 0
 2164.66699219 714 2179 670.333007812 2179 621 c 0
 2179 596.333007812 2177.66699219 578.333007812 2175 567 c 0
 2111 287 l 0
EndSplineSet
EndChar

StartChar: auvowel
Encoding: 118 3220 118
Width: 1966
Flags: HW
LayerCount: 2
Fore
SplineSet
2324 1040 m 1
 1667 1040 l 2
 1594.33333333 1040 1538.33333333 1068 1499 1124 c 1
 1470.33333333 1158 1456 1200.33333333 1456 1251 c 0
 1456 1273 1458.66666667 1297 1464 1323 c 2
 1516 1569 l 1
 2089 1569 l 1
 2042 1337 l 1
 1718 1337 l 1
 1716 1323 l 2
 1714.66666667 1316.33333333 1717.33333333 1304.66666667 1724 1288 c 1
 1734.66666667 1276 1748.33333333 1270 1765 1270 c 2
 2097 1270 l 1
 2173 1624 l 2
 2178.33333333 1650 2171.5 1672.5 2152.5 1691.5 c 128
 2133.5 1710.5 2109 1720 2079 1720 c 2
 1522 1720 l 1
 1527.33333333 1708 1528.66666667 1694.33333333 1526 1679 c 2
 1516 1626 l 1
 1505.33333333 1576.66666667 1482 1536.33333333 1446 1505 c 1
 1402 1471 1361 1454 1323 1454 c 2
 645 1454 l 1
 692 1686 l 1
 1270 1686 l 1
 1298 1694 l 1
 1317 1718 l 1
 1300.33333333 1719.33333333 1286.66666667 1721.33333333 1276 1724 c 1
 700 1722 l 1
 748 1956 l 1
 2161 1956 l 2
 2227.66666667 1956 2285.66666667 1945 2335 1923 c 1
 2388.33333333 1894.33333333 2424.5 1861.5 2443.5 1824.5 c 128
 2462.5 1787.5 2472 1753.33333333 2472 1722 c 0
 2472 1715.33333333 2470.66666667 1702.33333333 2468 1683 c 1
 2324 1040 l 1
2107 260 m 2
 2100.33333333 226 2089.16666667 194.666666667 2073.5 166 c 128
 2057.83333333 137.333333333 2037 108.666666667 2011 80 c 1
 1953.66666667 29.3333333333 1893 4 1829 4 c 2
 1370 4 l 2
 1324.66666667 4 1286.33333333 18.3333333333 1255 47 c 1
 1234.33333333 59 1218.66666667 78 1208 104 c 1
 1197.33333333 88.6666666667 1184.83333333 76 1170.5 66 c 128
 1156.16666667 56 1145.66666667 48.3333333333 1139 43 c 0
 1098.33333333 17 1060.66666667 4 1026 4 c 2
 643 6 l 2
 555.666666667 6 486.666666667 34.6666666667 436 92 c 0
 396.666666667 137.333333333 377 187.333333333 377 242 c 0
 377 252.666666667 378.333333333 271 381 297 c 1
 434 553 l 1
 737 715 l 1
 786.333333333 743.666666667 835.5 772.666666667 884.5 802 c 128
 933.5 831.333333333 964.333333333 850.666666667 977 860 c 1
 1015 884.666666667 1036.66666667 910 1042 936 c 2
 1083 1135 l 1
 1085.66666667 1157 1065.33333333 1167.66666667 1022 1167 c 2
 840 1167 l 1
 823 1081 l 2
 820.333333333 1069 823.833333333 1055.83333333 833.5 1041.5 c 128
 843.166666667 1027.16666667 857.666666667 1020 877 1020 c 2
 956 1020 l 1
 909 786 l 1
 752 786 l 2
 679.333333333 786 622.666666667 815.333333333 582 874 c 1
 553.333333333 918 539 964.666666667 539 1014 c 0
 539 1036 541.666666667 1057.66666667 547 1079 c 2
 614 1397 l 1
 1135 1397 l 2
 1184.33333333 1397 1229.33333333 1387.33333333 1270 1368 c 128
 1310.66666667 1348.66666667 1338.16666667 1324.66666667 1352.5 1296 c 128
 1366.83333333 1267.33333333 1374 1238.66666667 1374 1210 c 0
 1374 1194.66666667 1373.33333333 1184 1372 1178 c 2
 1307 860 l 1
 1297.66666667 828.666666667 1275.66666667 800 1241 774 c 1
 1231.66666667 764.666666667 1215 751.166666667 1191 733.5 c 128
 1167 715.833333333 1145.33333333 702 1126 692 c 0
 1120.66666667 689.333333333 1100.33333333 677.666666667 1065 657 c 0
 1005 623 949.666666667 591.666666667 899 563 c 2
 696 449 l 1
 668 319 l 2
 662.666666667 294.333333333 667.333333333 274.666666667 682 260 c 1
 692.666666667 239.333333333 712.333333333 229 741 229 c 2
 1036 229 l 2
 1052.66666667 229 1068.33333333 238.666666667 1083 258 c 0
 1092.33333333 268.666666667 1101.16666667 281.166666667 1109.5 295.5 c 128
 1117.83333333 309.833333333 1122.66666667 322.666666667 1124 334 c 2
 1149 449 l 1
 1423 449 l 1
 1395 319 l 2
 1392.33333333 302.333333333 1397 282 1409 258 c 1
 1421 238.666666667 1440 229 1466 229 c 2
 1700 229 l 2
 1731.33333333 229 1762.66666667 240 1794 262 c 1
 1824 290.666666667 1841.66666667 314.666666667 1847 334 c 2
 1890 528 l 1
 1892.66666667 550 1886.5 566.5 1871.5 577.5 c 128
 1856.5 588.5 1839 594 1819 594 c 2
 1729 594 l 1
 1776 827 l 1
 2001 827 l 2
 2039 827 2069 823.333333333 2091 816 c 128
 2113 808.666666667 2133.33333333 792.666666667 2152 768 c 1
 2176.66666667 742 2189 708.666666667 2189 668 c 0
 2189 658.666666667 2187.66666667 643 2185 621 c 1
 2107 260 l 2
EndSplineSet
EndChar

StartChar: ka.base
Encoding: 120 -1 120
Width: 1134
Flags: HW
AnchorPoint: "s" 569 -127 basechar 0
LayerCount: 2
Fore
SplineSet
1731 788 m 1
 1356 788 l 1
 1380.66666667 768.666666667 1403.16666667 747.166666667 1423.5 723.5 c 128
 1443.83333333 699.833333333 1460.33333333 677 1473 655 c 1
 1501.66666667 611 1516 566.666666667 1516 522 c 0
 1516 502.666666667 1515 489.666666667 1513 483 c 2
 1470 279 l 1
 1458 206.333333333 1418.66666667 144.666666667 1352 94 c 1
 1322 69.3333333333 1292.33333333 50.1666666667 1263 36.5 c 128
 1233.66666667 22.8333333333 1203 16 1171 16 c 2
 618 14 l 2
 550 14 499 34 465 74 c 1
 436.333333333 102.666666667 422 136.666666667 422 176 c 0
 422 182.666666667 423.333333333 197 426 219 c 1
 477 463 l 1
 493.666666667 550.333333333 594 661 778 795 c 1
 367 795 l 1
 418 1026 l 1
 973 1026 l 1
 1004 1171 l 1
 449 1171 l 1
 496 1403 l 1
 1509 1403 l 1
 1462 1171 l 1
 1282 1171 l 1
 1251 1026 l 1
 1782 1026 l 1
 1731 788 l 1
1206 334 m 2
 1231 457 l 2
 1233.66666667 472.333333333 1235 483 1235 489 c 0
 1235 520.333333333 1223 552.833333333 1199 586.5 c 128
 1175 620.166666667 1152.16666667 647.166666667 1130.5 667.5 c 128
 1108.83333333 687.833333333 1082.33333333 707.666666667 1051 727 c 1
 868.333333333 641 768.666666667 555 752 469 c 1
 721 324 l 2
 718.333333333 307.333333333 721.666666667 288 731 266 c 1
 746.333333333 255.333333333 767 250 793 250 c 1
 791 242 l 1
 1137 242 l 2
 1146.33333333 242 1159.33333333 248 1176 260 c 1
 1190.66666667 280.666666667 1200.66666667 305.333333333 1206 334 c 2
EndSplineSet
EndChar

StartChar: ka.imathra
Encoding: 121 -1 121
Width: 1333
Flags: HW
AnchorPoint: "s" 553 -164 basechar 0
LayerCount: 2
Fore
SplineSet
1593 791 m 1
 1317 791 l 1
 1341.66666667 770.333333333 1366.33333333 747 1391 721 c 0
 1410.33333333 700.333333333 1430 675 1450 645 c 1
 1478.66666667 594.333333333 1493 546 1493 500 c 0
 1493 489.333333333 1491.66666667 474.333333333 1489 455 c 2
 1442 221 l 2
 1436.66666667 196.333333333 1425 170.666666667 1407 144 c 128
 1389 117.333333333 1369.33333333 94 1348 74 c 1
 1294.66666667 33.3333333333 1235.66666667 12.6666666667 1171 12 c 2
 612 14 l 2
 574 14 542.666666667 18.5 518 27.5 c 128
 493.333333333 36.5 470.333333333 51.3333333333 449 72 c 1
 419 103.333333333 403.666666667 140.666666667 403 184 c 0
 403 199.333333333 404 210.333333333 406 217 c 2
 459 483 l 1
 468.333333333 518.333333333 497.666666667 558.666666667 547 604 c 0
 562.333333333 616 592.333333333 640 637 676 c 0
 711 733.333333333 760 771.666666667 784 791 c 1
 467 791 l 1
 514 1024 l 1
 1049 1024 l 1
 1260 1223 l 1
 1319 1509 l 2
 1320.33333333 1514.33333333 1320.33333333 1517.83333333 1319 1519.5 c 128
 1317.66666667 1521.16666667 1316.33333333 1522.66666667 1315 1524 c 1
 1192 1524 l 1
 1169 1427 l 1
 1174 1413 l 1
 1198 1403 l 1
 1249 1403 l 1
 1202 1171 l 1
 1065 1171 l 2
 1007.66666667 1171 957 1190.33333333 913 1229 c 1
 887 1255 874 1285.66666667 874 1321 c 0
 874 1336.33333333 875 1347.33333333 877 1354 c 2
 961 1755 l 1
 1421 1755 l 2
 1485 1755 1534.33333333 1736 1569 1698 c 1
 1595 1673.33333333 1608 1640.33333333 1608 1599 c 0
 1608 1577 1606.66666667 1560.66666667 1604 1550 c 2
 1524 1178 l 1
 1358 1024 l 1
 1640 1024 l 1
 1593 791 l 1
1178 293 m 2
 1210 455 l 2
 1219.33333333 503 1156.66666667 590.333333333 1022 717 c 1
 833.333333333 587 733.666666667 495.333333333 723 442 c 2
 686 266 l 2
 684.666666667 256.666666667 689.166666667 248.166666667 699.5 240.5 c 128
 709.833333333 232.833333333 720.333333333 229 731 229 c 2
 1122 229 l 2
 1131.33333333 229 1142.33333333 235.833333333 1155 249.5 c 128
 1167.66666667 263.166666667 1175.33333333 277.666666667 1178 293 c 2
EndSplineSet
LCarets2: 1 0
EndChar

StartChar: ka.sub
Encoding: 122 -1 122
Width: 352
Flags: HW
AnchorPoint: "Sub" -373 594 mark 0
AnchorPoint: "Sub" 492 -848 basemark 0
LayerCount: 2
Fore
SplineSet
668 -315 m 1
 449 -315 l 1
 511.666666667 -373.666666667 537.333333333 -428.333333333 526 -479 c 2
 494 -639 l 2
 483.333333333 -693.666666667 448.333333333 -741.333333333 389 -782 c 1
 322.333333333 -820 257.666666667 -839.333333333 195 -840 c 2
 -158 -840 l 1
 -189.333333333 -837.333333333 -217.333333333 -830.833333333 -242 -820.5 c 128
 -266.666666667 -810.166666667 -289 -794 -309 -772 c 1
 -347 -738 -366.333333333 -697 -367 -649 c 0
 -367 -643.666666667 -365.333333333 -631.333333333 -362 -612 c 2
 -346 -522 l 1
 -326.666666667 -454 -269.333333333 -383.666666667 -174 -311 c 1
 -426 -311 l 1
 -383 -109 l 1
 78 -109 l 1
 240 29 l 2
 276.666666667 59 301 79.3333333333 313 90 c 0
 333.666666667 106.666666667 348.666666667 120.333333333 358 131 c 0
 377.333333333 150.333333333 387.666666667 165.333333333 389 176 c 2
 442 436 l 2
 448.666666667 471.333333333 409.333333333 507 324 543 c 1
 526 682 l 1
 650 589.333333333 706.666666667 514.333333333 696 457 c 2
 629 141 l 2
 627.666666667 129 620.5 114.5 607.5 97.5 c 128
 594.5 80.5 577.666666667 61.6666666667 557 41 c 1
 358 -119 l 1
 713 -119 l 1
 668 -315 l 1
260 -586 m 2
 279 -489 l 2
 284.333333333 -464.333333333 272.666666667 -434.333333333 244 -399 c 1
 216.666666667 -370.333333333 175.666666667 -346 121 -326 c 1
 62.3333333333 -342.666666667 13.8333333333 -368.333333333 -24.5 -403 c 128
 -62.8333333333 -437.666666667 -85.3333333333 -475.333333333 -92 -516 c 1
 -109 -596 l 1
 -110.333333333 -611.333333333 -107.333333333 -624.333333333 -100 -635 c 1
 -83.3333333333 -647 -63 -653 -39 -653 c 2
 193 -653 l 2
 208.333333333 -653 220.333333333 -647 229 -635 c 1
 248.333333333 -615.666666667 258.666666667 -599.333333333 260 -586 c 2
EndSplineSet
LCarets2: 1 0
EndChar

StartChar: ka_rvocalicmatra.sub
Encoding: 123 -1 123
Width: 698
Flags: HW
LayerCount: 2
Fore
SplineSet
1309 -549 m 2
 1292.33333333 -631 1250.66666667 -699.333333333 1184 -754 c 1
 1117.33333333 -812.666666667 1040 -842 952 -842 c 2
 139 -838 l 2
 69.6666666667 -838 17.5 -817.5 -17.5 -776.5 c 128
 -52.5 -735.5 -70 -695 -70 -655 c 0
 -70 -648.333333333 -68.6666666667 -634 -66 -612 c 1
 14 -229 l 1
 262 -229 l 1
 203 -184 l 1
 171.666666667 -152.666666667 158.666666667 -121.333333333 164 -90 c 2
 203 100 l 2
 213.666666667 154.666666667 258.666666667 209.333333333 338 264 c 1
 150 264 l 1
 195 469 l 1
 610 469 l 1
 655 686 l 1
 930 686 l 1
 885 469 l 1
 1294 469 l 1
 1249 264 l 1
 1018 264 l 1
 1033.33333333 257.333333333 1048.33333333 243.833333333 1063 223.5 c 128
 1077.66666667 203.166666667 1088.16666667 182.666666667 1094.5 162 c 128
 1100.83333333 141.333333333 1102.66666667 122 1100 104 c 2
 1075 -14 l 2
 1059.66666667 -83.3333333333 1020 -141.333333333 956 -188 c 1
 892 -241.333333333 821.666666667 -268 745 -268 c 2
 580 -268 l 1
 547 -428 l 1
 227 -428 l 1
 197 -582 l 2
 194.333333333 -594 198.333333333 -601.333333333 209 -604 c 1
 228.333333333 -619.333333333 245.333333333 -627 260 -627 c 2
 965 -627 l 2
 975.666666667 -627 990.5 -614.333333333 1009.5 -589 c 128
 1028.5 -563.666666667 1041.66666667 -533.333333333 1049 -498 c 2
 1161 47 l 2
 1163.66666667 62.3333333333 1160 75.3333333333 1150 86 c 128
 1140 96.6666666667 1117.66666667 110.333333333 1083 127 c 1
 1307 293 l 1
 1333 277.666666667 1354.83333333 262.5 1372.5 247.5 c 128
 1390.16666667 232.5 1405 215 1417 195 c 1
 1433.66666667 161 1442 128 1442 96 c 0
 1442 86.6666666667 1440.66666667 72.3333333333 1438 53 c 2
 1309 -549 l 2
827 16 m 1
 846 106 l 2
 847.333333333 111.333333333 848 121.666666667 848 137 c 0
 848 161.666666667 841.666666667 183.666666667 829 203 c 1
 817 230.333333333 793.333333333 251.333333333 758 266 c 1
 600 266 l 1
 562 246.666666667 529.333333333 222.833333333 502 194.5 c 128
 474.666666667 166.166666667 460.333333333 139.666666667 459 115 c 1
 428 -23 l 2
 425.333333333 -39.6666666667 428.666666667 -49 438 -51 c 1
 463 -68 l 1
 778 -66 l 2
 787.333333333 -66 797.166666667 -58.5 807.5 -43.5 c 128
 817.833333333 -28.5 824.333333333 -8.66666666667 827 16 c 1
EndSplineSet
EndChar

StartChar: kha
Encoding: 124 3222 124
Width: 2009
Flags: HW
LayerCount: 2
Fore
SplineSet
2136 231 m 2
 2124 171 2097.33333333 117.333333333 2056 70 c 1
 2002.66666667 20.6666666667 1954.33333333 -4 1911 -4 c 2
 1597 -4 l 2
 1542.33333333 -4 1485.66666667 20.6666666667 1427 70 c 1
 1296 166 l 1
 1267.33333333 119.333333333 1228 82.3333333333 1178 55 c 1
 1148 35.6666666667 1117.16666667 21.3333333333 1085.5 12 c 128
 1053.83333333 2.66666666667 1021 -2 987 -2 c 2
 487 -2 l 1
 462.333333333 0.666666666667 438.166666667 6.16666666667 414.5 14.5 c 128
 390.833333333 22.8333333333 370.166666667 33.8333333333 352.5 47.5 c 128
 334.833333333 61.1666666667 322.166666667 75.5 314.5 90.5 c 128
 306.833333333 105.5 303 121 303 137 c 0
 303 152.333333333 303.666666667 163.333333333 305 170 c 2
 362 438 l 2
 372.666666667 495.333333333 403 543.333333333 453 582 c 1
 503.666666667 616 556 633 610 633 c 2
 1034 633 l 2
 1088.66666667 633 1128.33333333 623.333333333 1153 604 c 1
 1253 1073 l 2
 1254.33333333 1079.66666667 1255 1086.83333333 1255 1094.5 c 128
 1255 1106 1255 1106 1255 1108 c 0
 1255 1120 1252.33333333 1130.83333333 1247 1140.5 c 128
 1241.66666667 1150.16666667 1234.33333333 1155 1225 1155 c 2
 958 1155 l 1
 944 1147 l 1
 934.666666667 1135 927.333333333 1116 922 1090 c 2
 877 864 l 1
 596 864 l 1
 657 1169 l 2
 669 1233 704.666666667 1285.66666667 764 1327 c 0
 790 1346.33333333 820 1361 854 1371 c 128
 888 1381 922.666666667 1386 958 1386 c 2
 1325 1386 l 2
 1399 1386 1455.66666667 1359.66666667 1495 1307 c 0
 1525 1269 1540 1223 1540 1169 c 0
 1540 1144.33333333 1538.66666667 1126 1536 1114 c 2
 1391 426 l 1
 1552 268 l 1
 1583.33333333 234 1623 217 1671 217 c 2
 1804 217 l 2
 1819.33333333 217 1830.33333333 223.333333333 1837 236 c 1
 1852.33333333 252.666666667 1862.66666667 275 1868 303 c 2
 2036 1092 l 1
 2038.66666667 1112.66666667 2034.33333333 1126.33333333 2023 1133 c 1
 2012.33333333 1143.66666667 1994.66666667 1149 1970 1149 c 2
 1698 1149 l 1
 1745 1378 l 1
 2114 1378 l 2
 2149.33333333 1378 2180.66666667 1373.33333333 2208 1364 c 128
 2235.33333333 1354.66666667 2258.33333333 1337.66666667 2277 1313 c 1
 2311 1275 2328.33333333 1235.33333333 2329 1194 c 0
 2329 1184.66666667 2327.33333333 1169 2324 1147 c 1
 2136 231 l 2
1067 279 m 1
 1081 336 l 1
 1056.33333333 374 1008 393 936 393 c 2
 674 393 l 2
 653.333333333 393 635.666666667 390.333333333 621 385 c 2
 606 381 l 1
 578 254 l 1
 580.666666667 243.333333333 585 235.166666667 591 229.5 c 128
 597 223.833333333 607.666666667 221 623 221 c 2
 977 221 l 2
 997.666666667 221 1016 228.666666667 1032 244 c 1
 1048.66666667 255.333333333 1060.33333333 267 1067 279 c 1
EndSplineSet
LCarets2: 1 0
EndChar

StartChar: kha.base
Encoding: 125 -1 125
Width: 1662
Flags: HW
LayerCount: 2
Fore
SplineSet
2140 231 m 1
 2128 167 2098.66666667 111.833333333 2052 65.5 c 128
 2005.33333333 19.1666666667 1957.66666667 -4 1909 -4 c 1
 1905 0 l 1
 1595 0 l 2
 1541.66666667 0 1485.66666667 24.6666666667 1427 74 c 1
 1309 154 l 1
 1289.66666667 116 1249.33333333 80.8333333333 1188 48.5 c 128
 1126.66666667 16.1666666667 1061 0 991 0 c 2
 510 0 l 2
 443.333333333 0 390.666666667 15.6666666667 352 47 c 0
 335.333333333 59 323.333333333 72.6666666667 316 88 c 128
 308.666666667 103.333333333 305 119 305 135 c 0
 305 150.333333333 305.666666667 161.333333333 307 168 c 2
 365 436 l 2
 375.666666667 490.666666667 405.5 536.5 454.5 573.5 c 128
 503.5 610.5 560.333333333 629 625 629 c 2
 1036 629 l 2
 1090.66666667 629 1130.33333333 619.333333333 1155 600 c 1
 1260 1098 l 2
 1262.66666667 1113.33333333 1260.33333333 1128.33333333 1253 1143 c 1
 1246.33333333 1149.66666667 1237 1153 1225 1153 c 2
 991 1153 l 2
 974.333333333 1153 960.666666667 1147.83333333 950 1137.5 c 128
 939.333333333 1127.16666667 931.333333333 1109.66666667 926 1085 c 2
 881 860 l 1
 604 860 l 1
 666 1165 l 2
 678 1229 712 1281.5 768 1322.5 c 128
 824 1363.5 890.333333333 1384 967 1384 c 2
 1335 1384 l 2
 1409 1384 1465.66666667 1357.66666667 1505 1305 c 1
 1535 1269.66666667 1550 1227.33333333 1550 1178 c 0
 1550 1157.33333333 1547.33333333 1136 1542 1114 c 2
 1397 424 l 1
 1565 299 l 1
 1613 245.666666667 1651.66666667 219 1681 219 c 2
 1847 219 l 2
 1856.33333333 219 1862.66666667 226.666666667 1866 242 c 2
 2017 948 l 2
 2019.66666667 967.333333333 2021 981.666666667 2021 991 c 0
 2021 1031.66666667 2008 1065.33333333 1982 1092 c 0
 1944 1131.33333333 1895 1151 1835 1151 c 2
 1712 1151 l 1
 1759 1380 l 1
 2019 1380 l 1
 2091.66666667 1370.66666667 2152 1345.66666667 2200 1305 c 1
 2222 1283 2240.33333333 1259.66666667 2255 1235 c 128
 2269.66666667 1210.33333333 2281.16666667 1182.33333333 2289.5 1151 c 128
 2297.83333333 1119.66666667 2302 1081.33333333 2302 1036 c 0
 2302 1007.33333333 2299.33333333 978.666666667 2294 950 c 2
 2140 231 l 1
1079 283 m 2
 1087 322 l 1
 1039 371.333333333 979 395.666666667 907 395 c 2
 653 395 l 2
 642.333333333 395 634.333333333 393.666666667 629 391 c 0
 626.333333333 391 624.333333333 388.333333333 623 383 c 2
 594 256 l 1
 595.333333333 245.333333333 599 237.166666667 605 231.5 c 128
 611 225.833333333 621.666666667 223 637 223 c 2
 991 223 l 2
 1007.66666667 223 1025.5 229.166666667 1044.5 241.5 c 128
 1063.5 253.833333333 1075 267.666666667 1079 283 c 2
EndSplineSet
EndChar

StartChar: kha.imathra
Encoding: 126 -1 126
Width: 2009
Flags: HW
LayerCount: 2
Fore
SplineSet
2140 233 m 1
 2128 166.333333333 2098.66666667 109.833333333 2052 63.5 c 128
 2005.33333333 17.1666666667 1957.66666667 -6 1909 -6 c 1
 1905 -2 l 1
 1595 -2 l 2
 1541.66666667 -2 1485.66666667 22.6666666667 1427 72 c 1
 1296 166 l 1
 1266 120.666666667 1229.33333333 83 1186 53 c 1
 1123.33333333 17.6666666667 1064.66666667 0 1010 0 c 2
 510 0 l 2
 443.333333333 0 390.666666667 15.6666666667 352 47 c 0
 335.333333333 59 323.333333333 72.6666666667 316 88 c 128
 308.666666667 103.333333333 305 119 305 135 c 0
 305 150.333333333 305.666666667 161.333333333 307 168 c 2
 365 440 l 2
 375.666666667 497.333333333 407.666666667 544 461 580 c 1
 505 615.333333333 561 633 629 633 c 2
 1040 633 l 2
 1079.33333333 633 1117 615.333333333 1153 580 c 1
 1257 1077 l 1
 1259.66666667 1103 1255.66666667 1123.66666667 1245 1139 c 1
 1229.66666667 1154.33333333 1214 1161.66666667 1198 1161 c 2
 989 1161 l 2
 978.333333333 1161 965.333333333 1156.33333333 950 1147 c 1
 934.666666667 1130.33333333 926.666666667 1112.66666667 926 1094 c 1
 879 864 l 1
 602 864 l 1
 668 1174 l 1
 678.666666667 1240.66666667 713.333333333 1293 772 1331 c 1
 798 1351.66666667 828 1367.16666667 862 1377.5 c 128
 896 1387.83333333 930.333333333 1393 965 1393 c 2
 1333 1393 l 2
 1407 1393 1463.66666667 1366.33333333 1503 1313 c 0
 1533 1275 1548 1229.33333333 1548 1176 c 0
 1548 1166.66666667 1546.66666667 1146.66666667 1544 1116 c 1
 1399 430 l 1
 1532 299 l 1
 1570 273 1605.83333333 253.5 1639.5 240.5 c 128
 1673.16666667 227.5 1707 221 1741 221 c 2
 1815 221 l 2
 1827 221 1839.16666667 226.166666667 1851.5 236.5 c 128
 1863.83333333 246.833333333 1870.66666667 258 1872 270 c 2
 2083 1278 l 1
 2088.33333333 1297.33333333 2088 1313.5 2082 1326.5 c 128
 2076 1339.5 2066.66666667 1346 2054 1346 c 2
 1980 1346 l 2
 1960.66666667 1346 1948.66666667 1345 1944 1343 c 1
 1939 1333 l 1
 1929 1294 l 1
 1929 1268 1930.66666667 1252.33333333 1934 1247 c 128
 1937.33333333 1241.66666667 1940.83333333 1237.66666667 1944.5 1235 c 128
 1948.16666667 1232.33333333 1951.33333333 1231 1954 1231 c 2
 2064 1231 l 1
 2013 999 l 1
 1798 999 l 2
 1740.66666667 999 1696.33333333 1021 1665 1065 c 1
 1640.33333333 1095 1628 1127.66666667 1628 1163 c 0
 1628 1172.33333333 1629.33333333 1188 1632 1210 c 1
 1671 1399 l 2
 1681.66666667 1449.66666667 1713.66666667 1492.66666667 1767 1528 c 1
 1824.33333333 1562 1886.66666667 1579 1954 1579 c 2
 2187 1579 l 2
 2253.66666667 1579 2305 1555 2341 1507 c 0
 2367 1471.66666667 2380 1433.66666667 2380 1393 c 0
 2380 1373.66666667 2377.33333333 1353.66666667 2372 1333 c 2
 2140 233 l 1
1077 283 m 2
 1085 313 l 1
 1030.33333333 367.666666667 976 395 922 395 c 2
 674 395 l 2
 652 395 637.666666667 393.666666667 631 391 c 1
 623 383 l 1
 600 272 l 1
 600 236 l 1
 610 221 l 1
 993 221 l 2
 1005 221 1021.33333333 227.5 1042 240.5 c 128
 1062.66666667 253.5 1074.33333333 267.666666667 1077 283 c 2
EndSplineSet
LCarets2: 1 0
EndChar

StartChar: kha.sub
Encoding: 127 -1 127
Width: 333
Flags: HW
AnchorPoint: "Sub" -635 379 mark 0
AnchorPoint: "Sub" 442 -764 basemark 0
LayerCount: 2
Fore
SplineSet
582 -475 m 1
 562.666666667 -554.333333333 515.5 -625.333333333 440.5 -688 c 128
 365.5 -750.666666667 285 -782 199 -782 c 2
 55 -782 l 2
 30.3333333333 -782 -20.6666666667 -767.666666667 -98 -739 c 1
 -204.666666667 -803 -285.333333333 -835.333333333 -340 -836 c 2
 -649 -836 l 2
 -703.666666667 -836 -750 -818.666666667 -788 -784 c 0
 -816.666666667 -758 -831 -729.333333333 -831 -698 c 0
 -831 -691.333333333 -829.666666667 -680.666666667 -827 -666 c 2
 -803 -547 l 2
 -792.333333333 -492.333333333 -762.333333333 -446 -713 -408 c 0
 -688.333333333 -388.666666667 -663.333333333 -374.833333333 -638 -366.5 c 128
 -612.666666667 -358.166666667 -584.333333333 -354 -553 -354 c 2
 -319 -354 l 2
 -289 -354 -268.666666667 -359 -258 -369 c 2
 -162 -440 l 1
 -137 -315 l 2
 -131.666666667 -290.333333333 -135 -268 -147 -248 c 1
 -163.666666667 -231.333333333 -183 -223 -205 -223 c 1
 -227 -328 l 1
 -473 -328 l 1
 -408 -29 l 1
 -109 -29 l 2
 -23 -29 38.6666666667 -56.3333333333 76 -111 c 1
 106 -151.666666667 121 -200.666666667 121 -258 c 0
 121 -282.666666667 119.666666667 -301 117 -313 c 2
 59 -575 l 1
 69.6666666667 -581.666666667 78.8333333333 -585.833333333 86.5 -587.5 c 128
 94.1666666667 -589.166666667 103 -590 113 -590 c 2
 229 -590 l 2
 248.333333333 -590 264.166666667 -581.166666667 276.5 -563.5 c 128
 288.833333333 -545.833333333 299 -529.5 307 -514.5 c 128
 315 -499.5 320.666666667 -483.666666667 324 -467 c 2
 500 379 l 2
 502.666666667 395.666666667 495.5 411.833333333 478.5 427.5 c 128
 461.5 443.166666667 435 451 399 451 c 2
 262 451 l 1
 307 664 l 1
 465 664 l 2
 556.333333333 664 631.333333333 639.333333333 690 590 c 1
 735.333333333 544.666666667 758 494.666666667 758 440 c 0
 758 429.333333333 756.666666667 414.333333333 754 395 c 2
 582 -475 l 1
-293 -627 m 1
 -341 -589 -388.666666667 -569.666666667 -436 -569 c 2
 -563 -569 l 2
 -578.333333333 -569 -586.666666667 -570.333333333 -588 -573 c 2
 -598 -639 l 1
 -580 -643 l 1
 -342 -643 l 1
 -293 -627 l 1
EndSplineSet
LCarets2: 1 0
EndChar

StartChar: ga.base
Encoding: 129 -1 129
Width: 1183
Flags: HW
LayerCount: 2
Fore
SplineSet
1614 0 m 1
 1339 0 l 1
 1548 987 l 2
 1549.33333333 992.333333333 1550 1001.33333333 1550 1014 c 0
 1550 1034.66666667 1545.33333333 1054.33333333 1536 1073 c 0
 1520.66666667 1103 1501.16666667 1124.16666667 1477.5 1136.5 c 128
 1453.83333333 1148.83333333 1434.83333333 1155.66666667 1420.5 1157 c 128
 1406.16666667 1158.33333333 1386 1159 1360 1159 c 2
 1141 1159 l 2
 1078.33333333 1159 1024 1142.33333333 978 1109 c 128
 932 1075.66666667 903.666666667 1033.66666667 893 983 c 2
 684 -4 l 1
 403 -4 l 1
 614 995 l 2
 626 1057.66666667 663.666666667 1113 727 1161 c 1
 651 1161 l 1
 698 1393 l 1
 1542 1393 l 1
 1644.66666667 1371 1723.33333333 1321.66666667 1778 1245 c 1
 1812 1187.66666667 1829 1127.66666667 1829 1065 c 0
 1829 1040.33333333 1826.33333333 1013.66666667 1821 985 c 2
 1614 0 l 1
EndSplineSet
EndChar

StartChar: ga.imathra
Encoding: 130 -1 130
Width: 1566
Flags: HW
LayerCount: 2
Fore
SplineSet
1645 0 m 1
 1368 0 l 1
 1579 997 l 2
 1581.66666667 1016.33333333 1583 1030.66666667 1583 1040 c 0
 1583 1074 1573.5 1104.83333333 1554.5 1132.5 c 128
 1535.5 1160.16666667 1503.33333333 1174 1458 1174 c 2
 1077 1174 l 2
 1031.66666667 1174 994.333333333 1158.66666667 965 1128 c 1
 929.666666667 1098 907 1058.66666667 897 1010 c 2
 682 2 l 1
 401 2 l 1
 612 999 l 2
 627.333333333 1073 657.333333333 1135.33333333 702 1186 c 1
 732 1226.66666667 771 1261.33333333 819 1290 c 1
 787.666666667 1302 761.666666667 1323.33333333 741 1354 c 1
 721.666666667 1374.66666667 712.333333333 1402.66666667 713 1438 c 0
 713 1457.33333333 713.666666667 1471.66666667 715 1481 c 2
 745 1618 l 2
 755.666666667 1672.66666667 788.833333333 1718.33333333 844.5 1755 c 128
 900.166666667 1791.66666667 961.333333333 1810 1028 1810 c 2
 1419 1810 l 2
 1531 1810 1626.66666667 1782 1706 1726 c 128
 1785.33333333 1670 1842.66666667 1591.66666667 1878 1491 c 1
 1894.66666667 1431 1903 1371 1903 1311 c 0
 1903 1271.66666667 1898 1223 1888 1165 c 1
 1645 0 l 1
1628 1360 m 1
 1617.33333333 1413.33333333 1591.33333333 1459.66666667 1550 1499 c 1
 1486 1552.33333333 1403.66666667 1579 1303 1579 c 2
 1098 1579 l 2
 1043.33333333 1579 1014.66666667 1568.66666667 1012 1548 c 1
 997 1483 l 1
 994.333333333 1457 994.333333333 1439.33333333 997 1430 c 0
 998.333333333 1423.33333333 1000.5 1418.16666667 1003.5 1414.5 c 128
 1006.5 1410.83333333 1008.66666667 1408.33333333 1010 1407 c 1
 1507 1407 l 2
 1561.66666667 1407 1602 1391.33333333 1628 1360 c 1
EndSplineSet
LCarets2: 1 0
EndChar

StartChar: ga.sub
Encoding: 131 -1 131
Width: 202
Flags: HW
AnchorPoint: "Sub" -455 -131 mark 0
AnchorPoint: "Sub" 242 -885 basemark 0
LayerCount: 2
Fore
SplineSet
262 -840 m 1
 14 -840 l 1
 109 -395 l 1
 110.333333333 -374.333333333 103.5 -355.5 88.5 -338.5 c 128
 73.5 -321.5 53.6666666667 -313 29 -313 c 2
 -145 -313 l 2
 -175 -313 -200.333333333 -319.333333333 -221 -332 c 1
 -241.666666667 -352.666666667 -252.666666667 -373 -254 -393 c 1
 -348 -838 l 1
 -600 -838 l 1
 -506 -393 l 2
 -489.333333333 -311 -446.333333333 -243.333333333 -377 -190 c 1
 -313 -136.666666667 -238 -110.333333333 -152 -111 c 2
 100 -111 l 2
 186 -111 255.666666667 -134.666666667 309 -182 c 0
 348.333333333 -216 368.333333333 -261 369 -317 c 0
 369 -326.333333333 367.666666667 -342.333333333 365 -365 c 1
 262 -840 l 1
EndSplineSet
LCarets2: 1 0
EndChar

StartChar: gha.base
Encoding: 133 -1 133
Width: 2086
Flags: HW
LayerCount: 2
Fore
SplineSet
2796 1165 m 1
 2161 1165 l 1
 2176.33333333 1144.33333333 2186.66666667 1120.83333333 2192 1094.5 c 128
 2197.33333333 1068.16666667 2200 1036.33333333 2200 999 c 1
 2240.66666667 903.666666667 2285.66666667 856 2335 856 c 1
 2361 857.333333333 2382 864.333333333 2398 877 c 1
 2418.66666667 897.666666667 2429 909 2429 911 c 2
 2474 1122 l 1
 2748 1122 l 1
 2710 940 l 2
 2703.33333333 908.666666667 2692.33333333 876 2677 842 c 0
 2671.66666667 831.333333333 2660.66666667 811.333333333 2644 782 c 1
 2610 732.666666667 2571 694 2527 666 c 1
 2476.33333333 637.333333333 2431.33333333 623 2392 623 c 2
 2275 625 l 2
 2221.66666667 625 2175.33333333 642 2136 676 c 1
 2050 289 l 1
 2033.33333333 205.666666667 1993.66666667 137.333333333 1931 84 c 1
 1871 24 1805 -6 1733 -6 c 2
 1380 -6 l 2
 1321.33333333 -6 1275 14.3333333333 1241 55 c 0
 1238.33333333 57.6666666667 1229.5 68.6666666667 1214.5 88 c 128
 1199.5 107.333333333 1189.33333333 127 1184 147 c 1
 1159.33333333 111.666666667 1127 81 1087 55 c 1
 1039 14.3333333333 988 -6 934 -6 c 2
 567 -4 l 2
 503 -4 454 21.3333333333 420 72 c 0
 399.333333333 103.333333333 389 141.333333333 389 186 c 0
 389 198 390.333333333 217.333333333 393 244 c 1
 522 848 l 1
 864 848 l 2
 947.333333333 848 1009 823.333333333 1049 774 c 1
 1084.33333333 736 1102 690.333333333 1102 637 c 0
 1102 625 1100.66666667 608 1098 586 c 1
 1081 512 l 1
 801 512 l 1
 815 573 l 1
 816.333333333 585 814.333333333 595.166666667 809 603.5 c 128
 803.666666667 611.833333333 791.333333333 616 772 616 c 2
 750 616 l 1
 684 303 l 2
 678.666666667 282.333333333 679.333333333 264 686 248 c 1
 702.666666667 231.333333333 713.666666667 223 719 223 c 2
 952 223 l 2
 978 223 1004 240.666666667 1030 276 c 1
 1064 315.333333333 1086.66666667 360.666666667 1098 412 c 2
 1130 573 l 1
 1407 573 l 1
 1374 412 l 2
 1372.66666667 402.666666667 1372 388.333333333 1372 369 c 0
 1372 343 1377.66666667 315.666666667 1389 287 c 1
 1411 243 1432.66666667 221 1454 221 c 2
 1688 221 l 2
 1698.66666667 221 1713.83333333 228.166666667 1733.5 242.5 c 128
 1753.16666667 256.833333333 1766 277 1772 303 c 2
 1909 956 l 2
 1910.33333333 962.666666667 1911 973.666666667 1911 989 c 0
 1911 1029.66666667 1895.33333333 1066 1864 1098 c 0
 1824.66666667 1137.33333333 1770 1157 1700 1157 c 2
 578 1157 l 1
 625 1389 l 1
 2843 1389 l 1
 2796 1165 l 1
1452 803 m 1
 1176 803 l 1
 1229 1063 l 1
 1505 1063 l 1
 1452 803 l 1
1217 -301 m 1
 940 -301 l 1
 1008 12 l 1
 1284 12 l 1
 1217 -301 l 1
EndSplineSet
EndChar

StartChar: gha.imathra
Encoding: 134 -1 134
Width: 2484
Flags: HW
LayerCount: 2
Fore
SplineSet
1548 1223 m 2
 1532.66666667 1153.66666667 1498 1097 1444 1053 c 1
 1393.33333333 1007.66666667 1336.66666667 985 1274 985 c 2
 870 985 l 1
 918 1217 l 1
 1227 1217 l 1
 1242.33333333 1219.66666667 1253.66666667 1225 1261 1233 c 128
 1268.33333333 1241 1273.33333333 1247.83333333 1276 1253.5 c 128
 1278.66666667 1259.16666667 1280.66666667 1266.66666667 1282 1276 c 2
 1329 1509 l 2
 1334.33333333 1533.66666667 1334.33333333 1552.33333333 1329 1565 c 0
 1323.66666667 1574.33333333 1316.33333333 1579 1307 1579 c 2
 1202 1579 l 2
 1190 1579 1183.33333333 1574.33333333 1182 1565 c 2
 1171 1507 l 1
 1171 1493 l 1
 1186 1485 l 1
 1315 1485 l 1
 1264 1251 l 1
 1051 1251 l 2
 997.666666667 1251 954 1271 920 1311 c 1
 894 1337 881 1367.66666667 881 1403 c 0
 881 1418.33333333 881.666666667 1430.66666667 883 1440 c 2
 915 1591 l 1
 925.666666667 1657.66666667 960 1710.33333333 1018 1749 c 1
 1071.33333333 1789.66666667 1131.33333333 1810 1198 1810 c 2
 1479 1810 l 2
 1536.33333333 1810 1579.33333333 1789.66666667 1608 1749 c 1
 1628.66666667 1727 1638.66666667 1695.66666667 1638 1655 c 0
 1638 1633 1636.66666667 1616 1634 1604 c 2
 1548 1223 l 2
2779 948 m 2
 2763.66666667 870 2728.5 805.833333333 2673.5 755.5 c 128
 2618.5 705.166666667 2558.66666667 680 2494 680 c 2
 2292 680 l 2
 2238.66666667 680 2192.66666667 699 2154 737 c 1
 2058 295 l 2
 2038.66666667 213 1997.66666667 143.333333333 1935 86 c 1
 1876.33333333 27.3333333333 1811 -2 1739 -2 c 1
 1747 37 l 1
 1745 -2 l 1
 1393 0 l 2
 1335.66666667 0 1286.33333333 15.6666666667 1245 47 c 0
 1216.33333333 69 1197.33333333 95.6666666667 1188 127 c 1
 1159.33333333 93 1128 65 1094 43 c 1
 1040.66666667 11.6666666667 988.666666667 -4 938 -4 c 2
 575 -2 l 2
 511 -2 463.333333333 19.6666666667 432 63 c 1
 407.333333333 93 395 128 395 168 c 0
 395 192.666666667 396.333333333 210.333333333 399 221 c 2
 532 856 l 1
 877 856 l 2
 956.333333333 856 1017.66666667 833.333333333 1061 788 c 0
 1099 750 1118 707 1118 659 c 0
 1118 649.666666667 1116.66666667 635.333333333 1114 616 c 1
 1092 514 l 1
 811 514 l 1
 829 604 l 1
 819 614 l 1
 812.333333333 616.666666667 798.666666667 618 778 618 c 2
 762 618 l 1
 696 303 l 2
 690.666666667 282.333333333 692.166666667 263.5 700.5 246.5 c 128
 708.833333333 229.5 717.666666667 221 727 221 c 2
 961 221 l 2
 991 221 1018.66666667 238.666666667 1044 274 c 1
 1078 309.333333333 1100.66666667 354.666666667 1112 410 c 2
 1145 575 l 1
 1421 575 l 1
 1384 410 l 1
 1378.66666667 366 1386.33333333 324.333333333 1407 285 c 1
 1426.33333333 241 1446.66666667 219 1468 219 c 2
 1702 219 l 2
 1718.66666667 219 1735.5 227.5 1752.5 244.5 c 128
 1769.5 261.5 1780.66666667 280.333333333 1786 301 c 2
 1952 1077 l 1
 1953.33333333 1101.66666667 1947.83333333 1121.83333333 1935.5 1137.5 c 128
 1923.16666667 1153.16666667 1902 1161 1872 1161 c 2
 1686 1161 l 1
 1733 1395 l 1
 1991 1395 l 2
 2049.66666667 1395 2098 1378.16666667 2136 1344.5 c 128
 2174 1310.83333333 2200.66666667 1269.66666667 2216 1221 c 1
 2222.66666667 1191 2226 1156.66666667 2226 1118 c 0
 2226 1088 2224.66666667 1065.66666667 2222 1051 c 1
 2270 954.333333333 2313 905.666666667 2351 905 c 2
 2456 905 l 2
 2462.66666667 905 2471.5 912.166666667 2482.5 926.5 c 128
 2493.5 940.833333333 2503.66666667 963.666666667 2513 995 c 1
 2595 1397 l 1
 2869 1397 l 1
 2779 948 l 2
1212 -346 m 1
 936 -346 l 1
 1004 -33 l 1
 1280 -33 l 1
 1212 -346 l 1
EndSplineSet
LCarets2: 1 0
EndChar

StartChar: gha.sub
Encoding: 135 -1 135
Width: 430
Flags: HW
AnchorPoint: "Sub" -561 166 mark 0
AnchorPoint: "Sub" 602 -690 basemark 0
LayerCount: 2
Fore
SplineSet
862 -76 m 2
 842.666666667 -174 778 -252.333333333 668 -311 c 1
 631 -477 l 2
 624.333333333 -511 613.833333333 -540 599.5 -564 c 128
 585.166666667 -588 563.666666667 -613 535 -639 c 0
 481.666666667 -687 421.333333333 -711 354 -711 c 2
 43 -711 l 2
 -7.66666666667 -711 -53.3333333333 -695.333333333 -94 -664 c 0
 -124 -642 -149.333333333 -610.333333333 -170 -569 c 1
 -190.666666667 -591 -211.833333333 -610.833333333 -233.5 -628.5 c 128
 -255.166666667 -646.166666667 -278.333333333 -660.666666667 -303 -672 c 1
 -367 -710 -425.666666667 -729 -479 -729 c 2
 -784 -729 l 2
 -846.666666667 -729 -893.166666667 -711 -923.5 -675 c 128
 -953.833333333 -639 -969 -603.666666667 -969 -569 c 0
 -969 -552.333333333 -968.333333333 -539.333333333 -967 -530 c 2
 -928 -344 l 2
 -912.666666667 -276 -879.666666667 -224.666666667 -829 -190 c 1
 -779.666666667 -149.333333333 -724 -129 -662 -129 c 2
 -344 -129 l 1
 -383 -330 l 1
 -625 -330 l 2
 -641.666666667 -330 -655.333333333 -334 -666 -342 c 128
 -676.666666667 -350 -682.666666667 -360.333333333 -684 -373 c 2
 -709 -492 l 1
 -705 -514 l 1
 -694.333333333 -520.666666667 -686 -524 -680 -524 c 2
 -414 -524 l 2
 -402 -524 -386.333333333 -516.833333333 -367 -502.5 c 128
 -347.666666667 -488.166666667 -332.666666667 -475.666666667 -322 -465 c 0
 -278 -424.333333333 -253.333333333 -388.666666667 -248 -358 c 2
 -229 -262 l 1
 23 -262 l 1
 0 -373 l 2
 -5.33333333333 -399 4.33333333333 -426.333333333 29 -455 c 1
 44.3333333333 -470.333333333 58 -481.666666667 70 -489 c 128
 82 -496.333333333 96.3333333333 -500 113 -500 c 2
 358 -500 l 2
 374.666666667 -500 384.333333333 -489 387 -467 c 1
 406 -381 l 1
 174 -381 l 1
 217 -178 l 1
 500 -178 l 2
 522 -178 546.166666667 -166.5 572.5 -143.5 c 128
 598.833333333 -120.5 615 -96 621 -70 c 2
 651 82 l 2
 652.333333333 91.3333333333 619 120.666666667 551 170 c 1
 727 332 l 1
 852.333333333 243.333333333 909 164 897 94 c 1
 862 -76 l 2
-109 -840 m 1
 -360 -840 l 1
 -330 -686 l 1
 -172 -547 l 1
 -82 -686 l 1
 -109 -840 l 1
EndSplineSet
LCarets2: 1 0
EndChar

StartChar: nga
Encoding: 136 3225 136
Width: 1873
Flags: HW
LayerCount: 2
Fore
SplineSet
2015 238 m 2
 2003 174 1968.33333333 119.333333333 1911 74 c 1
 1857.66666667 26 1799.66666667 2 1737 2 c 2
 1325 4 l 2
 1277 4 1234 18.3333333333 1196 47 c 0
 1175.33333333 63.6666666667 1159.66666667 87 1149 117 c 1
 1133.66666667 92.3333333333 1110.33333333 69 1079 47 c 0
 1038.33333333 17 996 2 952 2 c 2
 557 4 l 2
 523 4 494 8.5 470 17.5 c 128
 446 26.5 421.666666667 41 397 61 c 1
 367 95 352 131.333333333 352 170 c 0
 352 176.666666667 353.333333333 189.666666667 356 209 c 2
 418 510 l 1
 928 850 l 1
 956.666666667 866.666666667 974.333333333 896.666666667 981 940 c 1
 1014 1102 l 1
 1019.33333333 1117.33333333 1014.16666667 1130.33333333 998.5 1141 c 128
 982.833333333 1151.66666667 960.666666667 1157 932 1157 c 2
 838 1157 l 1
 823 1100 l 1
 820.333333333 1079.33333333 822.333333333 1065.66666667 829 1059 c 0
 830.333333333 1057.66666667 832.833333333 1054.5 836.5 1049.5 c 128
 840.166666667 1044.5 842.666666667 1041.33333333 844 1040 c 1
 897 1040 l 1
 846 809 l 1
 678 811 l 2
 624.666666667 811 583 833.666666667 553 879 c 0
 532.333333333 909 522 944.333333333 522 985 c 0
 522 994.333333333 523.333333333 1010 526 1032 c 1
 602 1386 l 1
 1022 1386 l 2
 1091.33333333 1386 1150 1373.33333333 1198 1348 c 0
 1236 1327.33333333 1258 1299.33333333 1264 1264 c 1
 1372 1347.33333333 1476.33333333 1389 1577 1389 c 2
 2017 1389 l 2
 2070.33333333 1389 2109.33333333 1373 2134 1341 c 1
 2153.33333333 1307 2163 1275.66666667 2163 1247 c 0
 2163 1237.66666667 2161.66666667 1225.33333333 2159 1210 c 2
 2122 1024 l 1
 1845 1024 l 1
 1862 1114 l 2
 1863.33333333 1124.66666667 1862.5 1133.16666667 1859.5 1139.5 c 128
 1856.5 1145.83333333 1850 1149.66666667 1840 1151 c 128
 1830 1152.33333333 1824.33333333 1153 1823 1153 c 2
 1599 1153 l 2
 1559.66666667 1153 1525.33333333 1150 1496 1144 c 128
 1466.66666667 1138 1436 1127 1404 1111 c 128
 1372 1095 1341.66666667 1076.83333333 1313 1056.5 c 128
 1284.33333333 1036.16666667 1259.66666667 1013 1239 987 c 1
 1214 877 l 2
 1193.33333333 780.333333333 1146.33333333 711.333333333 1073 670 c 1
 670 381 l 1
 651 281 l 2
 649.666666667 270.333333333 655.5 259.333333333 668.5 248 c 128
 681.5 236.666666667 699 231 721 231 c 2
 907 231 l 2
 938.333333333 231 969 240 999 258 c 128
 1029 276 1047 295.666666667 1053 317 c 2
 1077 442 l 1
 1354 442 l 1
 1329 317 l 2
 1323.66666667 295 1328.33333333 276 1343 260 c 1
 1367.66666667 240.666666667 1397.33333333 231 1432 231 c 2
 1694 231 l 2
 1706 231 1714.66666667 232.666666667 1720 236 c 1
 1737 264 l 1
 1794 537 l 2
 1795.33333333 546.333333333 1796.66666667 558.5 1798 573.5 c 128
 1799.33333333 588.5 1795.33333333 596 1786 596 c 2
 1599 596 l 1
 1647 825 l 1
 1901 825 l 2
 1949 825 1985.66666667 815 2011 795 c 1
 2042.33333333 779.666666667 2064.33333333 755 2077 721 c 1
 2082.33333333 699 2085 677 2085 655 c 0
 2085 644.333333333 2083.66666667 629.333333333 2081 610 c 2
 2015 238 l 2
1356 520 m 1
 1079 520 l 1
 1137 780 l 1
 1413 780 l 1
 1356 520 l 1
EndSplineSet
LCarets2: 1 0
EndChar

StartChar: nga.sub
Encoding: 137 -1 137
Width: 401
Flags: HW
AnchorPoint: "Sub" -856 -66 mark 0
AnchorPoint: "Sub" 668 -811 basemark 0
LayerCount: 2
Fore
SplineSet
57 -467 m 1
 -188 -467 l 1
 -152 -295 l 1
 94 -295 l 1
 57 -467 l 1
684 -643 m 1
 673.333333333 -700.333333333 644 -744.666666667 596 -776 c 1
 546.666666667 -815.333333333 496.666666667 -835.333333333 446 -836 c 2
 37 -836 l 2
 15 -836 -4.83333333333 -832.166666667 -22.5 -824.5 c 128
 -40.1666666667 -816.833333333 -57.5 -806.5 -74.5 -793.5 c 128
 -91.5 -780.5 -105 -763.666666667 -115 -743 c 1
 -130.333333333 -759.666666667 -152.666666667 -777.666666667 -182 -797 c 0
 -198.666666667 -806.333333333 -217.166666667 -815.166666667 -237.5 -823.5 c 128
 -257.833333333 -831.833333333 -281 -836 -307 -836 c 2
 -748 -836 l 2
 -805.333333333 -836 -851.333333333 -820.166666667 -886 -788.5 c 128
 -920.666666667 -756.833333333 -938 -724 -938 -690 c 0
 -938 -674.666666667 -937.333333333 -663.666666667 -936 -657 c 2
 -905 -512 l 2
 -894.333333333 -462.666666667 -867.5 -423.333333333 -824.5 -394 c 128
 -781.5 -364.666666667 -731.333333333 -350 -674 -350 c 2
 -528 -350 l 1
 -518 -342 l 1
 -510 -295 l 1
 -514 -287 l 1
 -829 -287 l 1
 -786 -90 l 1
 -383 -90 l 2
 -343.666666667 -90 -313 -98.3333333333 -291 -115 c 0
 -281.666666667 -121.666666667 -273.333333333 -133.333333333 -266 -150 c 1
 -218 -109.333333333 -160 -88.6666666667 -92 -88 c 2
 260 -88 l 2
 322.666666667 -88 372 -103 408 -133 c 1
 436.666666667 -155 451 -186.333333333 451 -227 c 0
 451 -239 450.333333333 -248.666666667 449 -256 c 2
 420 -383 l 1
 174 -383 l 1
 197 -283 l 1
 198.333333333 -267.666666667 179 -260 139 -260 c 2
 -94 -260 l 2
 -128 -260 -161 -271 -193 -293 c 1
 -227 -309.666666667 -254.666666667 -335.666666667 -276 -371 c 1
 -291 -436 l 2
 -296.333333333 -460.666666667 -317.5 -484 -354.5 -506 c 128
 -391.5 -528 -429.666666667 -539 -469 -539 c 2
 -631 -539 l 2
 -651.666666667 -539 -662.666666667 -543.666666667 -664 -553 c 2
 -674 -604 l 1
 -670 -614 l 1
 -647 -625 l 1
 -309 -625 l 2
 -283 -625 -258.833333333 -618.5 -236.5 -605.5 c 128
 -214.166666667 -592.5 -202.333333333 -579.666666667 -201 -567 c 2
 -182 -471 l 1
 63 -471 l 1
 47 -553 l 2
 41.6666666667 -577.666666667 46.3333333333 -595.333333333 61 -606 c 1
 81.6666666667 -626.666666667 102.333333333 -637 123 -637 c 2
 406 -637 l 2
 421.333333333 -637 432 -632.333333333 438 -623 c 2
 461 -594 l 1
 492 -442 l 1
 729 -442 l 1
 684 -643 l 1
EndSplineSet
LCarets2: 1 0
EndChar

StartChar: ca.base
Encoding: 139 -1 139
Width: 1677
Flags: HW
LayerCount: 2
Fore
SplineSet
2259 678 m 1
 2056 678 l 1
 2065.33333333 658.666666667 2070.33333333 639.666666667 2071 621 c 0
 2071 609 2070 600 2068 594 c 2
 1995 240 l 2
 1979.66666667 173.333333333 1942.66666667 118 1884 74 c 1
 1826.66666667 26 1764.66666667 2 1698 2 c 2
 1274 4 l 2
 1230 4 1193.66666667 15 1165 37 c 0
 1153 47.6666666667 1142.33333333 61.3333333333 1133 78 c 1
 1121 61.3333333333 1102.33333333 47.6666666667 1077 37 c 1
 1033 12.3333333333 986.666666667 0 938 0 c 2
 575 2 l 2
 502.333333333 2 449.333333333 26.6666666667 416 76 c 1
 384.666666667 114 369 157 369 205 c 0
 369 214.333333333 370.333333333 230 373 252 c 1
 438 561 l 1
 938 834 l 1
 991 1094 l 1
 996.333333333 1113.33333333 992.666666667 1129.33333333 980 1142 c 128
 967.333333333 1154.66666667 948.666666667 1161 924 1161 c 2
 848 1161 l 1
 831 1096 l 1
 829.666666667 1079.33333333 833.833333333 1066.16666667 843.5 1056.5 c 128
 853.166666667 1046.83333333 862.666666667 1042 872 1042 c 2
 940 1042 l 1
 889 811 l 1
 707 813 l 2
 649.666666667 813 603.666666667 833.333333333 569 874 c 1
 544.333333333 900 532 933.666666667 532 975 c 0
 532 984.333333333 533.666666667 998.666666667 537 1018 c 2
 616 1389 l 1
 1092 1389 l 2
 1160 1389 1211 1365 1245 1317 c 1
 1273.66666667 1283 1288 1242 1288 1194 c 0
 1288 1172 1286.66666667 1155.66666667 1284 1145 c 2
 1194 700 l 1
 690 412 l 1
 668 317 l 1
 666.666666667 288.333333333 670 266.166666667 678 250.5 c 128
 686 234.833333333 699.666666667 227 719 227 c 2
 963 227 l 2
 987.666666667 227 1009.83333333 233.5 1029.5 246.5 c 128
 1049.16666667 259.5 1059.66666667 273.666666667 1061 289 c 1
 1092 440 l 1
 1368 440 l 1
 1343 315 l 2
 1341.66666667 308.333333333 1341 299 1341 287 c 0
 1341 276.333333333 1344.83333333 264.333333333 1352.5 251 c 128
 1360.16666667 237.666666667 1371.33333333 231 1386 231 c 2
 1632 231 l 2
 1658 231 1681 237.5 1701 250.5 c 128
 1721 263.5 1731.66666667 277.666666667 1733 293 c 1
 1792 580 l 2
 1798.66666667 610 1792.66666667 632.333333333 1774 647 c 1
 1763.33333333 666.333333333 1743.33333333 676 1714 676 c 2
 1403 676 l 1
 1454 907 l 1
 1815 907 l 1
 1868 1161 l 1
 1507 1161 l 1
 1554 1393 l 1
 2052 1393 l 1
 2146 1190 l 1
 2089 907 l 1
 2312 907 l 1
 2259 678 l 1
EndSplineSet
EndChar

StartChar: ca.imathra
Encoding: 140 -1 140
Width: 2039
Flags: HW
LayerCount: 2
Fore
SplineSet
2273 682 m 1
 2071 682 l 1
 2077.66666667 666.666666667 2081 649 2081 629 c 0
 2081 613.666666667 2080.33333333 602.666666667 2079 596 c 2
 2005 244 l 2
 1993 184 1964.33333333 129.333333333 1919 80 c 1
 1869.66666667 30.6666666667 1819.66666667 6 1769 6 c 2
 1286 8 l 2
 1245.33333333 8 1212 20.3333333333 1186 45 c 0
 1174 55.6666666667 1163 68.6666666667 1153 84 c 1
 1142.33333333 72 1124 59.6666666667 1098 47 c 1
 1051.33333333 21 1005.66666667 8 961 8 c 2
 565 8 l 2
 502.333333333 8 454 28 420 68 c 0
 394 96.6666666667 381 130.666666667 381 170 c 0
 381 185.333333333 381.666666667 197.666666667 383 207 c 2
 465 602 l 1
 956 848 l 1
 1014 1108 l 1
 1016.66666667 1130 1011.66666667 1145.66666667 999 1155 c 1
 987 1167 968.666666667 1173.33333333 944 1174 c 2
 868 1174 l 1
 854 1106 l 2
 851.333333333 1090.66666667 852.666666667 1078.33333333 858 1069 c 1
 868.666666667 1058.33333333 879.666666667 1053 891 1053 c 2
 987 1053 l 1
 940 821 l 1
 725 821 l 2
 666.333333333 821 622.666666667 841 594 881 c 1
 568 907 555 937.666666667 555 973 c 0
 555 988.333333333 555.666666667 999.333333333 557 1006 c 2
 639 1403 l 1
 1130 1403 l 2
 1196.66666667 1403 1245.33333333 1380.33333333 1276 1335 c 1
 1298 1297 1309 1255.33333333 1309 1210 c 0
 1309 1190.66666667 1308.33333333 1176.33333333 1307 1167 c 2
 1210 709 l 1
 713 449 l 1
 680 301 l 1
 680 281.666666667 684.833333333 266 694.5 254 c 128
 704.166666667 242 717 236 733 236 c 2
 950 236 l 2
 981.333333333 236 1009.66666667 242.333333333 1035 255 c 128
 1060.33333333 267.666666667 1073.66666667 281.666666667 1075 297 c 1
 1118 506 l 1
 1395 506 l 1
 1358 324 l 2
 1352.66666667 302 1355.33333333 282.166666667 1366 264.5 c 128
 1376.66666667 246.833333333 1387.66666667 238 1399 238 c 2
 1675 238 l 2
 1690.33333333 238 1705.5 244.333333333 1720.5 257 c 128
 1735.5 269.666666667 1743.66666667 283.666666667 1745 299 c 1
 1804 588 l 2
 1809.33333333 610 1806.66666667 629 1796 645 c 1
 1786.66666667 654.333333333 1778.16666667 662.166666667 1770.5 668.5 c 128
 1762.83333333 674.833333333 1751.66666667 679.333333333 1737 682 c 1
 1417 680 l 1
 1464 911 l 1
 1798 911 l 1
 1852.66666667 933 1884.66666667 963 1894 1001 c 1
 1968 1354 l 2
 1968 1355.33333333 1949 1356 1911 1356 c 2
 1827 1356 l 1
 1828.33333333 1344 1828.33333333 1332.33333333 1827 1321 c 2
 1819 1274 l 2
 1817.66666667 1267.33333333 1821.66666667 1260.16666667 1831 1252.5 c 128
 1840.33333333 1244.83333333 1848.33333333 1241 1855 1241 c 2
 1958 1241 l 1
 1911 1010 l 1
 1679 1010 l 2
 1628.33333333 1010 1587.33333333 1029 1556 1067 c 0
 1534 1093 1523.33333333 1121.66666667 1524 1153 c 0
 1524 1159.66666667 1525.33333333 1172.66666667 1528 1192 c 2
 1573 1409 l 2
 1585 1463.66666667 1612.5 1507.66666667 1655.5 1541 c 128
 1698.5 1574.33333333 1747.33333333 1591 1802 1591 c 2
 2079 1591 l 2
 2141.66666667 1591 2188 1569.33333333 2218 1526 c 1
 2242.66666667 1496 2255 1460.33333333 2255 1419 c 0
 2255 1409.66666667 2253.66666667 1394 2251 1372 c 1
 2177 1030 l 1
 2170.33333333 990.666666667 2152 953.333333333 2122 918 c 1
 2331 918 l 1
 2273 682 l 1
EndSplineSet
LCarets2: 1 0
EndChar

StartChar: ca.sub
Encoding: 141 -1 141
Width: 401
Flags: HW
AnchorPoint: "Sub" -676 276 mark 0
AnchorPoint: "Sub" 547 -815 basemark 0
LayerCount: 2
Fore
SplineSet
754 -324 m 1
 625 -324 l 1
 637 -343.333333333 643 -367.666666667 643 -397 c 0
 643 -403.666666667 641.666666667 -418 639 -440 c 1
 600 -629 l 2
 589.333333333 -683.666666667 559.666666667 -730.333333333 511 -769 c 128
 462.333333333 -807.666666667 412.666666667 -827 362 -827 c 2
 68 -827 l 2
 8 -827 -42.6666666667 -812 -84 -782 c 0
 -110 -761.333333333 -128.333333333 -736.333333333 -139 -707 c 1
 -163.666666667 -741 -193.666666667 -767.333333333 -229 -786 c 1
 -251 -795.333333333 -277.666666667 -804.833333333 -309 -814.5 c 128
 -340.333333333 -824.166666667 -368.333333333 -829 -393 -829 c 2
 -707 -829 l 1
 -751 -831.666666667 -785.166666667 -830 -809.5 -824 c 128
 -833.833333333 -818 -860.333333333 -807.666666667 -889 -793 c 1
 -908.333333333 -781 -922 -764 -930 -742 c 128
 -938 -720 -940.666666667 -699.333333333 -938 -680 c 1
 -899 -504 l 2
 -889.666666667 -454.666666667 -864.333333333 -414.333333333 -823 -383 c 1
 -797 -367.666666667 -774.5 -357 -755.5 -351 c 128
 -736.5 -345 -714 -342 -688 -342 c 2
 -543 -342 l 2
 -532.333333333 -342 -517.333333333 -337.333333333 -498 -328 c 1
 -483 -317 l 1
 -475 -281 l 1
 -490.333333333 -278.333333333 -502.666666667 -276.666666667 -512 -276 c 2
 -825 -276 l 1
 -782 -76 l 1
 -401 -76 l 2
 -343.666666667 -76 -294.666666667 -86 -254 -106 c 1
 -218.666666667 -141.333333333 -203.666666667 -176.333333333 -209 -211 c 1
 -246 -387 l 2
 -255.333333333 -432.333333333 -286.666666667 -474.666666667 -340 -514 c 1
 -394.666666667 -549.333333333 -450.666666667 -567 -508 -567 c 2
 -637 -567 l 1
 -666 -571 l 1
 -670 -582 l 1
 -674 -610 l 1
 -670 -618 l 1
 -651 -629 l 1
 -383 -629 l 2
 -349 -629 -315.166666667 -616.666666667 -281.5 -592 c 128
 -247.833333333 -567.333333333 -226.333333333 -537.333333333 -217 -502 c 1
 -195 -387 l 1
 53 -387 l 1
 25 -518 l 1
 23.6666666667 -540 32.5 -563.666666667 51.5 -589 c 128
 70.5 -614.333333333 91 -627 113 -627 c 2
 301 -627 l 2
 307.666666667 -627 320.666666667 -622 340 -612 c 1
 352 -601.333333333 359.333333333 -586.333333333 362 -567 c 1
 399 -406 l 2
 404.333333333 -384 399.666666667 -364.666666667 385 -348 c 1
 374.333333333 -331.333333333 353.333333333 -323.333333333 322 -324 c 2
 39 -324 l 1
 82 -121 l 1
 266 -121 l 1
 372.666666667 -39 432 31.3333333333 444 90 c 2
 524 473 l 1
 778 473 l 1
 696 90 l 1
 675.333333333 13.3333333333 629 -57 557 -121 c 1
 797 -121 l 1
 754 -324 l 1
EndSplineSet
LCarets2: 1 0
EndChar

StartChar: cha.base
Encoding: 143 -1 143
Width: 1492
Flags: HW
LayerCount: 2
Fore
SplineSet
1980 248 m 2
 1964.66666667 175.333333333 1927.33333333 115.333333333 1868 68 c 1
 1808 17.3333333333 1743 -8 1673 -8 c 2
 1378 -8 l 2
 1328.66666667 -8 1286.33333333 7 1251 37 c 1
 1231.66666667 49 1214 68 1198 94 c 1
 1182.66666667 73.3333333333 1159.33333333 54.3333333333 1128 37 c 0
 1078.66666667 7 1032.33333333 -8 989 -8 c 2
 672 -6 l 2
 599.333333333 -6 540.666666667 16.3333333333 496 61 c 1
 462 92.3333333333 444.666666667 132 444 180 c 0
 444 189.333333333 445.666666667 205 449 227 c 1
 637 1116 l 2
 647.666666667 1169.33333333 668.666666667 1215.66666667 700 1255 c 1
 735.333333333 1304.33333333 775.666666667 1337.33333333 821 1354 c 1
 861.666666667 1378.66666667 909 1391 963 1391 c 2
 1405 1391 l 1
 1325 1016 l 2
 1309.66666667 948 1278.33333333 893.333333333 1231 852 c 1
 1176.33333333 802.666666667 1121.66666667 778 1067 778 c 2
 881 778 l 1
 928 1012 l 1
 1004 1012 l 1
 1019.33333333 1014.66666667 1029.33333333 1018.66666667 1034 1024 c 0
 1046 1039.33333333 1053 1055 1055 1071 c 1
 1073 1157 l 1
 993 1157 l 2
 964.333333333 1157 942.666666667 1151.66666667 928 1141 c 1
 912.666666667 1125.66666667 902.333333333 1108.66666667 897 1090 c 1
 731 297 l 1
 725.666666667 277.666666667 727.833333333 259.5 737.5 242.5 c 128
 747.166666667 225.5 760 217 776 217 c 2
 971 217 l 2
 995.666666667 217 1025 227.333333333 1059 248 c 1
 1065.66666667 257.333333333 1073.16666667 266.833333333 1081.5 276.5 c 128
 1089.83333333 286.166666667 1094.66666667 295.666666667 1096 305 c 2
 1128 463 l 1
 1403 463 l 1
 1370 305 l 1
 1368.66666667 285.666666667 1373.5 266.166666667 1384.5 246.5 c 128
 1395.5 226.833333333 1416 217 1446 217 c 2
 1620 217 l 2
 1636.66666667 217 1653.83333333 225.833333333 1671.5 243.5 c 128
 1689.16666667 261.166666667 1700.66666667 281 1706 303 c 2
 1868 1071 l 2
 1877.33333333 1110.33333333 1850 1137.66666667 1786 1153 c 1
 1475 1151 l 1
 1522 1382 l 1
 1862 1382 l 1
 1958.66666667 1371.33333333 2034.33333333 1337.33333333 2089 1280 c 1
 2128.33333333 1230.66666667 2148 1178.66666667 2148 1124 c 0
 2148 1113.33333333 2146.66666667 1097 2144 1075 c 1
 1980 248 l 2
1225 -340 m 1
 950 -340 l 1
 1016 -29 l 1
 1290 -29 l 1
 1225 -340 l 1
EndSplineSet
EndChar

StartChar: cha.imathra
Encoding: 144 -1 144
Width: 1845
Flags: HW
LayerCount: 2
Fore
SplineSet
1982 252 m 1
 1965.33333333 179.333333333 1930.66666667 119.333333333 1878 72 c 1
 1823.33333333 18.6666666667 1762.66666667 -8 1696 -8 c 2
 1376 -8 l 2
 1326.66666667 -8 1284.33333333 7 1249 37 c 1
 1224.33333333 53.6666666667 1207.33333333 74.6666666667 1198 100 c 1
 1188.66666667 88 1177.66666667 76.6666666667 1165 66 c 0
 1163.66666667 64.6666666667 1150.66666667 54.3333333333 1126 35 c 1
 1080.66666667 7.66666666667 1034.33333333 -6 987 -6 c 2
 670 -4 l 2
 597.333333333 -4 538.666666667 18.3333333333 494 63 c 0
 460 97 442.666666667 138 442 186 c 0
 442 195.333333333 443.333333333 211 446 233 c 1
 637 1124 l 1
 643.666666667 1172 664.5 1218.83333333 699.5 1264.5 c 128
 734.5 1310.16666667 774.333333333 1343.33333333 819 1364 c 1
 841 1376 864.666666667 1384.83333333 890 1390.5 c 128
 915.333333333 1396.16666667 938 1399 958 1399 c 2
 1401 1399 l 1
 1321 1024 l 2
 1305.66666667 954.666666667 1274.33333333 899.333333333 1227 858 c 1
 1172.33333333 808.666666667 1117.66666667 784 1063 784 c 2
 877 784 l 1
 928 1022 l 1
 1004 1022 l 1
 1034 1030 l 1
 1036.66666667 1036.66666667 1038.66666667 1040.66666667 1040 1042 c 128
 1041.33333333 1043.33333333 1042.66666667 1045.66666667 1044 1049 c 2
 1069 1163 l 1
 989 1163 l 2
 964.333333333 1163 944 1158.33333333 928 1149 c 1
 910 1133.66666667 900.333333333 1116 899 1096 c 1
 731 303 l 2
 725.666666667 278.333333333 730.166666667 258.833333333 744.5 244.5 c 128
 758.833333333 230.166666667 775.666666667 223 795 223 c 2
 971 223 l 2
 986.333333333 223 999 224.666666667 1009 228 c 128
 1019 231.333333333 1035 238.666666667 1057 250 c 1
 1063.66666667 259.333333333 1071.16666667 268.833333333 1079.5 278.5 c 128
 1087.83333333 288.166666667 1092.66666667 298.333333333 1094 309 c 2
 1126 465 l 1
 1401 465 l 1
 1368 309 l 1
 1366.66666667 287 1372.5 267.166666667 1385.5 249.5 c 128
 1398.5 231.833333333 1418 223 1444 223 c 2
 1618 223 l 2
 1637.33333333 223 1655.5 231.5 1672.5 248.5 c 128
 1689.5 265.5 1700.66666667 286.333333333 1706 311 c 2
 1921 1317 l 1
 1923.66666667 1337.66666667 1921.33333333 1354 1914 1366 c 128
 1906.66666667 1378 1896.66666667 1384 1884 1384 c 2
 1796 1384 l 2
 1780.66666667 1384 1767 1380.66666667 1755 1374 c 1
 1745.66666667 1358.66666667 1740.33333333 1348.33333333 1739 1343 c 2
 1722 1262 l 2
 1720.66666667 1251.33333333 1721.33333333 1240.33333333 1724 1229 c 1
 1739.33333333 1218.33333333 1751.66666667 1212.66666667 1761 1212 c 2
 1851 1212 l 1
 1804 981 l 1
 1638 983 l 2
 1565.33333333 983 1509.33333333 1002.66666667 1470 1042 c 0
 1440 1073.33333333 1425 1111.66666667 1425 1157 c 0
 1425 1166.33333333 1426.66666667 1182 1430 1204 c 1
 1468 1395 l 2
 1483.33333333 1461.66666667 1517.33333333 1514.83333333 1570 1554.5 c 128
 1622.66666667 1594.16666667 1679 1614 1739 1614 c 2
 2021 1614 l 2
 2061.66666667 1614 2100 1601.66666667 2136 1577 c 1
 2152.66666667 1560.33333333 2165.66666667 1544.5 2175 1529.5 c 128
 2184.33333333 1514.5 2190.83333333 1498.5 2194.5 1481.5 c 128
 2198.16666667 1464.5 2201.33333333 1450.83333333 2204 1440.5 c 128
 2206.66666667 1430.16666667 2208 1417 2208 1401 c 256
 2208 1384.33333333 2205.33333333 1366 2200 1346 c 1
 1982 252 l 1
1223 -336 m 1
 948 -336 l 1
 1016 -23 l 1
 1290 -23 l 1
 1223 -336 l 1
EndSplineSet
LCarets2: 1 0
EndChar

StartChar: cha.sub
Encoding: 145 -1 145
Width: 319
Flags: HW
AnchorPoint: "Sub" -598 346 mark 0
AnchorPoint: "Sub" 535 -758 basemark 0
LayerCount: 2
Fore
SplineSet
582 -475 m 2
 565.333333333 -557 532.333333333 -626.666666667 483 -684 c 1
 433.666666667 -746.666666667 382.666666667 -778 330 -778 c 2
 72 -778 l 2
 17.3333333333 -778 -25.6666666667 -763.666666667 -57 -735 c 1
 -81.6666666667 -715.666666667 -97.3333333333 -695.333333333 -104 -674 c 1
 -123.333333333 -698.666666667 -147.333333333 -719 -176 -735 c 1
 -220 -763.666666667 -265 -778 -311 -778 c 2
 -606 -776 l 1
 -614 -774 l 1
 -667.333333333 -774 -711 -751.666666667 -745 -707 c 1
 -767 -673 -778 -636.666666667 -778 -598 c 0
 -778 -591.333333333 -776.666666667 -577 -774 -555 c 1
 -729 -338 l 2
 -717 -278 -686.333333333 -225.333333333 -637 -180 c 1
 -587.666666667 -139.333333333 -529 -119 -461 -119 c 2
 -193 -119 l 1
 -240 -348 l 1
 -451 -348 l 1
 -466.333333333 -350.666666667 -476.5 -354.833333333 -481.5 -360.5 c 128
 -486.5 -366.166666667 -490.666666667 -378.333333333 -494 -397 c 2
 -518 -514 l 2
 -520.666666667 -533.333333333 -519 -546 -513 -552 c 128
 -507 -558 -500.666666667 -561 -494 -561 c 2
 -285 -561 l 2
 -264.333333333 -561 -243 -551.166666667 -221 -531.5 c 128
 -199 -511.833333333 -185.333333333 -484.333333333 -180 -449 c 1
 -162 -362 l 1
 72 -362 l 1
 49 -459 l 1
 47.6666666667 -474.333333333 47 -485.333333333 47 -492 c 0
 47 -508.666666667 51.5 -523.666666667 60.5 -537 c 128
 69.5 -550.333333333 86.3333333333 -557 111 -557 c 2
 256 -557 l 2
 276.666666667 -557 297 -549.666666667 317 -535 c 1
 337.666666667 -515.666666667 350.666666667 -495 356 -473 c 2
 444 -53 l 2
 449.333333333 -31 452.333333333 -9.33333333333 453 12 c 0
 453 47.3333333333 443.333333333 81 424 113 c 1
 399.333333333 158.333333333 350 188.333333333 276 203 c 1
 406 403 l 1
 441.333333333 393.666666667 467 386.333333333 483 381 c 0
 523.666666667 365.666666667 555.333333333 343 578 313 c 1
 626 269 655.333333333 214.666666667 666 150 c 1
 672.666666667 120 676 86.3333333333 676 49 c 0
 676 37 675.666666667 23.5 675 8.5 c 128
 674.333333333 -6.5 671.333333333 -28.3333333333 666 -57 c 2
 582 -475 l 2
-41 -907 m 1
 -289 -907 l 1
 -264 -788 l 1
 -104 -643 l 1
 -18 -788 l 1
 -41 -907 l 1
EndSplineSet
LCarets2: 1 0
EndChar

StartChar: ja
Encoding: 146 3228 146
Width: 1900
Flags: HW
LayerCount: 2
Fore
SplineSet
2107 553 m 1
 2040 238 l 1
 2029.33333333 197.333333333 2011 159 1985 123 c 0
 1973 103.666666667 1958.33333333 87.5 1941 74.5 c 128
 1923.66666667 61.5 1905.33333333 49.6666666667 1886 39 c 1
 1857.33333333 28.3333333333 1834.5 20.1666666667 1817.5 14.5 c 128
 1800.5 8.83333333333 1782.33333333 6 1763 6 c 2
 1315 6 l 2
 1275.66666667 6 1240 20.3333333333 1208 49 c 1
 1191.33333333 61 1180.66666667 76.6666666667 1176 96 c 1
 1164 76.6666666667 1147.33333333 61.6666666667 1126 51 c 1
 1094.66666667 21 1056.66666667 6 1012 6 c 2
 559 8 l 2
 525 8 496 12.5 472 21.5 c 128
 448 30.5 423.666666667 45.3333333333 399 66 c 1
 369 100 354 136 354 174 c 0
 354 180.666666667 355.333333333 193.666666667 358 213 c 2
 432 567 l 1
 952 801 l 1
 997.333333333 831 1022.66666667 861 1028 891 c 2
 1067 1079 l 2
 1072.33333333 1101 1066.5 1120.5 1049.5 1137.5 c 128
 1032.5 1154.5 1009 1163 979 1163 c 2
 868 1163 l 1
 846 1067 l 2
 844.666666667 1061.66666667 850.166666667 1059 862.5 1059 c 128
 881 1059 881 1059 911 1059 c 2
 991 1059 l 1
 938 811 l 1
 743 813 l 2
 679 813 630 833.333333333 596 874 c 0
 570 904 557 938.333333333 557 977 c 0
 557 986.333333333 558.333333333 1000.66666667 561 1020 c 2
 641 1391 l 1
 1118 1391 l 2
 1168.66666667 1391 1214.33333333 1383.33333333 1255 1368 c 1
 1300.33333333 1343.33333333 1329 1316.66666667 1341 1288 c 1
 1357.66666667 1266 1366 1240.66666667 1366 1212 c 0
 1366 1200 1365.33333333 1191.33333333 1364 1186 c 1
 1399.33333333 1127.33333333 1441 1098 1489 1098 c 2
 1784 1098 l 2
 1786.66666667 1098 1797.66666667 1102.66666667 1817 1112 c 1
 1826.33333333 1118.66666667 1831.33333333 1122.66666667 1832 1124 c 128
 1832.66666667 1125.33333333 1833.66666667 1126.66666667 1835 1128 c 2
 1845 1174 l 1
 1838.33333333 1183.33333333 1832.33333333 1188 1827 1188 c 2
 1761 1188 l 1
 1808 1419 l 1
 1933 1419 l 2
 1973.66666667 1419 2010 1411 2042 1395 c 0
 2061.33333333 1384.33333333 2076.33333333 1373.5 2087 1362.5 c 128
 2097.66666667 1351.5 2104.33333333 1336.33333333 2107 1317 c 1
 2117.66666667 1295 2123.33333333 1271 2124 1245 c 0
 2124 1238.33333333 2122.66666667 1225.33333333 2120 1206 c 2
 2095 1083 l 2
 2089.66666667 1055.66666667 2079.16666667 1030.16666667 2063.5 1006.5 c 128
 2047.83333333 982.833333333 2027 960 2001 938 c 1
 1947.66666667 897.333333333 1889.66666667 877 1827 877 c 2
 1464 877 l 2
 1406.66666667 877 1353.66666667 896 1305 934 c 1
 1282 831 l 2
 1275.33333333 797 1260.66666667 765 1238 735 c 128
 1215.33333333 705 1186.33333333 677.666666667 1151 653 c 1
 676 442 l 1
 651 324 l 2
 645.666666667 299.333333333 650.5 280.166666667 665.5 266.5 c 128
 680.5 252.833333333 697.666666667 246 717 246 c 2
 979 246 l 2
 994.333333333 246 1014 254 1038 270 c 0
 1044.66666667 275.333333333 1051.83333333 282.833333333 1059.5 292.5 c 128
 1067.16666667 302.166666667 1072.33333333 315.333333333 1075 332 c 2
 1094 434 l 1
 1370 434 l 1
 1354 346 l 1
 1348.66666667 324 1354 302.333333333 1370 281 c 1
 1390.66666667 259 1414 248 1440 248 c 2
 1657 248 l 2
 1683 248 1707.16666667 258.166666667 1729.5 278.5 c 128
 1751.83333333 298.833333333 1766.66666667 322 1774 348 c 1
 1810 524 l 2
 1812.66666667 539.333333333 1808 552.5 1796 563.5 c 128
 1784 574.5 1765.66666667 580 1741 580 c 2
 1587 580 l 1
 1638 811 l 1
 1942 811 l 2
 1999.33333333 811 2043 786.333333333 2073 737 c 0
 2093.66666667 701.666666667 2103.66666667 662 2103 618 c 0
 2103 608.666666667 2104.33333333 587 2107 553 c 1
EndSplineSet
LCarets2: 1 0
EndChar

StartChar: ja.base
Encoding: 147 -1 147
Width: 1548
Flags: HW
LayerCount: 2
Fore
SplineSet
2048 266 m 1
 2031.33333333 198 1992 137 1930 83 c 128
 1868 29 1803 2 1735 2 c 2
 1305 4 l 2
 1267 4 1233.33333333 17 1204 43 c 1
 1192 58.3333333333 1181 75.3333333333 1171 94 c 1
 1165.66666667 87.3333333333 1159.33333333 80.1666666667 1152 72.5 c 128
 1144.66666667 64.8333333333 1131.33333333 55.6666666667 1112 45 c 0
 1068 16.3333333333 1021.66666667 2 973 2 c 2
 547 4 l 2
 484.333333333 4 433 23.6666666667 393 63 c 1
 363 97 348 133.333333333 348 172 c 0
 348 178.666666667 349.333333333 191.666666667 352 211 c 2
 426 565 l 1
 903 797 l 1
 943.666666667 827 974.333333333 852.833333333 995 874.5 c 128
 1015.66666667 896.166666667 1027.33333333 918 1030 940 c 1
 1059 1073 l 2
 1064.33333333 1097.66666667 1061 1119.66666667 1049 1139 c 1
 1037 1151 1019.66666667 1157 997 1157 c 2
 864 1157 l 1
 854 1114 l 1
 852.666666667 1097.33333333 853.666666667 1085 857 1077 c 128
 860.333333333 1069 863.666666667 1063.66666667 867 1061 c 128
 870.333333333 1058.33333333 873.666666667 1057 877 1057 c 2
 956 1057 l 1
 903 809 l 1
 737 811 l 2
 677 811 628 831.333333333 590 872 c 1
 564 902 551 936.333333333 551 975 c 0
 551 984.333333333 552.333333333 998.666666667 555 1018 c 2
 635 1389 l 1
 1108 1389 l 2
 1158.66666667 1389 1204.83333333 1379 1246.5 1359 c 128
 1288.16666667 1339 1319 1308.66666667 1339 1268 c 0
 1351 1243.33333333 1357.33333333 1216 1358 1186 c 0
 1358 1170.66666667 1357.33333333 1159.66666667 1356 1153 c 1
 1387.33333333 1115 1418 1096 1448 1096 c 2
 1731 1096 l 2
 1733.66666667 1096 1737.66666667 1098.33333333 1743 1103 c 128
 1748.33333333 1107.66666667 1754 1111.66666667 1760 1115 c 128
 1766 1118.33333333 1770.66666667 1128.33333333 1774 1145 c 1
 1778 1159 l 1
 1454 1159 l 1
 1501 1391 l 1
 1849 1391 l 2
 1921.66666667 1391 1977 1373 2015 1337 c 1
 2045 1301.66666667 2060 1265 2060 1227 c 0
 2060 1217.66666667 2058.66666667 1203.33333333 2056 1184 c 2
 2034 1075 l 2
 2023.33333333 1021.66666667 1989.83333333 973.5 1933.5 930.5 c 128
 1877.16666667 887.5 1819.66666667 866 1761 866 c 2
 1452 866 l 2
 1423.33333333 866 1397 870.166666667 1373 878.5 c 128
 1349 886.833333333 1324 901.333333333 1298 922 c 1
 1282 848 l 2
 1271.33333333 794.666666667 1216.66666667 734.666666667 1118 668 c 1
 670 428 l 1
 645 309 l 2
 643.666666667 299.666666667 643.666666667 290.166666667 645 280.5 c 128
 646.333333333 270.833333333 650.833333333 259.833333333 658.5 247.5 c 128
 666.166666667 235.166666667 680.666666667 229 702 229 c 2
 965 229 l 2
 984.333333333 229 1006 237.333333333 1030 254 c 1
 1050.66666667 273.333333333 1063.66666667 293.666666667 1069 315 c 1
 1087 416 l 1
 1364 416 l 1
 1348 330 l 2
 1341.33333333 301.333333333 1345.33333333 277.333333333 1360 258 c 1
 1369.33333333 237.333333333 1383.66666667 227 1403 227 c 2
 1655 227 l 2
 1679.66666667 227 1704.33333333 235.333333333 1729 252 c 1
 1753.66666667 272.666666667 1767 293 1769 313 c 1
 1812 518 l 2
 1813.33333333 527.333333333 1808.66666667 536.833333333 1798 546.5 c 128
 1787.33333333 556.166666667 1767 561 1737 561 c 2
 1589 561 l 1
 1636 791 l 1
 1919 791 l 2
 1987 791 2036.66666667 770.333333333 2068 729 c 1
 2092.66666667 703 2105 668.333333333 2105 625 c 0
 2105 615.666666667 2103.66666667 600 2101 578 c 2
 2048 266 l 1
EndSplineSet
EndChar

StartChar: ja.imathra
Encoding: 148 -1 148
Width: 1923
Flags: HW
LayerCount: 2
Fore
SplineSet
2060 240 m 2
 2048 173.333333333 2010.66666667 117.333333333 1948 72 c 1
 1889.33333333 24 1825 0 1755 0 c 2
 1296 2 l 2
 1255.33333333 2 1222.66666667 15 1198 41 c 1
 1181.33333333 51.6666666667 1170.33333333 67.3333333333 1165 88 c 1
 1114 41 l 1
 1076 12.3333333333 1036.33333333 -2 995 -2 c 2
 569 -2 l 2
 537.666666667 -2 507 4.5 477 17.5 c 128
 447 30.5 421 47.3333333333 399 68 c 1
 369 103.333333333 354 142.666666667 354 186 c 0
 354 195.333333333 355.333333333 211 358 233 c 1
 420 532 l 1
 967 819 l 1
 1001 847.666666667 1020.66666667 877.666666667 1026 909 c 2
 1065 1092 l 2
 1070.33333333 1111.33333333 1068.33333333 1128.33333333 1059 1143 c 1
 1048.33333333 1153.66666667 1033.33333333 1159 1014 1159 c 2
 860 1159 l 1
 844 1094 l 1
 845.333333333 1078.66666667 848.333333333 1068.33333333 853 1063 c 128
 857.666666667 1057.66666667 864.666666667 1055 874 1055 c 2
 954 1055 l 1
 903 807 l 1
 735 809 l 2
 672.333333333 809 624 829.333333333 590 870 c 1
 561.333333333 898.666666667 547 933.666666667 547 975 c 0
 547 981.666666667 548.333333333 994.666666667 551 1014 c 2
 631 1389 l 1
 1104 1389 l 2
 1187.33333333 1389 1252.16666667 1372.83333333 1298.5 1340.5 c 128
 1344.83333333 1308.16666667 1368 1265.33333333 1368 1212 c 1
 1430.66666667 1178 1498.33333333 1161 1571 1161 c 2
 1638 1161 l 1
 1690 1399 l 1
 1700.66666667 1459 1731.33333333 1508.66666667 1782 1548 c 1
 1804 1567.33333333 1830.66666667 1581.83333333 1862 1591.5 c 128
 1893.33333333 1601.16666667 1923.33333333 1606 1952 1606 c 2
 2097 1606 l 2
 2165 1606 2215 1583.33333333 2247 1538 c 1
 2269 1504 2279.66666667 1465 2279 1421 c 0
 2279 1414.33333333 2277.66666667 1398 2275 1372 c 1
 2230 1155 l 2
 2223.33333333 1121 2210.5 1090.66666667 2191.5 1064 c 128
 2172.5 1037.33333333 2147.33333333 1013 2116 991 c 1
 2061.33333333 941.666666667 1997.66666667 917.333333333 1925 918 c 2
 1554 918 l 2
 1465.33333333 918 1385 933 1313 963 c 1
 1284 831 l 1
 1272 768.333333333 1240.66666667 722.666666667 1190 694 c 1
 674 428 l 1
 645 289 l 1
 643.666666667 272.333333333 647.666666667 259.333333333 657 250 c 1
 662.333333333 234.666666667 675.333333333 227 696 227 c 2
 971 227 l 2
 987.666666667 227 1008.66666667 236.666666667 1034 256 c 1
 1052 266.666666667 1063.66666667 283 1069 305 c 2
 1092 416 l 1
 1368 416 l 1
 1352 330 l 2
 1350.66666667 324.666666667 1350 318.833333333 1350 312.5 c 128
 1350 303 1350 303 1350 301 c 0
 1350 284.333333333 1355 268.166666667 1365 252.5 c 128
 1375 236.833333333 1387.66666667 229 1403 229 c 2
 1698 229 l 2
 1717.33333333 229 1738.83333333 238.333333333 1762.5 257 c 128
 1786.16666667 275.666666667 1799.33333333 295 1802 315 c 1
 1839 496 l 1
 1844.33333333 515.333333333 1839.66666667 532.333333333 1825 547 c 1
 1805.66666667 559 1783.66666667 565 1759 565 c 2
 1593 565 l 1
 1640 797 l 1
 1923 797 l 2
 1972.33333333 797 2012.66666667 788.666666667 2044 772 c 1
 2079.33333333 750 2102.66666667 723.333333333 2114 692 c 1
 2126 667.333333333 2132 644.333333333 2132 623 c 0
 2132 616.333333333 2130.66666667 603.333333333 2128 584 c 2
 2060 240 l 2
1989 1223 m 1
 2017 1356 l 1
 2019.66666667 1376.66666667 2011.66666667 1386.66666667 1993 1386 c 2
 1956 1386 l 1
 1925 1378 l 2
 1922.33333333 1376.66666667 1919.66666667 1370 1917 1358 c 2
 1874 1157 l 1
 1939 1157 l 2
 1945.66666667 1157 1954 1162.16666667 1964 1172.5 c 128
 1974 1182.83333333 1982.33333333 1199.66666667 1989 1223 c 1
EndSplineSet
LCarets2: 1 0
EndChar

StartChar: ja.sub
Encoding: 149 -1 149
Width: 387
Flags: HW
AnchorPoint: "Sub" -881 -53 mark 0
AnchorPoint: "Sub" 635 -827 basemark 0
LayerCount: 2
Fore
SplineSet
735 -246 m 1
 724.333333333 -299.333333333 694.666666667 -345 646 -383 c 128
 597.333333333 -421 546.666666667 -440 494 -440 c 2
 53 -440 l 2
 -52.3333333333 -440 -158 -386.333333333 -264 -279 c 1
 -127 -133 l 1
 -81.6666666667 -159 -44.6666666667 -180.333333333 -16 -197 c 0
 34.6666666667 -227 65.3333333333 -242 76 -242 c 2
 428 -242 l 2
 443.333333333 -242 456.333333333 -237.5 467 -228.5 c 128
 477.666666667 -219.5 483.666666667 -214.333333333 485 -213 c 128
 487 -211 487 -211 489 -209 c 2
 504 -133 l 2
 506.666666667 -117.666666667 488.333333333 -92.3333333333 449 -57 c 1
 625 80 l 1
 711 17.3333333333 754 -43.3333333333 754 -102 c 0
 754 -114 753.333333333 -123.666666667 752 -131 c 2
 735 -246 l 1
672 -618 m 2
 661.333333333 -676.666666667 632 -726.666666667 584 -768 c 1
 538.666666667 -816 486.666666667 -840 428 -840 c 2
 76 -840 l 2
 28 -840 -16.3333333333 -825.666666667 -57 -797 c 1
 -73 -781 -73 -781 -85.5 -768.5 c 128
 -93.8333333333 -760.166666667 -99.3333333333 -748.333333333 -102 -733 c 1
 -167.333333333 -805.666666667 -239.666666667 -842 -319 -842 c 2
 -731 -842 l 2
 -791 -842 -841.666666667 -826.333333333 -883 -795 c 0
 -913 -773 -928 -743 -928 -705 c 0
 -928 -693 -927.333333333 -683.333333333 -926 -676 c 2
 -895 -537 l 2
 -884.333333333 -482.333333333 -859 -440.666666667 -819 -412 c 1
 -779.666666667 -378 -733.333333333 -360.666666667 -680 -360 c 2
 -535 -360 l 2
 -528.333333333 -360 -519.333333333 -356.666666667 -508 -350 c 1
 -494 -336 l 1
 -485 -303 l 1
 -502 -299 l 1
 -817 -299 l 1
 -772 -82 l 1
 -399 -82 l 2
 -344.333333333 -82 -298.666666667 -97 -262 -127 c 1
 -230.666666667 -166.333333333 -218.333333333 -206.666666667 -225 -248 c 1
 -262 -416 l 1
 -268.666666667 -454 -295 -487.666666667 -341 -517 c 128
 -387 -546.333333333 -431.666666667 -561 -475 -561 c 2
 -621 -561 l 2
 -645.666666667 -561 -658.333333333 -564.333333333 -659 -571 c 2
 -670 -625 l 1
 -666 -635 l 1
 -659.333333333 -641.666666667 -650.333333333 -645 -639 -645 c 2
 -319 -645 l 2
 -299.666666667 -645 -273.333333333 -634.666666667 -240 -614 c 1
 -214 -593.333333333 -198.333333333 -570.333333333 -193 -545 c 2
 -176 -463 l 1
 76 -463 l 1
 59 -545 l 2
 53.6666666667 -571 59.3333333333 -593.333333333 76 -612 c 1
 102 -634 125.666666667 -645 147 -645 c 2
 385 -645 l 1
 397 -638.333333333 405.833333333 -633.666666667 411.5 -631 c 128
 417.166666667 -628.333333333 420.333333333 -625.5 421 -622.5 c 128
 421.666666667 -619.5 422 -617.333333333 422 -616 c 2
 453 -463 l 1
 700 -463 l 1
 672 -618 l 2
EndSplineSet
LCarets2: 1 0
EndChar

StartChar: jha.sub
Encoding: 154 -1 154
Width: 423
Flags: HW
AnchorPoint: "Sub" -877 -66 mark 0
AnchorPoint: "Sub" 694 -770 basemark 0
LayerCount: 2
Fore
SplineSet
764 -535 m 1
 748.666666667 -604.333333333 711 -661.666666667 651 -707 c 1
 593.666666667 -756.333333333 529 -780.666666667 457 -780 c 2
 254 -780 l 2
 206 -780 172.666666667 -762.333333333 154 -727 c 1
 108.666666667 -762.333333333 56.6666666667 -780 -2 -780 c 2
 -178 -780 l 2
 -222 -780 -257.666666667 -765.666666667 -285 -737 c 1
 -333 -765.666666667 -381.333333333 -780 -430 -780 c 2
 -750 -780 l 2
 -832 -780 -892 -755.666666667 -930 -707 c 1
 -960 -675.666666667 -975 -635.333333333 -975 -586 c 0
 -975 -575.333333333 -973.666666667 -559 -971 -537 c 1
 -918 -291 l 1
 -907.333333333 -227 -868.333333333 -173 -801 -129 c 128
 -733.666666667 -85 -662 -63 -586 -63 c 2
 -319 -63 l 2
 -242.333333333 -63 -182.333333333 -85.6666666667 -139 -131 c 0
 -102.333333333 -169 -84 -210 -84 -254 c 0
 -84 -263.333333333 -85.3333333333 -279 -88 -301 c 1
 -135 -526 l 1
 -136.333333333 -542.666666667 -130.5 -556.5 -117.5 -567.5 c 128
 -104.5 -578.5 -92.6666666667 -584 -82 -584 c 2
 4 -584 l 2
 13.3333333333 -584 20.8333333333 -582.166666667 26.5 -578.5 c 128
 32.1666666667 -574.833333333 35.6666666667 -572.333333333 37 -571 c 0
 49 -564.333333333 56.3333333333 -553 59 -537 c 2
 104 -328 l 1
 106.666666667 -306 100.166666667 -285.166666667 84.5 -265.5 c 128
 68.8333333333 -245.833333333 29 -227.666666667 -35 -211 c 1
 168 -63 l 1
 236 -83.6666666667 288 -117.333333333 324 -164 c 1
 329.333333333 -174.666666667 336.666666667 -191.333333333 346 -214 c 128
 355.333333333 -236.666666667 360 -260.333333333 360 -285 c 0
 360 -297 359.333333333 -306.333333333 358 -313 c 2
 307 -551 l 2
 307 -553.666666667 307.666666667 -560.333333333 309 -571 c 1
 318.333333333 -573.666666667 323.833333333 -575.5 325.5 -576.5 c 128
 327.166666667 -577.5 328.666666667 -578.666666667 330 -580 c 1
 434 -580 l 2
 449.333333333 -580 466.833333333 -573.833333333 486.5 -561.5 c 128
 506.166666667 -549.166666667 516.666666667 -535.333333333 518 -520 c 1
 555 -338 l 1
 557.666666667 -309.333333333 548 -282.666666667 526 -258 c 1
 509.333333333 -233.333333333 463 -210.666666667 387 -190 c 1
 582 -53 l 1
 622.666666667 -63.6666666667 656.333333333 -77.6666666667 683 -95 c 128
 709.666666667 -112.333333333 735.333333333 -133.333333333 760 -158 c 1
 791.333333333 -196 807 -235.333333333 807 -276 c 0
 807 -288 806.333333333 -297.666666667 805 -305 c 2
 764 -535 l 1
244 -829 m 1
 -8 -829 l 1
 2 -768 l 1
 147 -709 l 1
 252 -768 l 1
 244 -829 l 1
-393 -506 m 2
 -356 -334 l 1
 -353.333333333 -309.333333333 -361.666666667 -289.333333333 -381 -274 c 1
 -393 -258.666666667 -411.333333333 -251.333333333 -436 -252 c 2
 -602 -252 l 2
 -628 -252 -647 -258 -659 -270 c 1
 -675.666666667 -280.666666667 -685.333333333 -296.333333333 -688 -317 c 1
 -727 -504 l 1
 -732.333333333 -520.666666667 -726.166666667 -536.666666667 -708.5 -552 c 128
 -690.833333333 -567.333333333 -671.666666667 -575 -651 -575 c 2
 -492 -575 l 2
 -476.666666667 -575 -456 -567.666666667 -430 -553 c 1
 -409.333333333 -538.333333333 -397 -522.666666667 -393 -506 c 2
EndSplineSet
LCarets2: 1 0
EndChar

StartChar: jha.part
Encoding: 155 -1 155
Width: 882
Flags: HW
LayerCount: 2
Fore
SplineSet
1022 274 m 2
 1015.33333333 237.333333333 1003.5 204.666666667 986.5 176 c 128
 969.5 147.333333333 943.666666667 115.333333333 909 80 c 1
 841 22.6666666667 773 -6 705 -6 c 2
 352 -6 l 2
 236 -6 139 68.3333333333 61 217 c 1
 129 535 l 1
 168 543 l 1
 192.666666667 449 236.333333333 372.833333333 299 314.5 c 128
 361.666666667 256.166666667 424.333333333 227 487 227 c 2
 616 227 l 2
 650 227 678 238 700 260 c 1
 730 284.666666667 748 312 754 342 c 2
 907 1069 l 1
 909.666666667 1091 904.5 1112.16666667 891.5 1132.5 c 128
 878.5 1152.83333333 859.333333333 1163 834 1163 c 2
 547 1163 l 1
 594 1395 l 1
 952 1395 l 2
 1034 1395 1099.66666667 1363.33333333 1149 1300 c 1
 1179 1256 1194 1204.33333333 1194 1145 c 0
 1194 1120.33333333 1191.33333333 1095 1186 1069 c 2
 1022 274 l 2
877 -391 m 1
 596 -391 l 1
 662 -76 l 1
 942 -76 l 1
 877 -391 l 1
EndSplineSet
EndChar

StartChar: nya
Encoding: 157 3230 157
Width: 2373
Flags: HW
LayerCount: 2
Fore
SplineSet
2681 987 m 2
 2675.66666667 957 2666.5 930.666666667 2653.5 908 c 128
 2640.5 885.333333333 2621 859.666666667 2595 831 c 1
 2541.66666667 783 2488.33333333 759.333333333 2435 760 c 2
 2267 760 l 1
 2318 991 l 1
 2370 991 l 2
 2392 991 2407.66666667 1011.66666667 2417 1053 c 2
 2433 1133 l 1
 2435.66666667 1153.66666667 2415.33333333 1163.66666667 2372 1163 c 2
 2269 1163 l 2
 2235 1163 2205.66666667 1152.16666667 2181 1130.5 c 128
 2156.33333333 1108.83333333 2141.33333333 1083 2136 1053 c 2
 2075 756 l 2
 2063 696 2040.16666667 640.333333333 2006.5 589 c 128
 1972.83333333 537.666666667 1926 488 1866 440 c 1
 1835 297 l 1
 1833.66666667 281.666666667 1836.33333333 268 1843 256 c 1
 1853.66666667 244 1866.66666667 238 1882 238 c 2
 1997 238 l 1
 1950 6 l 1
 1749 8 l 2
 1679.66666667 8 1625 30.6666666667 1585 76 c 0
 1556.33333333 110 1542 147.333333333 1542 188 c 0
 1542 198.666666667 1543.33333333 215.333333333 1546 238 c 1
 1569 352 l 1
 1358 352 l 2
 1295.33333333 352 1246.66666667 372.666666667 1212 414 c 1
 1186 440 1173.33333333 472.666666667 1174 512 c 0
 1174 527.333333333 1174.66666667 539.666666667 1176 549 c 2
 1206 694 l 2
 1215.33333333 739.333333333 1243 776.666666667 1289 806 c 128
 1335 835.333333333 1387.33333333 850 1446 850 c 2
 1698 850 l 2
 1729.33333333 850 1757.33333333 837.666666667 1782 813 c 1
 1806 784 l 1
 1868 1090 l 2
 1873.33333333 1110.66666667 1867.16666667 1127 1849.5 1139 c 128
 1831.83333333 1151 1806 1157 1772 1157 c 2
 1642 1157 l 2
 1616 1157 1598 1155.66666667 1588 1153 c 128
 1578 1150.33333333 1562.66666667 1142.5 1542 1129.5 c 128
 1521.33333333 1116.5 1508.33333333 1097.66666667 1503 1073 c 2
 1470 915 l 1
 1194 915 l 1
 1225 1063 l 2
 1230.33333333 1085 1224.16666667 1105.83333333 1206.5 1125.5 c 128
 1188.83333333 1145.16666667 1160 1155 1120 1155 c 2
 930 1155 l 2
 913.333333333 1155 901 1152 893 1146 c 128
 885 1140 877.333333333 1124.66666667 870 1100 c 1
 842 967 l 2
 839.333333333 947.666666667 842.666666667 932.666666667 852 922 c 1
 854.666666667 911.333333333 863.666666667 905.666666667 879 905 c 2
 975 905 l 1
 918 645 l 1
 731 647 l 2
 664.333333333 647 614 671.666666667 580 721 c 1
 555.333333333 759 543 798.666666667 543 840 c 0
 543 864.666666667 544.333333333 883 547 895 c 2
 600 1153 l 2
 606.666666667 1187 617.833333333 1217.33333333 633.5 1244 c 128
 649.166666667 1270.66666667 673 1295 705 1317 c 1
 755.666666667 1362.33333333 815 1384.66666667 883 1384 c 2
 1223 1384 l 2
 1280.33333333 1384 1328 1369.66666667 1366 1341 c 0
 1388 1325.66666667 1402.33333333 1306 1409 1282 c 1
 1421 1297.33333333 1432.5 1309.66666667 1443.5 1319 c 128
 1454.5 1328.33333333 1467.66666667 1335.66666667 1483 1341 c 1
 1527 1369.66666667 1574 1384 1624 1384 c 2
 1901 1384 l 2
 1946.33333333 1384 1981.66666667 1372 2007 1348 c 1
 2026.33333333 1336 2041.33333333 1316.66666667 2052 1290 c 1
 2078 1320 2103.33333333 1340 2128 1350 c 1
 2166 1374.66666667 2211.66666667 1386.66666667 2265 1386 c 2
 2540 1386 l 2
 2598.66666667 1386 2645 1365.66666667 2679 1325 c 0
 2703.66666667 1295 2716 1259.66666667 2716 1219 c 0
 2716 1209.66666667 2714.66666667 1193.66666667 2712 1171 c 2
 2681 987 l 2
1604 598 m 1
 1587 606 l 2
 1576.33333333 612.666666667 1556.66666667 616 1528 616 c 2
 1440 616 l 2
 1434.66666667 616 1430.33333333 619.666666667 1427 627 c 1
 1423 598 l 1
 1432 590 l 2
 1441.33333333 580.666666667 1450.66666667 575.666666667 1460 575 c 2
 1550 575 l 2
 1557.33333333 575 1575.33333333 582.666666667 1604 598 c 1
EndSplineSet
LCarets2: 1 0
EndChar

